#N canvas 827 239 527 327 12;
#X obj 204 110 adc~;
#X obj 306 164 meter2~;
#X obj -52 251 pdlink~ 1-track-L;
#X obj 68 251 pdlink~ 1-track-R;
#X obj 204 406 dac~;
#X obj 425 244 knob 50 0 1 0 0 empty empty #333333 #696969 #EEEEEE 1 0 0 0 1 270 0 0 0 empty empty 0 12 6 -15 0 1 0 0;
#X obj 193 336 *~;
#X obj 235 336 *~;
#X text 500 283 Monitor Knob;
#X connect 0 0 6 0;
#X connect 0 0 1 0 32.................L....XF....C....lA...LB....;
#X connect 0 0 2 0 32.................N....Dv+++uC....A7+++qG....;
#X connect 0 1 7 0;
#X connect 0 1 3 0 32.................I....n3+++eB....J9+++uA....;
#X connect 0 1 1 1 32.................L....XH....C....FB...LB....;
#X connect 5 0 7 1 32.................d....3z+++uG....N8+++qB....;
#X connect 5 0 6 1 32.................d....Px+++uG....j7+++qB....;
#X connect 6 0 4 0;
#X connect 7 0 4 1;
