#N canvas 827 239 527 327 12;
#X obj 14 -58 adc~;
#X obj 44 106 meter2~;
#X obj 8 562 dac~;
#X obj 333 143 knob 50 0 1 0 0 empty empty #333333 #696969 #EEEEEE 1 0 0 0 1 270 0 0 0 empty empty 0 12 6 -15 0 1 0 0;
#X obj 8 471 *~;
#X obj 50 471 *~;
#X obj 672 184 samplerate~;
#X obj 604 136 bng 25 250 50 0 empty empty empty 17 7 0 10 #e3dfd9 #5a5a5a #5a5a5a;
#X floatatom 672 218 6 0 0 0 - - - 12;
#X obj 212 68 popmenu 128 26 12 #E3DFD9 #5A5A5A \  empty empty empty empty 1 0 -1 1 0 1 0 0 0 0 0 select 1 2 3 4 5 6 7 8 9 10 11 12 13 14 15 16;
#X obj 201 -152 lb;
#X obj 951 232 symbol;
#X obj 199 -112 t b b;
#X obj 281 -143 bng 25 250 50 0 empty empty empty 17 7 0 10 #e3dfd9 #5a5a5a #5a5a5a;
#X msg 214 -83 0;
#X obj 1029 61 >= 10;
#X msg 951 171 localhost:2220\$1;
#X obj 997 90 router 2;
#X msg 997 197 localhost:222\$1;
#X obj -2 410 pdlink~ audio-in-L;
#X obj 97 438 pdlink~ audio-in-R;
#X msg 175 -49 clear \, add select 1 2 3 4 5 6 7 8 9 10 11 12 13 14 15 16;
#X obj 1130 76 select 0;
#X obj 672 275 pdlink sample_rate_data;
#X msg 1133 171 localhost:2230\$1;
#X msg 1121 197 localhost:223\$1;
#X obj 1121 232 symbol;
#X msg 770 184 localhost:2240\$1;
#X obj 770 232 symbol;
#X msg 817 153 localhost:224\$1;
#X obj 672 76 bang;
#X text 229 37 Audio Channel;
#X text 319 112 Monitor/Mix;
#X text 60 67 Audio In;
#X obj 419 88 meter2~;
#X text 419 50 Audio Out;
#X obj 526 -82 param Monitor-Mix;
#X msg 526 -124 create;
#X obj 536 -190 lb;
#X obj 526 -26 daw_storage monitor_mix;
#X obj 33 68 *~;
#X obj 104 60 *~;
#X obj 154 36 knob 50 0 1 0 0 empty empty #333333 #696969 #EEEEEE 1 0 0 0 1 270 0 0 0 empty empty 0 12 6 -15 0 1 0 0;
#X text 177 112 Volume In;
#X msg -13 -190 create;
#X obj -3 -256 lb;
#X obj -13 -148 param volume-in;
#X obj -13 -92 daw_storage volume-in;
#X connect 0 0 40 0;
#X connect 0 1 41 0;
#X connect 1 0 19 0;
#X connect 1 1 20 0;
#X connect 3 0 5 1 32.................OA...Du++++S....w6+++KN....;
#X connect 3 0 4 1 32.................OA...br++++S....G6+++KN....;
#X connect 3 0 36 0;
#X connect 4 0 2 0;
#X connect 4 0 34 0;
#X connect 5 0 2 1;
#X connect 5 0 34 1;
#X connect 6 0 8 0;
#X connect 7 0 6 0;
#X connect 8 0 23 0;
#X connect 9 0 22 0;
#X connect 9 0 30 0;
#X connect 10 0 12 0;
#X connect 11 0 19 1;
#X connect 12 0 21 0;
#X connect 12 1 14 0;
#X connect 13 0 12 0;
#X connect 14 0 9 0;
#X connect 15 0 17 1;
#X connect 16 0 11 0;
#X connect 17 0 27 0 32.................Y....3w+++eF....d7+++uD....;
#X connect 17 0 24 0 32.................e....fH...vG....HB...3C....;
#X connect 17 0 16 0 32.................i....L8++++H....S++++6C....;
#X connect 17 1 29 0 32.................O....zx++++C....s7+++yB....;
#X connect 17 1 18 0 32.................r....D9+++OK....g++++iE....;
#X connect 17 1 25 0 32.................q....vE...vJ....bA...fE....;
#X connect 18 0 11 0;
#X connect 19 0 4 0;
#X connect 20 0 5 0;
#X connect 21 0 9 0;
#X connect 22 1 15 0;
#X connect 22 1 17 0;
#X connect 24 0 26 0;
#X connect 25 0 26 0;
#X connect 26 0 20 1;
#X connect 27 0 28 0;
#X connect 28 0 23 1;
#X connect 29 0 28 0;
#X connect 30 0 6 0;
#X connect 36 0 3 0;
#X connect 36 0 39 0;
#X connect 37 0 36 0;
#X connect 38 0 37 0;
#X connect 39 0 3 0;
#X connect 40 0 1 0;
#X connect 41 0 1 1;
#X connect 42 0 46 0;
#X connect 42 0 41 1;
#X connect 42 0 40 1;
#X connect 44 0 46 0;
#X connect 45 0 44 0;
#X connect 46 0 47 0;
#X connect 46 0 42 0;
#X connect 47 0 42 0;
