#N canvas 827 239 734 565 12;
#X obj 165 117 meter2~;
#X obj 337 161 popmenu 128 26 12 #E3DFD9 #5A5A5A \  empty empty empty empty 1 0 -1 1 0 1 0 0 0 0 0 1 2 3 4 5 6 7 8 9 10 11 12 13 14 15 16;
#X msg 337 118 clear \, add 1 2 3 4 5 6 7 8 9 10 11 12 13 14 15 16;
#X obj 363 15 lb;
#X obj 172 -103 symbol;
#X obj 361 55 t b b;
#X obj 466 -226 bng 25 250 50 0 empty empty empty 17 7 0 10 #e3dfd9 #5a5a5a #5a5a5a;
#X msg 376 84 0;
#X obj 243 -226 >= 10;
#X msg 172 -149 localhost:2220\$1;
#X obj 215 -252 + 1;
#X obj 215 -193 router 2;
#X obj 172 -49 print route-1;
#X obj 308 -100 symbol;
#X obj 301 -49 print route-2;
#X msg 301 -149 localhost:222\$1;
#X obj 165 52 pdlink~ audio-in-L;
#X obj 372 52 pdlink~ audio-in-R;
#X obj 516 -276 inlet;
#X obj 525 -153 - 1;
#X connect 1 0 10 0;
#X connect 2 0 1 0;
#X connect 3 0 5 0;
#X connect 4 0 12 0;
#X connect 4 0 16 1;
#X connect 4 0 17 1;
#X connect 5 0 2 0;
#X connect 5 1 7 0;
#X connect 6 0 5 0;
#X connect 7 0 1 0;
#X connect 8 0 11 1;
#X connect 9 0 4 0;
#X connect 10 0 8 0;
#X connect 10 0 11 0;
#X connect 11 0 9 0;
#X connect 11 1 15 0;
#X connect 13 0 14 0;
#X connect 13 0 16 1;
#X connect 13 0 17 1;
#X connect 15 0 13 0;
#X connect 16 0 0 0;
#X connect 17 0 0 1;
#X connect 18 0 19 0;
#X connect 19 0 1 0;
