#N canvas 827 239 734 565 12;
#N canvas 0 0 450 250 (subpatch) 0;
#X array 0-live_buffer_\$1 44100 float 2;
#X coords 0 1 44100 -1 200 140 1;
#X restore 60 37 graph;
#N canvas 0 0 450 250 (subpatch) 0;
#X array 1-live_buffer_\$1 44100 float 2;
#X coords 0 1 44100 -1 200 140 1;
#X restore 60 207 graph;
#X obj 492 -386 lb;
#X obj 492 -307 samplerate~;
#X floatatom 492 -281 5 0 0 0 - - - 12;
#X obj 516 -218 f \$1;
#X msg 500 -157 0-live_buffer_\$1;
#X obj 488 -121 pack s f;
#X msg 488 -91 \; \$1 resize \$2, f 24;
#X obj 474 -218 f \$1, f 5;
#X msg 474 -190 1-live_buffer_\$1;
#X obj 305 -218 s \$0-sample_rate_load;
#X obj 492 -257 t b b b f;
#X obj 1061 132 r \$1_l_b_first_record_complete;
#X obj 264 -84 r \$1_l_b_select_bang;
#X obj 792 132 r \$1_l_b_first_index;
#X obj 924 129 r \$1_l_b_last_index;
#X obj 454 132 array size 1-live_buffer_\$1, f 24;
#X obj 631 132 r \$0-sample_rate_load;
#X floatatom 631 158 5 0 0 0 - - - 12;
#X floatatom 454 158 5 0 0 0 - - - 12;
#X floatatom 792 158 5 0 0 0 - - - 12;
#X floatatom 924 158 5 0 0 0 - - - 12;
#X floatatom 381 161 5 0 0 0 - - - 12;
#X text 373 131 ID Num;
#X floatatom 1061 158 5 0 0 0 - - - 12;
#X obj 1061 183 f;
#X obj 924 183 f;
#X obj 792 183 f;
#X obj 631 183 f;
#X obj 454 183 f;
#X obj 490 -355 t b b b;
#X obj 505 299 pack f f f f f f;
#X obj 505 379 s l_b_buffer_states, f 19;
#X connect 2 0 31 0;
#X connect 3 0 4 0;
#X connect 4 0 12 0;
#X connect 4 0 19 0;
#X connect 4 0 22 0;
#X connect 5 0 6 0;
#X connect 6 0 7 0;
#X connect 7 0 8 0;
#X connect 9 0 10 0;
#X connect 10 0 7 0;
#X connect 12 0 11 0;
#X connect 12 1 9 0;
#X connect 12 2 5 0;
#X connect 12 3 7 1;
#X connect 13 0 25 0;
#X connect 14 0 32 0;
#X connect 15 0 21 0;
#X connect 16 0 22 0;
#X connect 17 0 20 0;
#X connect 18 0 19 0;
#X connect 19 0 29 0;
#X connect 20 0 30 0;
#X connect 21 0 28 0;
#X connect 22 0 27 0;
#X connect 23 0 32 0;
#X connect 25 0 26 0;
#X connect 26 0 32 5;
#X connect 27 0 32 4;
#X connect 28 0 32 3;
#X connect 29 0 32 2;
#X connect 30 0 32 1;
#X connect 31 0 23 0;
#X connect 31 1 17 0;
#X connect 31 2 3 0;
#X connect 32 0 33 0;
