#N canvas 827 239 734 565 12;
#X obj 631 -296 samplerate~;
#X floatatom 631 -270 5 0 0 0 - - - 12;
#X obj 1061 8 r \$1_l_b_first_record_complete;
#X obj 631 -169 r \$1_l_b_select_bang;
#X obj 478 122 r \$0-sample_rate_load;
#X floatatom 478 148 5 0 0 0 - - - 12;
#X floatatom 633 148 5 0 0 0 - - - 12;
#X floatatom 769 151 10 0 0 0 - - - 12;
#X floatatom 381 161 5 0 0 0 - - - 12;
#X text 373 131 ID Num;
#X floatatom 1072 129 5 0 0 0 - - - 12;
#X obj 1072 154 f;
#X obj 769 176 f;
#X obj 633 173 f;
#X obj 478 173 f;
#X obj 505 379 s l_b_buffer_states;
#X obj 606 -462 r 1_l_b_first_record_bang;
#X obj 673 350 print record_bang_processed_numbers;
#X obj 655 -353 print received_first_record_bang;
#X obj 467 -91 f \$1;
#X obj 631 -238 / 1000;
#X obj 769 52 t b f;
#X obj 606 -341 t b b;
#X obj 1128 98 sel 0 1;
#X obj 1061 52 t f f;
#X obj 769 8 r \$1_l_b_dynamic_buffer_resize_bang;
#X obj 1178 222 f \$1;
#X msg 1162 283 0-live_buffer_\$1;
#X obj 1150 319 pack s f;
#X msg 1150 410 \; \$1 resize \$2, f 24;
#X obj 1136 222 f \$1, f 5;
#X msg 1136 250 1-live_buffer_\$1;
#X obj 1244 191 f;
#X obj 1142 133 t b b b b;
#X obj 1017 244 bng 25 250 50 0 empty empty empty 17 7 0 10 #e3dfd9 #5a5a5a #5a5a5a;
#X obj 1345 250 array define 1-live_buffer_\$1 48000;
#X obj 1392 222 array define 0-live_buffer_\$1 48000;
#X obj 670 -61 r \$0_l_b_data_update;
#X obj 505 299 pack f f f f f f;
#X obj 912 122 r \$0-slice_size_val;
#X floatatom 912 148 5 0 0 0 - - - 12;
#X obj 912 173 f;
#X obj 1178 350 / 16;
#X obj 1178 380 s \$0-slice_size_val;
#X floatatom 1390 38 5 0 0 0 - - - 12;
#X obj 1392 -56 bng 25 250 50 0 empty empty empty 17 7 0 10 #e3dfd9 #5a5a5a #5a5a5a;
#X obj 1392 -6 array size 0-live_buffer_\$1;
#X obj -39 -19 r \$1_l_b_last_index;
#X floatatom -39 31 5 0 0 0 - - - 12;
#X obj -39 84 s \$0_l_b_last_index;
#X obj 769 122 r \$0_l_b_last_index;
#X obj -184 -19 r \$1_l_b_first_index;
#X floatatom -184 31 5 0 0 0 - - - 16;
#X obj -184 84 s \$0_l_b_first_index;
#X obj 633 122 r \$0_l_b_first_index;
#X obj 631 -201 s \$0-sample_rate_load;
#X obj 1347 98 s \$0_l_b_last_index;
#X obj 422 -189 bng 25 250 50 0 empty empty empty 17 7 0 10 #e3dfd9 #5a5a5a #5a5a5a;
#X obj 1509 63 / 16;
#X obj 1516 109 s \$0-slice_size_val;
#X obj 1806 18 r \$1_l_b_delete_buffer, f 21;
#X msg 1916 83 resize 48000;
#X msg 1837 98 const 0;
#X msg 1905 131 resize \$1;
#X obj 1669 111 s \$0_l_b_data_update;
#X obj 1806 56 t b b b b b;
#X msg 1653 53 0;
#X msg 994 -149 resize \$1;
#X obj 576 -20 print data_update;
#X obj 865 80 print dynamic_buffer;
#X obj 1281 118 print first record;
#X obj 1421 -127 r \$1_l_b_load_up;
#X obj 1354 -94 t b b;
#X connect 0 0 1 0;
#X connect 1 0 67 0;
#X connect 1 0 20 0;
#X connect 2 0 24 0;
#X connect 2 0 70 0;
#X connect 4 0 5 0;
#X connect 5 0 14 0;
#X connect 6 0 13 0;
#X connect 7 0 12 0;
#X connect 8 0 38 0;
#X connect 10 0 11 0;
#X connect 11 0 38 5;
#X connect 12 0 38 3;
#X connect 13 0 38 2;
#X connect 14 0 38 1;
#X connect 16 0 22 0;
#X connect 16 0 18 0;
#X connect 19 0 8 0;
#X connect 20 0 55 0;
#X connect 21 0 38 0;
#X connect 21 1 7 0;
#X connect 22 0 19 0;
#X connect 22 1 0 0;
#X connect 23 1 33 0;
#X connect 24 0 23 0;
#X connect 24 1 10 0;
#X connect 25 0 21 0;
#X connect 25 0 69 0;
#X connect 26 0 27 0;
#X connect 27 0 28 0;
#X connect 30 0 31 0;
#X connect 31 0 28 0;
#X connect 32 0 42 0;
#X connect 33 0 38 0;
#X connect 33 1 30 0;
#X connect 33 2 26 0;
#X connect 33 3 32 0;
#X connect 34 0 33 0;
#X connect 37 0 38 0;
#X connect 37 0 68 0;
#X connect 38 0 15 0;
#X connect 38 0 17 0;
#X connect 39 0 40 0;
#X connect 40 0 41 0;
#X connect 41 0 38 4;
#X connect 42 0 43 0;
#X connect 44 0 56 0;
#X connect 44 0 58 0;
#X connect 45 0 46 0;
#X connect 46 0 44 0;
#X connect 47 0 48 0;
#X connect 48 0 49 0;
#X connect 50 0 7 0;
#X connect 50 0 32 1;
#X connect 51 0 52 0;
#X connect 52 0 53 0;
#X connect 54 0 6 0;
#X connect 57 0 19 0;
#X connect 58 0 59 0;
#X connect 60 0 65 0;
#X connect 61 0 36 0;
#X connect 61 0 35 0;
#X connect 62 0 36 0;
#X connect 62 0 35 0;
#X connect 65 0 64 0;
#X connect 65 1 66 0;
#X connect 65 2 45 0;
#X connect 65 3 62 0;
#X connect 65 4 61 0;
#X connect 66 0 24 0;
#X connect 71 0 72 0;
#X connect 72 0 19 0;
#X connect 72 1 45 0;
