#N canvas 827 239 734 565 12;
#X obj 38 165 symbol;
#X obj 73 48 >= 10;
#X msg 38 113 localhost:2220\$1;
#X obj 38 77 router 2;
#X obj 99 165 symbol;
#X msg 113 137 localhost:222\$1;
#N canvas 733 172 450 300 pdlink_objects 0;
#X obj -13 221 pdlink~ audio-in-L;
#X obj 134 221 pdlink~ audio-in-R;
#X obj -6 294 *~;
#X obj 144 295 *~;
#X obj 277 221 inlet volume-control;
#X obj 425 221 inlet processing_state;
#X obj 425 351 switch~;
#X obj 425 269 tgl 25 0 empty empty empty 17 7 0 10 #e3dfd9 #5a5a5a #5a5a5a 0 1;
#X obj 247 269 r~ \$1-record_head_vline;
#X obj 5 405 poke~ live_buffer_\$1, f 18;
#X obj 155 405 poke~ live_buffer_\$1;
#X obj 593 221 inlet poke_address_L;
#X obj 746 221 inlet poke_address_R;
#X obj 593 299 symbol;
#X obj 746 299 symbol;
#X obj 334 405 numbox~ 8 15 100 #E3DFD9 #5A5A5A 10 0 0 0;
#X obj 334 448 expr~ $v1 >= ($f2 * 0.9);
#X obj 334 544 f;
#X text 585 575 current buffer size;
#X obj 334 482 edge~;
#X obj 334 514 sel 1;
#X obj 334 570 expr $f1 * 2;
#X floatatom 454 576 14 0 0 0 - - - 12;
#X obj 454 550 array size 1-live_buffer_\$1, f 24;
#X obj 334 688 pack s f;
#X msg 334 659 1-live_buffer_\$1;
#X obj 334 635 f \$1;
#X obj 334 716 t b a;
#X msg 346 783 \; \$1 resize \$2, f 27;
#X obj 454 514 r \$0-sample_rate_load;
#X obj 208 544 bng 25 250 50 0 empty empty empty 17 7 0 10 #e3dfd9 #5a5a5a #5a5a5a;
#X obj 218 629 f \$1;
#X obj 334 599 t b b f;
#X msg 218 659 0-live_buffer_\$1;
#X obj 218 685 pack s f;
#X obj 134 98 inlet pdlink_address;
#X connect 0 0 2 0;
#X connect 1 0 3 0;
#X connect 2 0 9 0;
#X connect 3 0 10 0;
#X connect 4 0 2 1;
#X connect 4 0 3 1;
#X connect 5 0 7 0;
#X connect 7 0 6 0;
#X connect 8 0 10 1;
#X connect 8 0 9 1;
#X connect 8 0 15 0;
#X connect 11 0 13 0;
#X connect 12 0 14 0;
#X connect 13 0 9 0;
#X connect 14 0 10 0;
#X connect 15 0 16 0;
#X connect 16 0 19 0;
#X connect 17 0 21 0;
#X connect 19 0 20 0;
#X connect 20 0 17 0;
#X connect 21 0 32 0;
#X connect 22 0 16 1;
#X connect 22 0 17 1;
#X connect 23 0 22 0;
#X connect 24 0 27 0;
#X connect 25 0 24 0;
#X connect 26 0 25 0;
#X connect 27 0 23 0;
#X connect 27 1 28 0;
#X connect 29 0 23 0;
#X connect 30 0 17 0;
#X connect 31 0 33 0;
#X connect 32 0 26 0;
#X connect 32 1 31 0;
#X connect 32 2 24 1;
#X connect 32 2 34 1;
#X connect 33 0 34 0;
#X connect 34 0 28 0;
#X connect 35 0 0 1;
#X connect 35 0 1 1;
#X restore 83 315 pd pdlink_objects;
#X obj 180 202 knob 50 0 1 0 0 empty \$1-live-buffer-in #E3DFD9 #968E82 #5A5A5A 1 0 0 0 1 270 0 0 0 empty empty 0 12 6 -15 0 1 0 0;
#X msg 209 259 0;
#X msg 240 259 1;
#N canvas 0 0 450 250 (subpatch) 0;
#X array 0-live_buffer_\$1 48000 float 2;
#X coords 0 1 48000 -1 200 140 1;
#X restore 498 95 graph;
#N canvas 0 0 450 250 (subpatch) 0;
#X array 1-live_buffer_\$1 48000 float 2;
#X coords 0 1 48000 -1 200 140 1;
#X restore 498 265 graph;
#X text 300 179 External Audio In;
#X obj 18 -26 route 0;
#X obj 290 315 popmenu 128 26 12 #E3DFD9 #5A5A5A empty empty empty empty empty 0 -1 -1 0 1 0 0 0 0 0 0;
#X text 314 287 Resample in;
#X obj -120 202 r \$1-record_in_started;
#X obj 812 -117 lb;
#X obj 812 -91 samplerate~;
#X floatatom 812 -65 5 0 0 0 - - - 12;
#X obj 836 -2 f \$1;
#X msg 820 59 0-live_buffer_\$1;
#X obj 808 95 pack s f;
#X msg 808 174 \; \$1 resize \$2, f 24;
#X obj 794 -2 f \$1, f 5;
#X msg 794 26 1-live_buffer_\$1;
#X obj 631 -2 s \$0-sample_rate_load;
#X obj 812 -41 t b b b f;
#X obj 297 219 popmenu 128 26 12 #E3DFD9 #5A5A5A empty empty empty empty empty 0 -1 -1 0 1 0 0 0 0 0 0;
#X obj 256 421 print;
#X obj 134 391 print;
#X obj 342 126 bng 25 250 50 0 empty empty empty 17 7 0 10 #e3dfd9 #5a5a5a #5a5a5a;
#X msg 256 13 add none 1 2 3 4 5 6 7 8 9 10 11 12 13 14 15 16;
#X obj 290 -86 t b b;
#X obj 292 -157 lb;
#X msg 411 -47 clear;
#X obj 294 -120 delay 1;
#X obj -23 428 r \$1_l_b__select_bang;
#X obj -23 511 print received_bang;
#X obj -23 466 f \$1;
#X connect 0 0 6 0;
#X connect 1 0 3 1;
#X connect 2 0 0 0;
#X connect 3 0 2 0;
#X connect 3 1 5 0;
#X connect 4 0 6 0;
#X connect 5 0 4 0;
#X connect 7 0 6 1;
#X connect 8 0 6 2;
#X connect 9 0 6 2;
#X connect 13 0 8 0;
#X connect 13 1 1 0;
#X connect 13 1 3 0;
#X connect 13 1 9 0;
#X connect 14 0 29 0;
#X connect 17 0 18 0;
#X connect 18 0 19 0;
#X connect 19 0 27 0;
#X connect 20 0 21 0;
#X connect 21 0 22 0;
#X connect 22 0 23 0;
#X connect 24 0 25 0;
#X connect 25 0 22 0;
#X connect 27 0 26 0;
#X connect 27 1 24 0;
#X connect 27 2 20 0;
#X connect 27 3 22 1;
#X connect 28 0 13 0;
#X connect 28 0 30 0;
#X connect 31 0 28 0;
#X connect 32 0 14 0;
#X connect 32 0 28 0;
#X connect 33 0 32 0;
#X connect 33 1 35 0;
#X connect 34 0 36 0;
#X connect 35 0 28 0;
#X connect 35 0 14 0;
#X connect 36 0 33 0;
#X connect 37 0 39 0;
#X connect 39 0 38 0;
