#N canvas 827 239 734 565 12;
#X obj 364 404 *~;
#X obj 429 404 *~;
#X obj 496 246 knob 50 0 1 0 0 empty empty #333333 #696969 #EEEEEE 1 0 0 0 1 270 0 0 0 empty empty 0 0 0 0 0 0 0 0;
#X text 496 161 track 1 volume;
#X obj 342 325 *~;
#X obj 431 325 *~;
#X obj 330 163 line~;
#X msg 382 134 1 5;
#X msg 330 134 0 0;
#X obj 211 216 snake~ out;
#X obj 330 97 r \$1-mixer_env_close;
#X obj 468 97 r \$1-mixer_env_open;
#X obj 211 163 r~ \$1-voice_audio;
#X obj 496 213 r audio-\$1-out;
#X obj 353 526 outlet~;
#X obj 429 526 outlet~;
#X connect 0 0 14 0;
#X connect 1 0 15 0;
#X connect 2 0 1 1 48.................sB...vB...Pq....r....LF...Px++++iA...j7+++Oa....;
#X connect 2 0 0 1 48.................sB...rB...Pq....q....LF....h++++iA...f3+++Oa....;
#X connect 4 0 0 0;
#X connect 5 0 1 0;
#X connect 6 0 5 1;
#X connect 6 0 4 1;
#X connect 7 0 6 0;
#X connect 8 0 6 0;
#X connect 9 0 4 0;
#X connect 9 1 5 0;
#X connect 10 0 8 0;
#X connect 11 0 7 0;
#X connect 12 0 9 0;
#X connect 13 0 2 0;
