#N struct 2052-cell float x float y float cellsize float color;
#N struct 2054-cell float x float y float cellsize float color;
#N canvas 827 239 527 327 12;
#X obj 47 549 bng 25 250 50 0 1-sample-load empty empty 17 7 0 10 #333333 #eeeeee #e4e4e4;
#X obj 24 168 knob 50 0 1 0 0 1-live-buffer-in empty #333333 #696969 #EEEEEE 1 0 0 0 1 270 0 0 0 empty empty 0 12 6 -15 0 1 0 0;
#X text 14 522 Sample 1 Load;
#X text 17 135 Audio 1 In;
#X obj 24 260 knob 50 0 1 0 0 audio-1-out empty #333333 #696969 #EEEEEE 1 0 0 0 1 270 0 0 0 empty empty 0 12 6 -15 0 1 0 0;
#X text 13 228 audio 1 out;
#X obj 159 549 bng 25 250 50 0 2-sample-load empty empty 17 7 0 10 #333333 #eeeeee #e4e4e4;
#X obj 134 168 knob 50 0 1 0 0 track-2-in empty #333333 #696969 #EEEEEE 1 0 0 0 1 270 0 0 0 empty empty 0 12 6 -15 0 1 0 0;
#X obj 134 260 knob 50 0 1 0 0 audio-2-out empty #333333 #696969 #EEEEEE 1 0 0 0 1 270 0 0 0 empty empty 0 12 6 -15 0 1 0 0;
#X text 124 522 Sample 2 Load;
#X text 127 135 Audio 2 In;
#X text 123 228 audio 2 out;
#X obj 271 549 bng 25 250 50 0 3-sample-load empty empty 17 7 0 10 #333333 #eeeeee #e4e4e4;
#X obj 246 168 knob 50 0 1 0 0 track-3-in empty #333333 #696969 #EEEEEE 1 0 0 0 1 270 0 0 0 empty empty 0 12 6 -15 0 1 0 0;
#X obj 246 260 knob 50 0 1 0 0 audio-3-out empty #333333 #696969 #EEEEEE 1 0 0 0 1 270 0 0 0 empty empty 0 12 6 -15 0 1 0 0;
#X text 236 522 Sample 3 Load;
#X text 239 135 Audio 3 In;
#X text 235 228 audio 3 out;
#X text 3 73 Quantize Track 1;
#X text 115 73 Quantize Track 2;
#X text 227 73 Quantize Track 3;
#X obj 36 101 tgl 25 0 1-quantizer empty empty 17 7 0 10 #333333 #eeeeee #111111 0 1;
#X obj 148 101 tgl 25 0 empty empty empty 17 7 0 10 #333333 #eeeeee #111111 0 1;
#X obj 260 101 tgl 25 0 empty empty empty 17 7 0 10 #333333 #eeeeee #111111 0 1;
#N canvas 733 172 450 300 mixer 0;
#X obj -77 630 *~;
#X obj -12 630 *~;
#X obj 55 472 knob 50 0 1 0 0 empty empty #333333 #696969 #EEEEEE 1 0 0 0 1 270 0 0 0 empty empty 0 0 0 0 0 0 0 0;
#X obj -19 1051 dac~;
#X text 55 387 track 1 volume;
#X obj 55 439 r audio-1-out;
#X obj 37 3 meter2~;
#X obj 150 139 *~;
#X obj 195 139 *~;
#X text 125 -12 Track 1 Audio in;
#X obj 150 63 knob 50 0 1 0 0 empty empty #333333 #696969 #EEEEEE 1 0 0 0 1 270 0 0 0 empty empty 0 12 6 -15 0 1 0 0;
#X obj 322 37 meter2~;
#X obj 435 173 *~;
#X obj 480 173 *~;
#X text 410 22 Track 1 Audio in;
#X obj 435 97 knob 50 0 1 0 0 empty empty #333333 #696969 #EEEEEE 1 0 0 0 1 270 0 0 0 empty empty 0 12 6 -15 0 1 0 0;
#X obj 435 57 r track-3-in;
#X obj 150 23 r track-2-in;
#X obj -59 679 meter2~;
#X obj 180 921 knob 50 0 1 0 0.75 empty empty #E3DFD9 #968E82 #5A5A5A 1 0 0 0 1 270 0 0 0 empty empty 0 12 6 -15 0 1 0 0;
#X obj -49 1005 *~;
#X obj 37 1005 *~;
#X text 112 757 Master Volume;
#X obj -99 551 *~;
#X obj -10 551 *~;
#X obj -111 389 line~;
#X msg -59 360 1 5;
#X msg -111 360 0 0;
#X obj 27 323 r 1-mixer_env_open;
#X obj -230 389 r~ 1-voice_audio;
#X obj -230 442 snake~ out;
#X obj -111 323 r 1-mixer_env_close;
#X obj 133 860 mixer 2;
#X obj 194 860 mixer 3;
#X obj 255 860 mixer 4;
#X obj 316 860 mixer 5;
#X obj 377 860 mixer 6;
#X obj 438 860 mixer 7;
#X obj 499 860 mixer 8;
#X obj 560 860 mixer 9;
#X obj 621 860 mixer 10;
#X obj 682 860 mixer 11;
#X obj 743 860 mixer 12;
#X obj 242 1005 mixer 13;
#X obj 303 1005 mixer 14;
#X obj 362 1005 mixer 15;
#X obj 421 1005 mixer 16;
#X connect 0 0 18 0;
#X connect 1 0 18 1;
#X connect 2 0 1 1 48.................sB...vB...Pq....r....LF...Px++++iA...j7+++Oa....;
#X connect 2 0 0 1 48.................sB...rB...Pq....q....LF....h++++iA...f3+++Oa....;
#X connect 5 0 2 0;
#X connect 6 0 7 0;
#X connect 6 1 8 0;
#X connect 10 0 7 1;
#X connect 10 0 8 1;
#X connect 11 0 12 0;
#X connect 11 1 13 0;
#X connect 15 0 12 1;
#X connect 15 0 13 1;
#X connect 16 0 15 0;
#X connect 17 0 10 0;
#X connect 18 0 20 0;
#X connect 18 1 21 0;
#X connect 19 0 20 1;
#X connect 19 0 21 1;
#X connect 20 0 3 0;
#X connect 21 0 3 1;
#X connect 23 0 0 0;
#X connect 24 0 1 0;
#X connect 25 0 24 1;
#X connect 25 0 23 1;
#X connect 26 0 25 0;
#X connect 27 0 25 0;
#X connect 28 0 26 0;
#X connect 29 0 30 0;
#X connect 30 0 23 0;
#X connect 30 1 24 0;
#X connect 31 0 27 0;
#X connect 32 0 20 0;
#X connect 32 1 21 0;
#X connect 33 0 20 0;
#X connect 33 1 21 0;
#X connect 34 0 20 0;
#X connect 34 1 21 0;
#X connect 35 0 20 0;
#X connect 35 1 21 0;
#X connect 36 0 20 0;
#X connect 36 1 21 0;
#X connect 37 0 20 0;
#X connect 37 1 21 0;
#X connect 38 0 20 0;
#X connect 38 1 21 0;
#X connect 39 0 20 0;
#X connect 39 1 21 0;
#X connect 40 0 20 0;
#X connect 40 1 21 0;
#X connect 41 0 20 0;
#X connect 41 1 21 0;
#X connect 42 0 20 0;
#X connect 42 1 21 0;
#X connect 43 0 20 0;
#X connect 43 1 21 0;
#X connect 44 0 20 0;
#X connect 44 1 21 0;
#X connect 45 0 20 0;
#X connect 45 1 21 0;
#X connect 46 0 20 0;
#X connect 46 1 21 0;
#X restore 13 396 pd mixer;
#N canvas 0 22 450 300 arrays-samples 1;
#X obj 37 107 sample-data 1;
#X obj 774 154 until 16;
#X obj 774 185 f;
#X obj 840 164 + 1;
#X obj 840 196 mod 16;
#X obj 840 124 sel 0;
#X obj 776 90 lb;
#X obj 774 124 delay 1;
#X obj 774 380 s;
#X msg 785 308 \$1-loop_buffer_default_selection;
#X obj 774 273 t f f;
#X obj 785 343 symbol;
#X text 766 47 Set default loop buffer;
#X obj 774 232 + 1;
#X obj 189 107 live_buffer 1;
#X obj 345 107 sample_player_rebuild 1;
#X obj 37 146 sample-data 2;
#X obj 189 146 live_buffer 2;
#X obj 345 146 sample_player_rebuild 2;
#X obj 37 185 sample-data 3;
#X obj 189 185 live_buffer 3;
#X obj 345 185 sample_player_rebuild 3;
#X obj 37 224 sample-data 4;
#X obj 189 224 live_buffer 4;
#X obj 345 224 sample_player_rebuild 4;
#X obj 37 263 sample-data 5;
#X obj 189 263 live_buffer 5;
#X obj 345 263 sample_player_rebuild 5;
#X obj 37 302 sample-data 6;
#X obj 189 302 live_buffer 6;
#X obj 345 302 sample_player_rebuild 6;
#X obj 37 341 sample-data 7;
#X obj 189 341 live_buffer 7;
#X obj 345 341 sample_player_rebuild 7;
#X obj 37 380 sample-data 8;
#X obj 189 380 live_buffer 8;
#X obj 345 380 sample_player_rebuild 8;
#X obj 37 419 sample-data 9;
#X obj 189 419 live_buffer 9;
#X obj 345 419 sample_player_rebuild 9;
#X obj 37 458 sample-data 10;
#X obj 189 458 live_buffer 10;
#X obj 345 458 sample_player_rebuild 10;
#X obj 37 497 sample-data 11;
#X obj 189 497 live_buffer 11;
#X obj 345 497 sample_player_rebuild 11;
#X obj 37 536 sample-data 12;
#X obj 189 536 live_buffer 12;
#X obj 345 536 sample_player_rebuild 12;
#X obj 37 575 sample-data 13;
#X obj 189 575 live_buffer 13;
#X obj 345 575 sample_player_rebuild 13;
#X obj 37 614 sample-data 14;
#X obj 189 614 live_buffer 14;
#X obj 345 614 sample_player_rebuild 14;
#X obj 37 653 sample-data 15;
#X obj 189 653 live_buffer 15;
#X obj 37 692 sample-data 16;
#X obj 189 692 live_buffer 16;
#X obj 345 653 sample_player_rebuild 15;
#X obj 345 692 sample_player_rebuild 16;
#X connect 1 0 2 0;
#X connect 2 0 3 0;
#X connect 2 0 13 0;
#X connect 3 0 4 0;
#X connect 4 0 2 1;
#X connect 4 0 5 0;
#X connect 5 0 1 1;
#X connect 6 0 7 0;
#X connect 7 0 1 0;
#X connect 9 0 11 0;
#X connect 10 0 8 0;
#X connect 10 1 9 0;
#X connect 11 0 8 1;
#X connect 13 0 10 0;
#X restore 13 429 pd arrays-samples;
#X obj 450 67 bng 25 250 50 0 clock-switch empty empty 17 7 0 10 #333333 #e5e5e5 #111111;
#X text 422 7 clock source;
#X obj 408 34 cnv 72 110 25 empty clock-source internal 19 11 0 20 #696969 #111111 0;
#X text 557 7 stop playback;
#X obj 578 42 bng 23 250 50 0 stop-playback empty empty 17 7 0 10 #333333 #e5e5e5 #111111;
#X obj -104 95 tgl 25 0 1-clock_mode_enabled empty empty 17 7 0 10 #333333 #eeeeee #111111 0 1;
#X text -137 67 Clock Track 1;
#X floatatom -125 175 5 0 0 0 - - - 12;
#X obj -211 126 lb;
#X obj -193 229 s 1-num_beats_for_segment;
#X msg -201 175 8;
#N canvas 733 172 450 300 clock-system 0;
#X obj 43 27 playhead;
#X text 382 204 Timing Calculator;
#X obj 99 502 s ppq;
#X floatatom 99 264 5 0 0 0 - - - 12;
#X text 150 272 bpm;
#X obj 81 348 clock;
#X obj 99 156 knob 50 30 320 0 120 empty empty #333333 #696969 #EEEEEE 1 0 0 0 0 259 0 0 30 empty empty 1 18 6 -15 0 1 0 0;
#X obj 99 224 int;
#X obj 329 80 unpack f f f;
#X obj 329 109 expr floor($f1 * 16);
#X obj 10 213 change;
#X obj 125 80 loadbang;
#X msg 99 109 110;
#X obj 99 305 * 16;
#X obj 187 402 switch;
#X msg 190 180 1;
#X msg 218 180 2;
#X obj 202 109 count 1 2 -alt;
#X obj 202 141 sel 1 2;
#X obj 202 80 r clock-switch;
#X msg 517 370 \; clock-source label DAW;
#X msg 271 370 \; clock-source label internal, f 30;
#X obj 99 402 count;
#X obj 460 19 loadbang;
#X obj -56 489 s project_bpm;
#X obj -135 264 r global-transport;
#X obj -96 310 tgl 25 0 empty empty empty 17 7 0 10 #e3dfd9 #5a5a5a #5a5a5a 0 1;
#X obj -14 416 change;
#X obj 271 19 change;
#X connect 0 0 10 0;
#X connect 0 5 6 0;
#X connect 0 8 28 0;
#X connect 3 0 13 0;
#X connect 3 0 27 0;
#X connect 5 0 22 0;
#X connect 6 0 7 0;
#X connect 7 0 3 0;
#X connect 8 0 9 0;
#X connect 9 0 14 2;
#X connect 10 0 5 0;
#X connect 11 0 12 0;
#X connect 12 0 6 0;
#X connect 13 0 5 1;
#X connect 14 0 2 0;
#X connect 15 0 14 0;
#X connect 16 0 14 0;
#X connect 17 0 18 0;
#X connect 18 0 15 0;
#X connect 18 0 21 0;
#X connect 18 1 16 0;
#X connect 18 1 20 0;
#X connect 19 0 17 0;
#X connect 22 0 14 1;
#X connect 23 0 17 0;
#X connect 25 0 26 0;
#X connect 26 0 5 0;
#X connect 27 0 24 0;
#X connect 28 0 8 0;
#X restore 13 359 pd clock-system;
#X obj 349 260 knob 50 0 1 0 0 audio-4-out empty #333333 #696969 #EEEEEE 1 0 0 0 1 270 0 0 0 empty empty 0 12 6 -15 0 1 0 0;
#X obj 453 260 knob 50 0 1 0 0 audio-5-out empty #333333 #696969 #EEEEEE 1 0 0 0 1 270 0 0 0 empty empty 0 12 6 -15 0 1 0 0;
#X obj 565 260 knob 50 0 1 0 0 audio-6-out empty #333333 #696969 #EEEEEE 1 0 0 0 1 270 0 0 0 empty empty 0 12 6 -15 0 1 0 0;
#X obj 647 260 knob 50 0 1 0 0 audio-7-out empty #333333 #696969 #EEEEEE 1 0 0 0 1 270 0 0 0 empty empty 0 12 6 -15 0 1 0 0;
#X obj 757 260 knob 50 0 1 0 0 audio-8-out empty #333333 #696969 #EEEEEE 1 0 0 0 1 270 0 0 0 empty empty 0 12 6 -15 0 1 0 0;
#X obj 869 260 knob 50 0 1 0 0 audio-9-out empty #333333 #696969 #EEEEEE 1 0 0 0 1 270 0 0 0 empty empty 0 12 6 -15 0 1 0 0;
#X obj 966 260 knob 50 0 1 0 0 audio-10-out empty #333333 #696969 #EEEEEE 1 0 0 0 1 270 0 0 0 empty empty 0 12 6 -15 0 1 0 0;
#X obj 1076 260 knob 50 0 1 0 0 audio-11-out empty #333333 #696969 #EEEEEE 1 0 0 0 1 270 0 0 0 empty empty 0 12 6 -15 0 1 0 0;
#X obj 1188 260 knob 50 0 1 0 0 audio-12-out empty #333333 #696969 #EEEEEE 1 0 0 0 1 270 0 0 0 empty empty 0 12 6 -15 0 1 0 0;
#X obj 869 383 knob 50 0 1 0 0 audio-13-out empty #333333 #696969 #EEEEEE 1 0 0 0 1 270 0 0 0 empty empty 0 12 6 -15 0 1 0 0;
#X obj 966 383 knob 50 0 1 0 0 audio-14-out empty #333333 #696969 #EEEEEE 1 0 0 0 1 270 0 0 0 empty empty 0 12 6 -15 0 1 0 0;
#X obj 1076 383 knob 50 0 1 0 0 audio-15-out empty #333333 #696969 #EEEEEE 1 0 0 0 1 270 0 0 0 empty empty 0 12 6 -15 0 1 0 0;
#X obj 1188 383 knob 50 0 1 0 0 audio-16-out empty #333333 #696969 #EEEEEE 1 0 0 0 1 270 0 0 0 empty empty 0 12 6 -15 0 1 0 0;
#X text 349 231 audio 4;
#X text 450 231 audio 5;
#X text 561 231 audio 6;
#X text 643 231 audio 7;
#X text 747 233 audio 8;
#X text 868 233 audio 9;
#X text 949 235 audio 10;
#X text 1069 238 audio 11;
#X text 1191 227 audio 12;
#X text 869 354 audio 13;
#X text 960 354 audio 14;
#X text 1076 354 audio 15;
#X text 1177 358 audio 16;
#X obj 47 635 bng 25 250 50 0 1-press_play empty empty 17 7 0 10 #e3dfd9 #5a5a5a #5a5a5a;
#X obj 160 635 bng 25 250 50 0 2-press_play empty empty 17 7 0 10 #e3dfd9 #5a5a5a #5a5a5a;
#X obj 269 635 bng 25 250 50 0 3-press_play empty empty 17 7 0 10 #e3dfd9 #5a5a5a #5a5a5a;
#X obj 387 635 bng 25 250 50 0 4-press_play empty empty 17 7 0 10 #e3dfd9 #5a5a5a #5a5a5a;
#X text 40 606 play 1;
#X text 257 605 paly 3;
#X obj 387 549 bng 25 250 50 0 4-sample-load empty empty 17 7 0 10 #333333 #eeeeee #e4e4e4;
#X obj 453 635 bng 25 250 50 0 5-press_play empty empty 17 7 0 10 #e3dfd9 #5a5a5a #5a5a5a;
#X obj 453 549 bng 25 250 50 0 5-sample-load empty empty 17 7 0 10 #333333 #eeeeee #e4e4e4;
#X obj 519 635 bng 25 250 50 0 6-press_play empty empty 17 7 0 10 #e3dfd9 #5a5a5a #5a5a5a;
#X obj 519 549 bng 25 250 50 0 6-sample-load empty empty 17 7 0 10 #333333 #eeeeee #e4e4e4;
#X obj 585 635 bng 25 250 50 0 7-press_play empty empty 17 7 0 10 #e3dfd9 #5a5a5a #5a5a5a;
#X obj 585 549 bng 25 250 50 0 7-sample-load empty empty 17 7 0 10 #333333 #eeeeee #e4e4e4;
#X text 369 521 sample 4;
#X text 435 521 sample 5;
#X text 503 519 sample 6;
#X text 571 523 sample 7;
#X obj 666 635 bng 25 250 50 0 8-press_play empty empty 17 7 0 10 #e3dfd9 #5a5a5a #5a5a5a;
#X obj 666 549 bng 25 250 50 0 8-sample-load empty empty 17 7 0 10 #333333 #eeeeee #e4e4e4;
#X obj 732 635 bng 25 250 50 0 9-press_play empty empty 17 7 0 10 #e3dfd9 #5a5a5a #5a5a5a;
#X obj 732 549 bng 25 250 50 0 9-sample-load empty empty 17 7 0 10 #333333 #eeeeee #e4e4e4;
#X obj 798 635 bng 25 250 50 0 10-press_play empty empty 17 7 0 10 #e3dfd9 #5a5a5a #5a5a5a;
#X obj 798 549 bng 25 250 50 0 10-sample-load empty empty 17 7 0 10 #333333 #eeeeee #e4e4e4;
#X obj 864 635 bng 25 250 50 0 11-press_play empty empty 17 7 0 10 #e3dfd9 #5a5a5a #5a5a5a;
#X obj 864 549 bng 25 250 50 0 11-sample-load empty empty 17 7 0 10 #333333 #eeeeee #e4e4e4;
#X text 648 521 sample 8;
#X text 714 521 sample 9;
#X text 782 519 sample 10;
#X text 850 523 sample 11;
#X obj 124 817 bng 25 250 50 0 12-press_play empty empty 17 7 0 10 #e3dfd9 #5a5a5a #5a5a5a;
#X obj 124 731 bng 25 250 50 0 12-sample-load empty empty 17 7 0 10 #333333 #eeeeee #e4e4e4;
#X obj 205 817 bng 25 250 50 0 13-press_play empty empty 17 7 0 10 #e3dfd9 #5a5a5a #5a5a5a;
#X obj 205 731 bng 25 250 50 0 13-sample-load empty empty 17 7 0 10 #333333 #eeeeee #e4e4e4;
#X obj 271 817 bng 25 250 50 0 14-press_play empty empty 17 7 0 10 #e3dfd9 #5a5a5a #5a5a5a;
#X obj 271 731 bng 25 250 50 0 14-sample-load empty empty 17 7 0 10 #333333 #eeeeee #e4e4e4;
#X obj 337 817 bng 25 250 50 0 15-press_play empty empty 17 7 0 10 #e3dfd9 #5a5a5a #5a5a5a;
#X obj 337 731 bng 25 250 50 0 15-sample-load empty empty 17 7 0 10 #333333 #eeeeee #e4e4e4;
#X obj 403 817 bng 25 250 50 0 16-press_play empty empty 17 7 0 10 #e3dfd9 #5a5a5a #5a5a5a;
#X obj 403 731 bng 25 250 50 0 16-sample-load empty empty 17 7 0 10 #333333 #eeeeee #e4e4e4;
#X text 110 705 sample 12;
#X text 187 703 sample 13;
#X text 253 703 sample 14;
#X text 321 701 sample 15;
#X text 389 705 sample 16;
#N canvas 733 172 450 300 grid-input-output 1;
#X floatatom -260 1452 5 0 0 0 - - - 12;
#X floatatom -214 1452 5 0 0 0 - - - 12;
#X obj -131 1306 r monome_in;
#X obj -203 1487 s rows;
#X obj -260 1487 s cols;
#X obj -237 1306 s keys;
#X obj -131 1347 monome-object;
#X obj -131 1383 osc.route /monome/grid/key;
#X obj -260 1383 osc.route /sys/size;
#X obj -260 1417 unpack f f;
#X obj 424 1923 s monome_in;
#X obj 505 1845 nbx 4 18 0 15 0 1 empty empty empty 0 -8 0 10 #e4e4e4 #373737 #373737 15 256;
#X obj 569 1845 loadmess 15;
#X obj 455 1721 tgl 25 0 empty empty empty 17 7 0 10 #e4e4e4 #4d4d4d #373737 0 1;
#X msg 428 1696 /monome/grid/led/set \$1 \$2 \$3;
#X msg 505 1727 /monome/grid/led/all \$1;
#X msg 505 1764 /monome/grid/led/row 0 0 255 255;
#X msg 505 1805 /monome/grid/led/col 0 0 255 255;
#X msg 505 1876 /monome/grid/led/intensity \$1;
#X obj 74 1309 mtx.ctl 16 8 20 0 0 0 0 0 0 0 0 0 0 0 0;
#X obj 74 1219 r cols;
#X obj 165 1219 r rows;
#X msg 74 1243 columns \$1;
#X msg 165 1243 rows \$1;
#X obj 248 1243 r keys;
#X obj 428 1309 mtx.ctl 16 8 20 0 0 0 0 0 0 0 0 0 0 0 0;
#X obj 428 1250 r cols;
#X obj 519 1250 r rows;
#X msg 428 1274 columns \$1;
#X msg 519 1274 rows \$1;
#X obj 602 1274 r keys;
#X obj 724 1268 bng 25 250 50 0 empty empty empty 17 7 0 10 #e4e4e4 #4d4d4d #373737;
#X text 717 1234 Clear;
#N canvas 733 172 450 300 (subpatch) 0;
#X msg 1230 22 clear;
#X msg 1230 49 monome/grid/led/all 0;
#X obj 1230 76 s monome_in;
#X obj 1230 -15 inlet;
#X obj 1230 -15 inlet;
#X obj 903 57 outlet;
#X connect 0 0 5 0;
#X connect 1 0 2 0;
#X connect 3 0 0 0;
#X connect 4 0 1 0;
#X restore 762 1274 pd;
#X text 428 1221 LED Output;
#X text 878 1351 LED Level Output;
#X obj 886 1399 nbx 4 18 0 15 0 1 empty empty empty 0 -8 0 10 #e4e4e4 #373737 #373737 15 256;
#X obj 858 1702 s monome_in;
#X obj 886 1459 nbx 4 18 0 15 0 0 empty empty empty 0 -8 0 10 #e4e4e4 #373737 #373737 0 256;
#X msg 964 1505 /monome/grid/led/level/row 0 0 0 0 5 5 10 10 15 15;
#X msg 964 1541 /monome/grid/led/level/col 0 0 0 0 5 5 10 10 15 15;
#X msg 964 1580 /monome/grid/led/level/map 0 0 2 11 3 8 14 8 2 9 12 0 7 0 0 6 3 0 9 14 5 10 11 4 12 13 12 14 11 7 3 9 12 2 10 3 4 3 4 9 1 8 1 7 11 7 7 6 15 1 7 10 10 5 7 14 9 1 1 15 5 12 6 9 11 11, f 43;
#X text 964 1673 All Off;
#X msg 964 1702 /monome/grid/led/level/all 0;
#X msg 947 1459 /monome/grid/led/level/all \$1;
#X msg 947 1399 /monome/grid/led/level/set 0 0 \$1;
#X obj 323 1559 int;
#X obj 361 1588 change;
#X obj 305 1662 pack f f 15;
#X obj 297 1588 change;
#X msg 331 1614 1;
#X obj 326 1487 hsl 128 17 0 1 0 0 empty 1-playbar_data_i empty -2 -8 0 10 #333333 #eeeeee #111111 0 1;
#X obj 323 1526 scale 0 1 0 16;
#X obj 284 1621 t f f;
#X msg 428 1654 /monome/grid/led/row 0 1 0 0;
#X obj 701 1543 int;
#X obj 739 1572 change;
#X obj 683 1646 pack f f 15;
#X obj 675 1572 change;
#X obj 704 1471 hsl 128 17 0 1 0 0 empty 2-playhead empty -2 -8 0 10 #333333 #eeeeee #111111 0 1;
#X obj 701 1510 scale 0 1 0 16;
#X obj 662 1605 t f f;
#X msg 709 1598 2;
#X msg 751 1734 /monome/grid/led/set \$1 \$2 \$3;
#X msg 670 1682 /monome/grid/led/row 0 2 0 0;
#X obj 1125 1786 r transport;
#X obj 218 1755 f;
#X obj 173 1755 f;
#X obj 33 1682 route 1 2 3 4 5 6 7;
#X obj 282 1748 t b b;
#X obj 173 1813 pack f f;
#X obj 144 1890 s 1-slice_key;
#X obj 48 1537 list;
#X obj 33 1598 list split 1;
#X obj 33 1638 list split 1;
#X obj 33 1761 list;
#X obj 33 1714 bang;
#X obj 21 1872 f;
#X obj 32 1798 list split 1;
#X obj 91 1847 list split 1;
#X obj 167 1923 print;
#X obj 74 1879 t b f;
#X obj 40 1912 pack f f;
#X obj -115 1573 unpack f f f;
#X obj -127 1532 t b a;
#X obj -137 1654 f;
#X obj -94 1654 f;
#X obj -52 1654 f;
#X obj -120 1692 pack f f f;
#X obj -103 1608 t b b f;
#X obj -120 1768 route 1 2 3 4 5 6;
#X obj -235 1855 s row_1;
#X obj -173 1855 s row_2;
#X obj -112 1855 s row_3;
#X obj -50 1855 s row_4;
#X obj -235 1890 s row_5;
#X obj -173 1890 s row_6;
#X obj -112 1890 s row_7;
#X obj -51 1890 s row_8;
#X obj -119 1728 route 1;
#X connect 0 0 4 0;
#X connect 1 0 3 0;
#X connect 2 0 6 0;
#X connect 6 0 7 0;
#X connect 6 0 8 0;
#X connect 7 0 5 0;
#X connect 7 0 84 0;
#X connect 8 0 9 0;
#X connect 9 0 0 0;
#X connect 9 1 1 0;
#X connect 11 0 18 0;
#X connect 12 0 11 0;
#X connect 13 0 15 0;
#X connect 14 0 10 0;
#X connect 15 0 10 0;
#X connect 16 0 10 0;
#X connect 17 0 10 0;
#X connect 18 0 10 0;
#X connect 19 0 25 0;
#X connect 20 0 22 0;
#X connect 21 0 23 0;
#X connect 22 0 19 0;
#X connect 23 0 19 0;
#X connect 24 0 19 0;
#X connect 26 0 28 0;
#X connect 27 0 29 0;
#X connect 28 0 25 0;
#X connect 29 0 25 0;
#X connect 30 0 25 0;
#X connect 31 0 33 0;
#X connect 31 0 33 1;
#X connect 33 0 25 0;
#X connect 36 0 45 0;
#X connect 38 0 44 0;
#X connect 39 0 37 0;
#X connect 40 0 37 0;
#X connect 41 0 37 0;
#X connect 43 0 37 0;
#X connect 44 0 37 0;
#X connect 45 0 37 0;
#X connect 46 0 49 0;
#X connect 46 0 47 0;
#X connect 47 0 50 0;
#X connect 48 0 14 0;
#X connect 49 0 53 0;
#X connect 50 0 48 1;
#X connect 51 0 52 0;
#X connect 52 0 46 0;
#X connect 53 0 48 0;
#X connect 53 1 54 0;
#X connect 54 0 10 0;
#X connect 55 0 58 0;
#X connect 55 0 56 0;
#X connect 56 0 62 0;
#X connect 57 0 63 0;
#X connect 58 0 61 0;
#X connect 59 0 60 0;
#X connect 60 0 55 0;
#X connect 61 0 57 0;
#X connect 61 1 64 0;
#X connect 62 0 57 1;
#X connect 63 0 10 0;
#X connect 64 0 10 0;
#X connect 65 0 43 0;
#X connect 66 0 70 0;
#X connect 67 0 70 1;
#X connect 68 0 76 0;
#X connect 69 0 67 0;
#X connect 69 1 66 0;
#X connect 70 0 71 0;
#X connect 72 0 73 0;
#X connect 73 1 74 0;
#X connect 74 0 68 0;
#X connect 75 0 78 0;
#X connect 76 0 75 0;
#X connect 77 0 82 0;
#X connect 78 0 77 1;
#X connect 78 1 79 0;
#X connect 79 1 81 0;
#X connect 81 0 77 0;
#X connect 81 1 82 1;
#X connect 82 0 80 0;
#X connect 83 0 89 0;
#X connect 83 1 85 1;
#X connect 83 2 87 1;
#X connect 84 1 83 0;
#X connect 85 0 88 1;
#X connect 86 0 88 2;
#X connect 87 0 88 0;
#X connect 88 0 99 0;
#X connect 89 0 87 0;
#X connect 89 1 85 0;
#X connect 89 2 86 0;
#X connect 90 0 91 0;
#X connect 90 1 92 0;
#X connect 90 2 93 0;
#X connect 90 3 94 0;
#X connect 90 4 95 0;
#X connect 90 5 96 0;
#X connect 99 0 90 0;
#X restore 13 458 pd grid-input-output;
#X connect 33 0 35 0;
#X connect 34 0 36 0;
#X connect 36 0 33 0;
