#N struct 1034-cell float x float y float cellsize float color;
#N struct 1036-cell float x float y float cellsize float color;
#N canvas 827 239 527 327 12;
#N canvas 733 172 450 300 start-end-sliders 0;
#X obj 1287 426 hsl 338 17 0 631881 0 0 empty empty empty -2 -8 0 10 #333333 #eeeeee #e4e4e4 0 1;
#X msg 1278 396 range 0 \$1;
#X obj 1278 456 s start;
#X obj 1284 564 hsl 338 17 0 631881 0 0 empty empty empty -2 -8 0 10 #333333 #eeeeee #e4e4e4 0 1;
#X msg 1278 534 range 0 \$1;
#X obj 1278 365 r length;
#X obj 1278 503 r length;
#X obj 1278 594 s end;
#X text 1424 398 Start Point;
#X text 1424 532 end Point;
#X connect 0 0 2 0;
#X connect 1 0 0 0;
#X connect 3 0 7 0;
#X connect 4 0 3 0;
#X connect 5 0 1 0;
#X connect 6 0 4 0;
#X restore 13 479 pd start-end-sliders;
#X obj 36 34 bng 25 250 50 0 1-sample-load empty empty 17 7 0 10 #333333 #eeeeee #e4e4e4;
#X obj 24 168 knob 50 0 1 0 0 track-1-in empty #333333 #696969 #EEEEEE 1 0 0 0 1 270 0 0 0 empty empty 0 12 6 -15 0 1 0 0;
#X text 3 7 Sample 1 Load;
#X text 17 135 Audio 1 In;
#X obj 24 260 knob 50 0 1 0 0 audio-1-out empty #333333 #696969 #EEEEEE 1 0 0 0 1 270 0 0 0 empty empty 0 12 6 -15 0 1 0 0;
#X text 13 228 audio 1 out;
#X obj 148 34 bng 25 250 50 0 2-sample-load empty empty 17 7 0 10 #333333 #eeeeee #e4e4e4;
#X obj 134 168 knob 50 0 1 0 0 track-2-in empty #333333 #696969 #EEEEEE 1 0 0 0 1 270 0 0 0 empty empty 0 12 6 -15 0 1 0 0;
#X obj 134 260 knob 50 0 1 0 0 audio-2-out empty #333333 #696969 #EEEEEE 1 0 0 0 1 270 0 0 0 empty empty 0 12 6 -15 0 1 0 0;
#X text 113 7 Sample 2 Load;
#X text 127 135 Audio 2 In;
#X text 123 228 audio 2 out;
#X obj 260 34 bng 25 250 50 0 3-sample-load empty empty 17 7 0 10 #333333 #eeeeee #e4e4e4;
#X obj 246 168 knob 50 0 1 0 0 track-3-in empty #333333 #696969 #EEEEEE 1 0 0 0 1 270 0 0 0 empty empty 0 12 6 -15 0 1 0 0;
#X obj 246 260 knob 50 0 1 0 0 audio-3-out empty #333333 #696969 #EEEEEE 1 0 0 0 1 270 0 0 0 empty empty 0 12 6 -15 0 1 0 0;
#X text 225 7 Sample 3 Load;
#X text 239 135 Audio 3 In;
#X text 235 228 audio 3 out;
#X text 3 73 Quantize Track 1;
#X text 115 73 Quantize Track 2;
#X text 227 73 Quantize Track 3;
#X obj 36 101 tgl 25 0 1-quantizer empty empty 17 7 0 10 #333333 #eeeeee #111111 0 1;
#X obj 148 101 tgl 25 0 empty empty empty 17 7 0 10 #333333 #eeeeee #111111 0 1;
#X obj 260 101 tgl 25 0 empty empty empty 17 7 0 10 #333333 #eeeeee #111111 0 1;
#N canvas 733 172 450 300 clock-system 0;
#X obj 43 27 playhead;
#X text 382 204 Timing Calculator;
#X obj -87 105 s daw-transport;
#X obj 99 502 s ppq;
#X floatatom 99 264 5 0 0 0 - - - 12;
#X text 150 272 bpm;
#X obj 81 348 clock;
#X obj 61 305 tgl 25 0 empty empty empty 17 7 0 10 #333333 #eeeeee #111111 0 1;
#X obj 99 154 knob 50 30 320 0 120 empty empty #333333 #696969 #EEEEEE 1 0 0 0 0 259 0 0 30 empty empty 1 18 6 -15 0 1 0 0;
#X obj 99 224 int;
#X obj 329 80 unpack f f f;
#X obj 329 154 change;
#X obj 329 115 expr floor($f1 * 16);
#X obj 10 213 change;
#X obj 125 80 loadbang;
#X msg 118 125 110;
#X obj 99 305 * 16;
#X obj 187 402 switch;
#X msg 190 180 1;
#X msg 218 180 2;
#X obj 202 109 count 1 2 -alt;
#X obj 202 141 sel 1 2;
#X obj 202 80 r clock-switch;
#X msg 517 370 \; clock-source label DAW;
#X msg 271 370 \; clock-source label internal, f 30;
#X obj -29 443 print clock;
#X obj 99 402 count;
#X connect 0 0 2 0;
#X connect 0 0 13 0;
#X connect 0 5 8 0;
#X connect 0 8 10 0;
#X connect 4 0 16 0;
#X connect 6 0 25 0;
#X connect 6 0 26 0;
#X connect 7 0 6 0;
#X connect 8 0 9 0;
#X connect 9 0 4 0;
#X connect 10 0 12 0;
#X connect 11 0 17 2;
#X connect 12 0 11 0;
#X connect 13 0 7 0;
#X connect 14 0 18 0;
#X connect 14 0 15 0;
#X connect 15 0 8 0;
#X connect 16 0 6 1;
#X connect 17 0 3 0;
#X connect 18 0 17 0;
#X connect 19 0 17 0;
#X connect 20 0 21 0;
#X connect 21 0 18 0;
#X connect 21 0 24 0;
#X connect 21 1 19 0;
#X connect 21 1 23 0;
#X connect 22 0 20 0;
#X connect 26 0 17 1;
#X restore 13 393 pd clock-system;
#N canvas 733 172 450 300 mixer 1;
#X obj -77 630 *~;
#X obj -12 630 *~;
#X obj 148 645 knob 50 0 1 0 0 empty empty #333333 #696969 #EEEEEE 1 0 0 0 1 270 0 0 0 empty empty 0 0 0 0 0 0 0 0;
#X obj 383 97 pdlink~ 1-track-L;
#X obj 455 146 meter2~;
#X obj 503 97 pdlink~ 1-track-R;
#X obj -59 862 dac~;
#X obj 568 282 *~;
#X obj 613 282 *~;
#X text 543 131 Track 1 Audio in;
#X text 148 560 track 1 volume;
#X obj 568 166 r track-1-in;
#X obj 148 612 r audio-1-out;
#X obj 568 206 knob 50 0 1 0 0 empty empty #333333 #696969 #EEEEEE 1 0 0 0 1 270 0 0 0 empty empty 0 12 6 -15 0 1 0 0;
#X obj 740 146 meter2~;
#X obj 853 282 *~;
#X obj 898 282 *~;
#X text 828 131 Track 1 Audio in;
#X obj 853 206 knob 50 0 1 0 0 empty empty #333333 #696969 #EEEEEE 1 0 0 0 1 270 0 0 0 empty empty 0 12 6 -15 0 1 0 0;
#X obj 668 97 pdlink~ 2-track-L;
#X obj 788 97 pdlink~ 2-track-R;
#X obj 1025 180 meter2~;
#X obj 1138 316 *~;
#X obj 1183 316 *~;
#X text 1113 165 Track 1 Audio in;
#X obj 1138 240 knob 50 0 1 0 0 empty empty #333333 #696969 #EEEEEE 1 0 0 0 1 270 0 0 0 empty empty 0 12 6 -15 0 1 0 0;
#X obj 953 131 pdlink~ 3-track-L;
#X obj 1073 131 pdlink~ 3-track-R;
#X obj 1138 200 r track-3-in;
#X obj 853 166 r track-2-in;
#X obj -59 679 meter2~;
#X obj 297 630 *~;
#X obj 362 630 *~;
#X obj 522 645 knob 50 0 1 0 0 empty empty #333333 #696969 #EEEEEE 1 0 0 0 1 270 0 0 0 empty empty 0 0 0 0 0 0 0 0;
#X text 522 560 track 1 volume;
#X obj 315 679 meter2~;
#X obj 522 612 r audio-2-out;
#X obj 669 630 *~;
#X obj 734 630 *~;
#X obj 894 645 knob 50 0 1 0 0 empty empty #333333 #696969 #EEEEEE 1 0 0 0 1 270 0 0 0 empty empty 0 0 0 0 0 0 0 0;
#X text 894 560 track 1 volume;
#X obj 687 679 meter2~;
#X obj 894 612 r audio-3-out;
#X obj -12 549 r~ playback-voiceR-1;
#X obj -168 549 r~ playback-voiceL-1;
#X obj 268 540 r~ playback-voiceL-2;
#X obj 372 499 r~ playback-voiceR-2;
#X obj 734 532 r~ playback-voiceR-3;
#X obj 634 505 r~ playback-voiceL-3;
#X connect 0 0 30 0;
#X connect 1 0 30 1;
#X connect 2 0 1 1 48......................77+++O.....O++++a6+++Oa++++19+++y1+++Ov++++;
#X connect 2 0 0 1 48......................37+++O.....N++++a6++++J++++19+++ux+++Ov++++;
#X connect 3 0 4 0;
#X connect 4 0 7 0;
#X connect 4 1 8 0;
#X connect 5 0 4 1;
#X connect 11 0 13 0;
#X connect 12 0 2 0;
#X connect 13 0 7 1;
#X connect 13 0 8 1;
#X connect 14 0 15 0;
#X connect 14 1 16 0;
#X connect 18 0 15 1;
#X connect 18 0 16 1;
#X connect 19 0 14 0;
#X connect 20 0 14 1;
#X connect 21 0 22 0;
#X connect 21 1 23 0;
#X connect 25 0 22 1;
#X connect 25 0 23 1;
#X connect 26 0 21 0;
#X connect 27 0 21 1;
#X connect 28 0 25 0;
#X connect 29 0 18 0;
#X connect 30 0 6 0;
#X connect 30 1 6 1;
#X connect 31 0 35 0;
#X connect 32 0 35 1;
#X connect 33 0 32 1 48......................77+++O.....O++++a6+++Oa++++19+++y1+++Ov++++;
#X connect 33 0 31 1 48......................37+++O.....N++++a6++++J++++19+++ux+++Ov++++;
#X connect 35 0 6 0;
#X connect 35 1 6 1;
#X connect 36 0 33 0;
#X connect 37 0 41 0;
#X connect 38 0 41 1;
#X connect 39 0 38 1 48......................77+++O.....O++++a6+++Oa++++19+++y1+++Ov++++;
#X connect 39 0 37 1 48......................37+++O.....N++++a6++++J++++19+++ux+++Ov++++;
#X connect 41 0 6 0;
#X connect 41 1 6 1;
#X connect 42 0 39 0;
#X connect 43 0 1 0;
#X connect 44 0 0 0;
#X connect 45 0 31 0;
#X connect 46 0 32 0;
#X connect 47 0 38 0;
#X connect 48 0 37 0;
#X restore 13 423 pd mixer;
#N canvas 733 172 450 300 grid-input-output 0;
#X floatatom -260 1452 5 0 0 0 - - - 12;
#X floatatom -214 1452 5 0 0 0 - - - 12;
#X obj -131 1306 r monome_in;
#X obj -203 1487 s rows;
#X obj -260 1487 s cols;
#X obj -237 1306 s keys;
#X obj -131 1347 monome-object;
#X obj -131 1383 osc.route /monome/grid/key;
#X obj -260 1383 osc.route /sys/size;
#X obj -260 1417 unpack f f;
#X obj 424 1923 s monome_in;
#X obj 505 1845 nbx 4 18 0 15 0 1 empty empty empty 0 -8 0 10 #e4e4e4 #373737 #373737 15 256;
#X obj 569 1845 loadmess 15;
#X obj 455 1721 tgl 25 0 empty empty empty 17 7 0 10 #e4e4e4 #4d4d4d #373737 0 1;
#X msg 428 1696 /monome/grid/led/set \$1 \$2 \$3;
#X msg 505 1727 /monome/grid/led/all \$1;
#X msg 505 1764 /monome/grid/led/row 0 0 255 255;
#X msg 505 1805 /monome/grid/led/col 0 0 255 255;
#X msg 505 1876 /monome/grid/led/intensity \$1;
#X obj 74 1309 mtx.ctl 16 8 20 0 0 0 0 0 0 0 0 0 0 0 0;
#X obj 74 1219 r cols;
#X obj 165 1219 r rows;
#X msg 74 1243 columns \$1;
#X msg 165 1243 rows \$1;
#X obj 248 1243 r keys;
#X obj 428 1309 mtx.ctl 16 8 20 0 0 0 0 0 0 0 0 0 0 0 0;
#X obj 428 1250 r cols;
#X obj 519 1250 r rows;
#X msg 428 1274 columns \$1;
#X msg 519 1274 rows \$1;
#X obj 602 1274 r keys;
#X obj 724 1268 bng 25 250 50 0 empty empty empty 17 7 0 10 #e4e4e4 #4d4d4d #373737;
#X text 717 1234 Clear;
#N canvas 733 172 450 300 (subpatch) 0;
#X msg 1230 22 clear;
#X msg 1230 49 monome/grid/led/all 0;
#X obj 1230 76 s monome_in;
#X obj 1230 -15 inlet;
#X obj 1230 -15 inlet;
#X obj 903 57 outlet;
#X connect 0 0 5 0;
#X connect 1 0 2 0;
#X connect 3 0 0 0;
#X connect 4 0 1 0;
#X restore 762 1274 pd;
#X text 428 1221 LED Output;
#X text 878 1351 LED Level Output;
#X obj 886 1399 nbx 4 18 0 15 0 1 empty empty empty 0 -8 0 10 #e4e4e4 #373737 #373737 15 256;
#X obj 858 1702 s monome_in;
#X obj 886 1459 nbx 4 18 0 15 0 0 empty empty empty 0 -8 0 10 #e4e4e4 #373737 #373737 0 256;
#X msg 964 1505 /monome/grid/led/level/row 0 0 0 0 5 5 10 10 15 15;
#X msg 964 1541 /monome/grid/led/level/col 0 0 0 0 5 5 10 10 15 15;
#X msg 964 1580 /monome/grid/led/level/map 0 0 2 11 3 8 14 8 2 9 12 0 7 0 0 6 3 0 9 14 5 10 11 4 12 13 12 14 11 7 3 9 12 2 10 3 4 3 4 9 1 8 1 7 11 7 7 6 15 1 7 10 10 5 7 14 9 1 1 15 5 12 6 9 11 11, f 43;
#X text 964 1673 All Off;
#X msg 964 1702 /monome/grid/led/level/all 0;
#X msg 947 1459 /monome/grid/led/level/all \$1;
#X msg 947 1399 /monome/grid/led/level/set 0 0 \$1;
#X obj 196 1510 unpack f f f;
#X obj 211 1647 s slice;
#X obj 211 1557 spigot;
#X obj -125 1643 monome_grid_handler;
#X obj 323 1559 int;
#X obj 361 1588 change;
#X obj 305 1662 pack f f 15;
#X obj 297 1588 change;
#X msg 331 1614 1;
#X obj 326 1487 hsl 128 17 0 1 0 0 empty 1-playhead empty -2 -8 0 10 #333333 #eeeeee #111111 0 1;
#X obj 323 1526 scale 0 1 0 16;
#X obj 284 1621 t f f;
#X msg 428 1654 /monome/grid/led/row 0 1 0 0;
#X obj 701 1543 int;
#X obj 739 1572 change;
#X obj 683 1646 pack f f 15;
#X obj 675 1572 change;
#X obj 704 1471 hsl 128 17 0 1 0 0 empty 2-playhead empty -2 -8 0 10 #333333 #eeeeee #111111 0 1;
#X obj 701 1510 scale 0 1 0 16;
#X obj 662 1605 t f f;
#X msg 709 1598 2;
#X msg 751 1734 /monome/grid/led/set \$1 \$2 \$3;
#X msg 670 1682 /monome/grid/led/row 0 2 0 0;
#X obj 1125 1786 r transport;
#X connect 0 0 4 0;
#X connect 1 0 3 0;
#X connect 2 0 6 0;
#X connect 6 0 7 0;
#X connect 6 0 8 0;
#X connect 7 0 5 0;
#X connect 7 0 46 0;
#X connect 7 0 49 0;
#X connect 8 0 9 0;
#X connect 9 0 0 0;
#X connect 9 1 1 0;
#X connect 11 0 18 0;
#X connect 12 0 11 0;
#X connect 13 0 15 0;
#X connect 14 0 10 0;
#X connect 15 0 10 0;
#X connect 16 0 10 0;
#X connect 17 0 10 0;
#X connect 18 0 10 0;
#X connect 19 0 25 0;
#X connect 20 0 22 0;
#X connect 21 0 23 0;
#X connect 22 0 19 0;
#X connect 23 0 19 0;
#X connect 24 0 19 0;
#X connect 26 0 28 0;
#X connect 27 0 29 0;
#X connect 28 0 25 0;
#X connect 29 0 25 0;
#X connect 30 0 25 0;
#X connect 31 0 33 0;
#X connect 31 0 33 1;
#X connect 33 0 25 0;
#X connect 36 0 45 0;
#X connect 38 0 44 0;
#X connect 39 0 37 0;
#X connect 40 0 37 0;
#X connect 41 0 37 0;
#X connect 43 0 37 0;
#X connect 44 0 37 0;
#X connect 45 0 37 0;
#X connect 46 0 48 0;
#X connect 46 2 48 1;
#X connect 48 0 47 0;
#X connect 50 0 53 0;
#X connect 50 0 51 0;
#X connect 51 0 54 0;
#X connect 52 0 14 0;
#X connect 53 0 57 0;
#X connect 54 0 52 1;
#X connect 55 0 56 0;
#X connect 56 0 50 0;
#X connect 57 0 52 0;
#X connect 57 1 58 0;
#X connect 58 0 10 0;
#X connect 59 0 62 0;
#X connect 59 0 60 0;
#X connect 60 0 66 0;
#X connect 61 0 67 0;
#X connect 62 0 65 0;
#X connect 63 0 64 0;
#X connect 64 0 59 0;
#X connect 65 0 61 0;
#X connect 65 1 68 0;
#X connect 66 0 61 1;
#X connect 67 0 10 0;
#X connect 68 0 10 0;
#X connect 69 0 43 0;
#X restore 13 452 pd grid-input-output;
#N canvas 0 22 450 300 arrays-samples 1;
#X obj 123 141 sample-data 1;
#X obj 123 179 sample-data 2;
#X obj 400 141 sample-playback 1;
#X msg 403 108 1;
#X obj 400 36 loadbang;
#X obj 565 141 sample-playback 2;
#X msg 565 101 2;
#X obj 721 141 sample-playback 3;
#X msg 714 93 3;
#X obj 873 148 sample-playback 4;
#X msg 873 108 4;
#X obj 405 234 sample-playback 5;
#X msg 422 199 5;
#X obj 553 234 sample-playback 6;
#X msg 570 199 6;
#X obj 123 215 sample-data 3;
#X obj 123 254 sample-data 4;
#X obj 123 285 sample-data 5;
#X obj 123 316 sample-data 6;
#X connect 3 0 2 0;
#X connect 4 0 3 0;
#X connect 4 0 6 0;
#X connect 4 0 8 0;
#X connect 4 0 10 0;
#X connect 4 0 12 0;
#X connect 4 0 14 0;
#X connect 6 0 5 0;
#X connect 8 0 7 0;
#X connect 10 0 9 0;
#X connect 12 0 11 0;
#X connect 14 0 13 0;
#X restore 13 507 pd arrays-samples;
#X obj 395 67 bng 25 250 50 0 clock-switch empty empty 17 7 0 10 #333333 #e5e5e5 #111111;
#X text 367 7 clock source;
#X obj 353 34 cnv 72 110 25 empty clock-source internal 19 11 0 20 #696969 #111111 0;
#X text 502 7 stop playback;
#X obj 523 42 bng 23 250 50 0 stop-playback empty empty 17 7 0 10 #333333 #e5e5e5 #111111;
