#N canvas 827 239 527 327 12;
#X obj 36 34 bng 25 250 50 0 1-sample-load empty empty 17 7 0 10 #333333 #eeeeee #e4e4e4;
#X obj 24 168 knob 50 0 1 0 0 1-live-buffer-in empty #333333 #696969 #EEEEEE 1 0 0 0 1 270 0 0 0 empty empty 0 12 6 -15 0 1 0 0;
#X text 3 7 Sample 1 Load;
#X text 17 135 Audio 1 In;
#X obj 24 260 knob 50 0 1 0 0 audio-1-out empty #333333 #696969 #EEEEEE 1 0 0 0 1 270 0 0 0 empty empty 0 12 6 -15 0 1 0 0;
#X text 13 228 audio 1 out;
#X obj 148 34 bng 25 250 50 0 2-sample-load empty empty 17 7 0 10 #333333 #eeeeee #e4e4e4;
#X obj 134 168 knob 50 0 1 0 0 track-2-in empty #333333 #696969 #EEEEEE 1 0 0 0 1 270 0 0 0 empty empty 0 12 6 -15 0 1 0 0;
#X obj 134 260 knob 50 0 1 0 0 audio-2-out empty #333333 #696969 #EEEEEE 1 0 0 0 1 270 0 0 0 empty empty 0 12 6 -15 0 1 0 0;
#X text 113 7 Sample 2 Load;
#X text 127 135 Audio 2 In;
#X text 123 228 audio 2 out;
#X obj 260 34 bng 25 250 50 0 3-sample-load empty empty 17 7 0 10 #333333 #eeeeee #e4e4e4;
#X obj 246 168 knob 50 0 1 0 0 track-3-in empty #333333 #696969 #EEEEEE 1 0 0 0 1 270 0 0 0 empty empty 0 12 6 -15 0 1 0 0;
#X obj 246 260 knob 50 0 1 0 0 audio-3-out empty #333333 #696969 #EEEEEE 1 0 0 0 1 270 0 0 0 empty empty 0 12 6 -15 0 1 0 0;
#X text 225 7 Sample 3 Load;
#X text 239 135 Audio 3 In;
#X text 235 228 audio 3 out;
#X text 3 73 Quantize Track 1;
#X text 115 73 Quantize Track 2;
#X text 227 73 Quantize Track 3;
#X obj 36 101 tgl 25 0 1-quantizer empty empty 17 7 0 10 #333333 #eeeeee #111111 0 1;
#X obj 148 101 tgl 25 0 empty empty empty 17 7 0 10 #333333 #eeeeee #111111 0 1;
#X obj 260 101 tgl 25 0 empty empty empty 17 7 0 10 #333333 #eeeeee #111111 0 1;
#N canvas 733 172 450 300 mixer 0;
#X obj -77 630 *~;
#X obj -12 630 *~;
#X obj 148 645 knob 50 0 1 0 0 empty empty #333333 #696969 #EEEEEE 1 0 0 0 1 270 0 0 0 empty empty 0 0 0 0 0 0 0 0;
#X obj -19 1051 dac~;
#X text 148 560 track 1 volume;
#X obj 148 612 r audio-1-out;
#X obj 740 146 meter2~;
#X obj 853 282 *~;
#X obj 898 282 *~;
#X text 828 131 Track 1 Audio in;
#X obj 853 206 knob 50 0 1 0 0 empty empty #333333 #696969 #EEEEEE 1 0 0 0 1 270 0 0 0 empty empty 0 12 6 -15 0 1 0 0;
#X obj 1025 180 meter2~;
#X obj 1138 316 *~;
#X obj 1183 316 *~;
#X text 1113 165 Track 1 Audio in;
#X obj 1138 240 knob 50 0 1 0 0 empty empty #333333 #696969 #EEEEEE 1 0 0 0 1 270 0 0 0 empty empty 0 12 6 -15 0 1 0 0;
#X obj 1138 200 r track-3-in;
#X obj 853 166 r track-2-in;
#X obj -59 679 meter2~;
#X obj 122 797 knob 50 0 1 0 0.75 empty empty #E3DFD9 #968E82 #5A5A5A 1 0 0 0 1 270 0 0 0 empty empty 0 12 6 -15 0 1 0 0;
#X obj -49 1005 *~;
#X obj 37 1005 *~;
#X text 112 757 Master Volume;
#X obj -99 551 *~;
#X obj -10 551 *~;
#X obj -111 389 line~;
#X msg 73 360 1 5;
#X msg -111 323 0 0;
#X obj 73 285 r 1-mixer_env_open;
#X obj -367 323 r~ 1-voice_audio;
#X obj -367 376 snake~ out;
#X obj -111 242 r 1-mixer_env_close;
#X connect 0 0 18 0;
#X connect 1 0 18 1;
#X connect 2 0 1 1 48......................77+++O.....O++++a6+++Oa++++19+++y1+++Ov++++;
#X connect 2 0 0 1 48......................37+++O.....N++++a6++++J++++19+++ux+++Ov++++;
#X connect 5 0 2 0;
#X connect 6 0 7 0;
#X connect 6 1 8 0;
#X connect 10 0 7 1;
#X connect 10 0 8 1;
#X connect 11 0 12 0;
#X connect 11 1 13 0;
#X connect 15 0 12 1;
#X connect 15 0 13 1;
#X connect 16 0 15 0;
#X connect 17 0 10 0;
#X connect 18 0 20 0;
#X connect 18 1 21 0;
#X connect 19 0 20 1;
#X connect 19 0 21 1;
#X connect 20 0 3 0;
#X connect 21 0 3 1;
#X connect 23 0 0 0;
#X connect 24 0 1 0;
#X connect 25 0 24 1;
#X connect 25 0 23 1;
#X connect 26 0 25 0;
#X connect 27 0 25 0;
#X connect 28 0 26 0;
#X connect 29 0 30 0;
#X connect 30 0 23 0;
#X connect 30 1 24 0;
#X connect 31 0 27 0;
#X restore 13 396 pd mixer;
#N canvas 0 22 450 300 arrays-samples 1;
#X obj 37 107 sample-data 1;
#X obj 774 154 until 16;
#X obj 774 185 f;
#X obj 840 164 + 1;
#X obj 840 196 mod 16;
#X obj 840 124 sel 0;
#X obj 776 90 lb;
#X obj 774 124 delay 1;
#X obj 774 380 s;
#X msg 785 308 \$1-loop_buffer_default_selection;
#X obj 774 273 t f f;
#X obj 785 343 symbol;
#X text 766 47 Set default loop buffer;
#X obj 774 232 + 1;
#X obj 189 107 live_buffer 1;
#X obj 345 107 sample_player_rebuild 1;
#X connect 1 0 2 0;
#X connect 2 0 3 0;
#X connect 2 0 13 0;
#X connect 3 0 4 0;
#X connect 4 0 2 1;
#X connect 4 0 5 0;
#X connect 5 0 1 1;
#X connect 6 0 7 0;
#X connect 7 0 1 0;
#X connect 9 0 11 0;
#X connect 10 0 8 0;
#X connect 10 1 9 0;
#X connect 11 0 8 1;
#X connect 13 0 10 0;
#X restore 13 429 pd arrays-samples;
#X obj 395 67 bng 25 250 50 0 clock-switch empty empty 17 7 0 10 #333333 #e5e5e5 #111111;
#X text 367 7 clock source;
#X obj 353 34 cnv 72 110 25 empty clock-source internal 19 11 0 20 #696969 #111111 0;
#X text 502 7 stop playback;
#X obj 523 42 bng 23 250 50 0 stop-playback empty empty 17 7 0 10 #333333 #e5e5e5 #111111;
#X obj -104 95 tgl 25 0 1-clock_mode_enabled empty empty 17 7 0 10 #333333 #eeeeee #111111 0 1;
#X text -137 67 Clock Track 1;
#X floatatom -125 175 5 0 0 0 - - - 12;
#X obj -211 126 lb;
#X obj -193 229 s 1-num_beats_for_segment;
#X msg -201 175 8;
#N canvas 733 172 450 300 clock-system 0;
#X obj 43 27 playhead;
#X text 382 204 Timing Calculator;
#X obj 99 502 s ppq;
#X floatatom 99 264 5 0 0 0 - - - 12;
#X text 150 272 bpm;
#X obj 81 348 clock;
#X obj 99 156 knob 50 30 320 0 120 empty empty #333333 #696969 #EEEEEE 1 0 0 0 0 259 0 0 30 empty empty 1 18 6 -15 0 1 0 0;
#X obj 99 224 int;
#X obj 329 80 unpack f f f;
#X obj 329 109 expr floor($f1 * 16);
#X obj 10 213 change;
#X obj 125 80 loadbang;
#X msg 99 109 110;
#X obj 99 305 * 16;
#X obj 187 402 switch;
#X msg 190 180 1;
#X msg 218 180 2;
#X obj 202 109 count 1 2 -alt;
#X obj 202 141 sel 1 2;
#X obj 202 80 r clock-switch;
#X msg 517 370 \; clock-source label DAW;
#X msg 271 370 \; clock-source label internal, f 30;
#X obj 99 402 count;
#X obj 460 19 loadbang;
#X obj -56 489 s project_bpm;
#X obj -135 264 r global-transport;
#X obj -96 310 tgl 25 0 empty empty empty 17 7 0 10 #e3dfd9 #5a5a5a #5a5a5a 0 1;
#X obj -14 416 change;
#X obj 271 19 change;
#X connect 0 0 10 0;
#X connect 0 5 6 0;
#X connect 0 8 28 0;
#X connect 3 0 13 0;
#X connect 3 0 27 0;
#X connect 5 0 22 0;
#X connect 6 0 7 0;
#X connect 7 0 3 0;
#X connect 8 0 9 0;
#X connect 9 0 14 2;
#X connect 10 0 5 0;
#X connect 11 0 12 0;
#X connect 12 0 6 0;
#X connect 13 0 5 1;
#X connect 14 0 2 0;
#X connect 15 0 14 0;
#X connect 16 0 14 0;
#X connect 17 0 18 0;
#X connect 18 0 15 0;
#X connect 18 0 21 0;
#X connect 18 1 16 0;
#X connect 18 1 20 0;
#X connect 19 0 17 0;
#X connect 22 0 14 1;
#X connect 23 0 17 0;
#X connect 25 0 26 0;
#X connect 26 0 5 0;
#X connect 27 0 24 0;
#X connect 28 0 8 0;
#X restore 13 359 pd clock-system;
#X connect 33 0 35 0;
#X connect 34 0 36 0;
#X connect 36 0 33 0;
