#N canvas 827 239 734 565 12;
#X obj 184 91 popmenu 128 26 12 #E3DFD9 #5A5A5A \  empty empty empty empty 1 0 -1 1 0 1 0 0 0 0 0 1 2 3 4 5 6 7 8 9 10 11 12 13 14 15 16;
#X msg 500 -16 clear \, add 1 2 3 4 5 6 7 8 9 10 11 12 13 14 15 16;
#X obj 526 -119 lb;
#X obj 172 -103 symbol;
#X obj 524 -79 t b b;
#X obj 466 -226 bng 25 250 50 0 empty empty empty 17 7 0 10 #e3dfd9 #5a5a5a #5a5a5a;
#X msg 539 -50 0;
#X obj 243 -226 >= 10;
#X msg 172 -149 localhost:2220\$1;
#X obj 215 -252 + 1;
#X obj 215 -193 router 2;
#X obj 308 -100 symbol;
#X msg 301 -149 localhost:222\$1;
#X obj -12 15 pdlink~ audio-in-L;
#X obj 141 15 pdlink~ audio-in-R;
#X obj 525 -153 - 1;
#X text 185 56 Audio Input;
#X obj 93 91 knob 50 0 1 0 0 empty \$1-live-buffer-in #E3DFD9 #968E82 #5A5A5A 1 0 0 0 1 270 0 0 0 empty empty 0 12 6 -15 0 1 0 0;
#X obj -96 99 *~;
#X obj -19 99 *~;
#X text 78 56 Volume In;
#X obj 703 145 pdlink sample_rate_data;
#X msg 808 -93 localhost:2240\$1;
#X obj 808 -45 symbol;
#X msg 855 -124 localhost:224\$1;
#X floatatom 703 198 8 0 0 0 - - - 12;
#X text 1182 195 Array Load up/Change Sample Rate;
#X obj 524 78 bng 25 250 50 0 empty \$1-delete_buffer ERASE\ BUFFER -29 -17 0 15 #e3dfd9 #ff0041 #ff0500;
#X obj 703 317 s \$1-live_buffer_sample_rate_val, f 31;
#X obj 703 231 / 1000;
#X obj 184 255 r~ \$1-record_head_vline;
#X obj -19 511 f;
#X floatatom -6 475 5 0 0 0 - - - 12;
#X floatatom 171 475 9 0 0 0 - - - 12;
#X obj 160 511 f;
#X obj 566 433 r \$1-live_buffer_content;
#X floatatom 566 469 5 0 0 0 - - - 12;
#X obj 555 497 f;
#X obj -6 403 r \$1-first_record_abs_start, f 24;
#X obj 171 403 r \$1-first_record_abs_end;
#X obj -19 564 s \$1-live_buffer_abs_start, f 24;
#X obj 160 564 s \$1-live_buffer_abs_end;
#X obj 553 556 s \$1-live_buffer_content_update;
#X obj -233 403 r \$1-completed_first_buffer_record;
#X obj -406 522 s \$1_live_buffer_load_bang;
#X obj 344 449 r \$1_live_buffer_load;
#X obj 770 608 s \$1-initial_buffer_length, f 30;
#X obj 882 484 symbol;
#X obj 796 502 bng 25 250 50 0 empty empty empty 17 7 0 10 #e3dfd9 #5a5a5a #5a5a5a;
#X obj 869 518 print;
#X obj 83 733 s \$1-live-buffer_slice_size_val, f 27;
#X obj 86 611 -;
#X obj 86 637 / 16;
#X floatatom 86 663 5 0 0 0 - - - 12;
#X obj 75 691 f;
#X obj -233 436 t b b b b b;
#X obj -5 723 bng 25 250 50 0 empty empty empty 17 7 0 10 #e3dfd9 #5a5a5a #5a5a5a;
#X floatatom 161 537 5 0 0 0 - - - 12;
#X obj 645 67 bng 25 250 50 0 empty empty empty 17 7 0 10 #e3dfd9 #5a5a5a #5a5a5a;
#X obj 593 100 bang;
#X obj 634 469 t b f;
#X obj 615 -204 print;
#X obj 526 -232 f \$1;
#N canvas 0 22 450 300 buffer-writer 0;
#X obj 153 128 inlet~ audio-signal-L;
#X obj 307 128 inlet~ audio-signal-R;
#X obj 468 128 inlet~ vline-message;
#X obj 159 233 poke~;
#X obj 307 233 poke~;
#X obj 1003 128 inlet switch-contro \;;
#X obj 860 233 switch~ 0;
#X obj 626 128 inlet poke-array-name-L;
#X obj 792 128 inlet poke-array-name-R;
#X obj 468 171 symbol set;
#X obj 565 265 symbol set;
#X connect 0 0 3 0;
#X connect 1 0 4 0;
#X connect 2 0 3 1;
#X connect 2 0 4 1;
#X connect 5 0 6 0;
#X connect 7 0 9 0;
#X connect 8 0 10 0;
#X connect 9 0 3 2;
#X connect 10 0 4 2;
#X restore -192 300 pd buffer-writer;
#X f 18;
#X connect 0 0 9 0;
#X connect 1 0 0 0;
#X connect 2 0 4 0;
#X connect 3 0 13 1;
#X connect 3 0 14 1;
#X connect 4 0 1 0;
#X connect 4 1 6 0;
#X connect 5 0 62 0;
#X connect 6 0 0 0;
#X connect 7 0 10 1;
#X connect 8 0 3 0;
#X connect 9 0 7 0;
#X connect 9 0 10 0;
#X connect 10 0 8 0;
#X connect 10 0 22 0;
#X connect 10 1 12 0;
#X connect 10 1 24 0;
#X connect 11 0 13 1;
#X connect 11 0 14 1;
#X connect 12 0 11 0;
#X connect 13 0 18 0;
#X connect 14 0 19 0;
#X connect 15 0 0 0;
#X connect 17 0 19 1;
#X connect 17 0 18 1;
#X connect 18 0 63 0;
#X connect 19 0 63 1;
#X connect 21 0 25 0;
#X connect 22 0 23 0;
#X connect 23 0 21 1;
#X connect 24 0 23 0;
#X connect 25 0 29 0;
#X connect 29 0 28 0;
#X connect 30 0 63 2;
#X connect 31 0 40 0;
#X connect 32 0 31 1;
#X connect 32 0 51 1;
#X connect 33 0 34 1;
#X connect 33 0 51 0;
#X connect 34 0 57 0;
#X connect 35 0 36 0;
#X connect 36 0 37 1;
#X connect 37 0 42 0;
#X connect 38 0 32 0;
#X connect 39 0 33 0;
#X connect 43 0 55 0;
#X connect 45 0 34 0;
#X connect 45 0 31 0;
#X connect 45 0 37 0;
#X connect 47 0 49 0;
#X connect 48 0 47 0;
#X connect 51 0 52 0;
#X connect 52 0 53 0;
#X connect 53 0 54 1;
#X connect 54 0 50 0;
#X connect 55 1 31 0;
#X connect 55 2 34 0;
#X connect 55 3 37 0;
#X connect 55 4 54 0;
#X connect 56 0 54 0;
#X connect 57 0 41 0;
#X connect 58 0 59 0;
#X connect 60 0 37 0;
#X connect 60 1 36 0;
#X connect 62 0 15 0;
#X connect 62 0 61 0;
