#N canvas 827 239 734 565 12;
#X obj 291 132 inlet length;
#X obj 450 132 inlet init-rate;
#X obj 124 132 inlet~ position;
#X obj 124 167 snapshot~;
#X obj 291 189 f;
#X floatatom 291 161 5 0 0 0 - - - 12;
#X floatatom 450 161 5 0 0 0 - - - 12;
#X obj 450 189 f;
#X msg 40 132 stop;
#X obj 40 107 r stop-playback;
#X floatatom 124 196 5 0 0 0 - - - 12;
#X obj 124 224 f;
#X text 61 195 v paused;
#X text 227 160 loop end;
#X text 360 160 playback rate;
#X connect 0 0 5 0;
#X connect 1 0 6 0;
#X connect 2 0 3 0;
#X connect 3 0 10 0;
#X connect 5 0 4 0;
#X connect 6 0 7 0;
#X connect 8 0 3 0;
#X connect 9 0 8 0;
#X connect 10 0 11 0;
