#N canvas 827 239 734 564 12;
#X floatatom 1891 658 5 0 0 0 - - - 12;
#X obj 1891 626 r row_\$1;
#X floatatom 1979 658 7 0 0 0 - - - 12;
#X obj 1930 706 *;
#X floatatom 1930 738 8 0 0 0 - - - 12;
#X obj 2100 1255 vline~;
#X msg 2149 1204 \$1 \, \$2 \$3;
#X obj -2660 -373 s \$0-playback_direction;
#X floatatom -2782 -523 5 0 0 0 - - - 12;
#X obj -1367 -99 r \$0-set_active_loop_start;
#X obj -1299 -149 s \$0-set_active_loop_start;
#X obj -1111 -149 s \$0-set_active_loop_end;
#X obj -1195 -99 r \$0-set_active_loop_end;
#X floatatom -1367 -70 5 0 0 0 - - - 12;
#X floatatom -1195 -70 9 0 0 0 - - - 12;
#X obj -1367 -37 f;
#X obj -1195 -37 f;
#X obj -2671 -459 f;
#X obj -2671 -418 s \$0-rate_multiplier;
#X obj -2671 -689 lb;
#X msg -2671 -524 1;
#X floatatom -2671 -489 5 0 0 0 - - - 16;
#X obj -1367 54 s \$0-loop_start;
#X obj -1195 54 s \$0-loop_end;
#X obj 1163 153 f;
#X obj 1280 164 f;
#X obj 237 143 bng 25 250 50 0 \$0-play_button \$0-press_play empty 17 7 0 10 #e3dfd9 #5a5a5a #5a5a5a;
#X obj 1244 71 lb;
#X msg 1241 110 0;
#X floatatom 1291 114 5 0 0 0 - - - 12;
#X obj 1273 375 s \$0-is_paused_flag;
#X obj 1484 262 f;
#X obj 1484 157 r \$0-pause_position;
#X text 1088 156 is playing;
#X obj 1163 190 sel 0 1;
#X text 1323 156 is paused;
#X obj 1280 226 sel 0 1;
#X msg 1197 281 1;
#X msg 1236 281 0;
#X obj 810 1079 f;
#X obj 982 915 r \$0-loop_end;
#X obj 944 1064 f;
#X obj 1088 940 r \$0-rate_multiplier;
#X obj 1077 983 f;
#X obj 810 1010 switch;
#X obj 944 1010 switch;
#X obj 667 665 r \$0-playback_direction;
#X obj 656 817 f;
#X obj 828 974 f;
#X obj 971 961 f;
#X obj 656 915 t b f;
#N canvas 0 22 450 300 calc_duration 0;
#X obj 228 89 inlet start_pos;
#X obj 364 132 inlet target_pos;
#X obj 503 132 inlet rate_mult;
#X obj 619 132 inlet sr_khz;
#X obj 228 250 expr abs($f2-$f1);
#X obj 352 632 outlet duration_ms;
#X floatatom 228 289 7 0 0 0 - - - 12;
#X text 134 322 delta_samples;
#X obj 503 250 expr $f2 * $f1;
#X floatatom 503 289 5 0 0 0 - - - 12;
#X text 423 322 samples_per_ms;
#X obj 753 132 inlet bpm;
#X obj 858 132 inlet num_beats_for_segment;
#X obj 1499 132 inlet clock_mode_enabled;
#X obj 1499 168 f;
#X obj 266 371 pack f f;
#X obj 228 214 pack f f;
#X obj 248 323 f;
#X obj 364 323 f;
#X text 123 499 orig_duration_ms;
#X obj 266 500 f;
#X text 144 165 f_start_pos;
#X text 279 165 f_target_pos;
#X text 402 165 f_rate_multiplier;
#X text 555 165 f_sr_khz;
#X text 692 165 f_bpm;
#X text 905 167 f_num_beats;
#X text 1543 167 f_clock_mode;
#X obj 228 118 t f b b b b b b;
#X obj 408 532 switch;
#X obj 1514 285 + 1;
#X floatatom 1074 148 5 0 0 0 - - - 12;
#X obj 1074 122 r \$1_file_abs_end;
#X obj 1207 122 r \$1_file_abs_start;
#X floatatom 1207 148 5 0 0 0 - - - 12;
#X obj 753 230 expr ((60000 / $f1) * $f2 );
#X floatatom 753 256 5 0 0 0 - - - 16;
#X obj 753 281 f;
#X text 800 280 target duration ms;
#X obj 1095 230 expr ($f1 - $f2);
#X obj 1095 256 f;
#X text 1150 256 total number of samples;
#X obj 753 398 f;
#X text 937 370 Base Playback Rate;
#X obj 678 440 expr ($f1 * $f2);
#X obj 626 579 f;
#X text 672 578 synced ms;
#X obj 626 532 expr abs(($f2 - $f1) / $f3);
#X obj 753 371 expr (($f3 * 100) / ($f2 *$f1));
#X obj 753 157 t b f;
#X obj 266 421 expr ($f1 / $f2);
#X obj 858 166 f;
#X obj 1074 173 f;
#X obj 1207 173 f;
#X obj 162 214 f;
#X obj 364 166 f;
#X obj 503 166 f;
#X obj 619 166 f;
#X obj 753 185 f;
#X connect 0 0 28 0;
#X connect 1 0 55 0;
#X connect 2 0 56 0;
#X connect 3 0 57 0;
#X connect 4 0 6 0;
#X connect 6 0 17 0;
#X connect 8 0 9 0;
#X connect 9 0 18 0;
#X connect 11 0 49 0;
#X connect 12 0 51 0;
#X connect 13 0 14 0;
#X connect 14 0 30 0;
#X connect 15 0 50 0;
#X connect 16 0 4 0;
#X connect 17 0 15 0;
#X connect 18 0 15 1;
#X connect 20 0 29 1;
#X connect 28 0 16 0;
#X connect 28 0 54 0;
#X connect 28 1 55 0;
#X connect 28 2 56 0;
#X connect 28 3 57 0;
#X connect 28 4 58 0;
#X connect 28 5 51 0;
#X connect 28 5 52 0;
#X connect 28 6 14 0;
#X connect 28 6 53 0;
#X connect 29 0 5 0;
#X connect 30 0 29 0;
#X connect 31 0 52 0;
#X connect 32 0 31 0;
#X connect 33 0 34 0;
#X connect 34 0 53 0;
#X connect 35 0 36 0;
#X connect 36 0 37 0;
#X connect 37 0 48 0;
#X connect 37 0 54 0;
#X connect 39 0 40 0;
#X connect 40 0 48 2;
#X connect 42 0 44 1;
#X connect 44 0 47 2;
#X connect 45 0 29 2;
#X connect 47 0 45 0;
#X connect 48 0 42 0;
#X connect 49 0 28 0;
#X connect 49 1 58 1;
#X connect 50 0 20 0;
#X connect 51 0 35 1;
#X connect 52 0 39 0;
#X connect 53 0 39 1;
#X connect 54 0 47 0;
#X connect 55 0 16 1;
#X connect 55 0 47 1;
#X connect 56 0 8 0;
#X connect 56 0 44 0;
#X connect 57 0 8 1;
#X connect 57 0 48 1;
#X connect 58 0 35 0;
#X restore 927 1139 pd calc_duration;
#X obj -913 -149 s \$0-rate_khz;
#X obj 1229 940 r \$0-rate_khz;
#X obj 1154 983 f;
#X obj 798 1272 pack f f f;
#X obj 927 1190 t b b f;
#X obj 798 1236 f;
#X obj 849 1236 f;
#X obj 656 877 + 1;
#N canvas 733 172 450 300 loop_logic 0;
#X obj 655 634 r~ \$0-vline_output_sig;
#X obj 888 822 edge~;
#X obj 888 852 s \$0_loop_hit_bang;
#X obj 865 634 r~ \$0_target_for_expr_sig;
#X text 661 608 v_out;
#X text 865 608 v_tarrget;
#X obj 708 695 >=~;
#X text 592 694 fwd_comp_result;
#X text 1113 680 is_fwd_sig;
#X obj 1080 634 sig~;
#X obj 1053 687 ==~ 0;
#X obj 738 763 *~;
#X text 592 762 final_fwd_trigger_sig;
#X obj 810 695 <=~, f 5;
#X text 865 694 rev_comp_result;
#X obj 1206 687 ==~ 1;
#X text 1245 708 is_rev_sig;
#X obj 945 755 *~;
#X text 1014 754 final_rev_trigger_sig;
#X obj 888 786 +~;
#X obj 1080 526 r \$0_direction_for_expr_sig;
#X obj 1081 584 - 1;
#X obj 655 899 numbox~ 9 14 100 #E3DFD9 #5A5A5A 10 0 0 0;
#X obj 865 899 numbox~ 6 17 100 #E3DFD9 #5A5A5A 10 0 0 0;
#X obj 1067 899 numbox~ 7 17 100 #E3DFD9 #5A5A5A 10 0 0 0;
#X connect 0 0 6 0;
#X connect 0 0 13 0;
#X connect 0 0 22 0;
#X connect 1 0 2 0;
#X connect 3 0 6 1;
#X connect 3 0 13 1;
#X connect 3 0 23 0;
#X connect 6 0 11 0;
#X connect 9 0 10 0;
#X connect 9 0 15 0;
#X connect 9 0 24 0;
#X connect 10 0 11 1;
#X connect 11 0 19 0;
#X connect 13 0 17 0;
#X connect 15 0 17 1;
#X connect 17 0 19 1;
#X connect 19 0 1 0;
#X connect 20 0 21 0;
#X connect 21 0 9 0;
#X restore 1434 854 pd loop_logic;
#X obj 868 1272 sig~;
#X obj 868 1319 s~ \$0_target_for_expr_sig;
#X obj 1924 1404 s~ \$0-vline_output_sig;
#X obj 858 885 s \$0_direction_for_expr_sig;
#X obj 1857 264 r \$0_loop_hit_bang;
#X obj 1016 71 r \$0-is_playing_flag;
#X obj 1194 403 s \$0-is_playing_flag;
#X obj 1291 84 r \$0-is_paused_flag;
#X obj 1852 1330 snapshot~;
#X floatatom 1486 203 10 0 0 0 - - - 12;
#X obj 1852 1370 s \$0-pause_position;
#X obj 1280 262 t b b b;
#X msg 1283 307 1;
#X msg 1381 325 0;
#X obj 1731 376 f;
#X obj 1380 -110 r \$1_sample_swap_bang;
#X floatatom 1171 114 5 0 0 0 - - - 12;
#X obj 296 143 bng 25 250 50 0 \$0-stop_button empty empty 17 7 0 10 #e3dfd9 #5a5a5a #5a5a5a;
#X text 214 107 Play/Pause;
#X text 288 107 stop;
#X obj -2782 -558 count 1;
#X obj 364 143 bng 25 250 50 0 \$0-dir-change empty empty 17 7 0 10 #e3dfd9 #5a5a5a #5a5a5a;
#X text 322 107 Direction Change;
#X msg 1467 343 \$1 0;
#X obj 914 622 r \$0-is_playing_flag;
#X floatatom 914 657 5 0 0 0 - - - 12;
#X obj 824 689 f;
#X obj 824 732 sel 0 1;
#X obj 1746 1330 snapshot~;
#X floatatom 1746 1366 10 0 0 0 - - - 12;
#X obj 1731 439 s \$0-jump_to_pos;
#X obj 1857 439 s \$0-loop-end-pos;
#X obj 2182 439 s \$0-rate-multiplyer-trigger;
#X obj 2369 439 s \$0-rate_khz_trigger;
#X obj 910 1030 r \$0-loop-end-pos;
#X obj 1095 908 r \$0-rate-multiplyer-trigger;
#X obj 1229 908 r \$0-rate_khz_trigger;
#X obj 656 711 r \$0-direction_swap_trigger;
#X obj 683 1038 r \$0-jump_to_pos;
#X obj 1746 1416 s \$0-direction-change-pos;
#X obj 2416 243 r \$0-direction-change-pos;
#X obj 1441 44 s \$0-stop_message, f 18;
#X obj -736 1580 r \$0-stop_message;
#X obj 1949 1061 r \$0-pause_sample_number;
#X obj 1381 410 s \$0-pause_sample_number;
#X obj 1309 435 s \$0-pause_snapshot_bang;
#X obj 1852 1239 r \$0-pause_snapshot_bang;
#X obj 902 854 s \$0-playback_dir_snapshot;
#X obj 1746 1277 r \$0-playback_dir_snapshot;
#X obj 1350 274 s \$0-resume_bang;
#X obj 1721 243 r \$0-resume_bang;
#X obj 1148 435 s \$0-play_button_bang;
#X obj 1830 194 r \$0-play_button_bang;
#X obj 1508 435 s \$0-resume_sample_location;
#X obj 1697 162 r \$0-resume_sample_location;
#X text 56 135 playback speed;
#X obj -990 733 sel 1 2 3 4 5;
#X msg -1083 814 0.25, f 5;
#X msg -1028 814 0.5, f 5;
#X msg -925 814 2, f 5;
#X msg -878 814 4, f 5;
#X msg -978 814 1, f 5;
#X obj -978 645 + 1;
#X obj -983 1527 s \$0-selected_rate;
#X obj -2713 -558 r \$0-selected_rate;
#X obj -814 571 r \$0-is_playing_flag;
#X floatatom -814 609 5 0 0 0 - - - 12;
#X obj -814 645 f;
#X obj -814 693 sel 0 1;
#X obj -683 775 s \$0-playback_speed_snapshot;
#X obj 1550 1277 r \$0-playback_speed_snapshot;
#X obj 1550 1330 snapshot~;
#X floatatom 1550 1366 10 0 0 0 - - - 12;
#X obj 1550 1416 s \$0-speed_change_pos;
#X obj 2234 283 r \$0-speed_change_pos;
#X obj -989 609 t b f;
#X obj 56 179 hradio 20 1 1 5 \$0-playback_speed_dial empty empty 0 -8 0 10 #e3dfd9 #5a5a5a #5a5a5a 2;
#X obj 41 77 lb;
#X msg 41 108 2;
#X obj -989 571 r \$0-playback_speed_dial;
#X obj 1949 1180 s~ \$0-playhead_pos;
#X obj -1256 528 r~ \$0-playhead_pos;
#X obj 189 179 hsl 499 19 0 1 0 0 empty \$0-playbar_data_i empty -2 -8 0 10 #e3dfd9 #5a5a5a #5a5a5a 0 1;
#X obj -1256 642 scale 0 \$1 0 1;
#X obj -1256 587 snapshot~;
#X obj -1411 271 r \$0-is_playing_flag;
#X obj -1380 507 metro 20;
#X obj 1291 44 s \$0-playhead_reset;
#X obj -1306 498 r \$0-playhead_reset;
#X msg 1340 5 0;
#X obj 2068 691 r \$0-is_playing_flag;
#X floatatom 2068 737 5 0 0 0 - - - 12;
#X obj 2068 773 f;
#X obj 2068 813 sel 0 1;
#X obj 1930 768 t f b;
#X obj 2068 851 s \$0-press_play;
#X obj 1266 -79 r \$0-stop_button;
#X obj 1145 53 r \$0-play_button;
#X obj -2782 -619 r \$0-dir-change;
#X floatatom 1778 624 5 0 0 0 - - - 12;
#X obj 1767 665 f;
#X obj 1778 586 r \$0-playback_direction;
#X obj 1912 885 switch;
#X obj 1769 709 + 1;
#X obj 1835 682 bang;
#X obj 1995 813 +;
#X text 1873 534 slice position (and reverse offset);
#X text 2037 74 Playback Trigger Order;
#X obj 1996 243 r \$0-key_press_pos;
#X obj 1921 923 s \$0-key_press_pos;
#X msg 2205 851 0;
#X obj 2203 914 s \$0-unpause;
#X obj 1441 84 r \$0-unpause;
#X floatatom 909 732 5 0 0 0 - - - 12;
#X obj 909 768 f;
#X obj 884 805 sel 0 1;
#X obj 902 689 r \$0-is_paused_flag;
#X floatatom -743 652 5 0 0 0 - - - 12;
#X obj -743 688 f;
#X obj -750 731 sel 0 1;
#X obj -750 609 r \$0-is_paused_flag;
#X text 1099 740 vline playback and speed calculations;
#X text -995 466 playback speed change mechanism;
#X text -1361 -380 Master Numbers;
#X text 383 24 Controls;
#X text 1209 -148 Play/Pause/Stop Logic;
#X text 1975 1029 vline object and arrays;
#X obj -969 1077 knob 50 10 2000 0 100 empty \$0-rate_slew-duration-i #E3DFD9 #968E82 #5A5A5A 1 0 0 0 1 270 0 0 51 empty empty 0 12 6 -15 0 1 0 0;
#X obj -1033 1092 f;
#X floatatom -969 1151 5 0 0 0 - - - 12;
#X obj -969 1187 f;
#X text -987 1050 slew duration;
#X obj -892 1187 f;
#X text -892 1050 exponent/curve control;
#X obj -892 1077 knob 50 -1 0 0 0 empty \$0-rate_slew_curve_i #E3DFD9 #968E82 #5A5A5A 1 0 0 0 1 270 0 0 0 empty empty 0 12 6 -15 0 1 0 0;
#X floatatom -892 1151 5 0 0 0 - - - 12;
#X obj -983 1338 curve~;
#X obj -983 1235 pack f f f;
#X msg -983 1269 \$1 \$2 \$3;
#X obj -1033 1136 t f b b;
#X obj -983 1303 t a b;
#X obj -983 1452 cyclone/snapshot~;
#X msg -882 1411 5;
#X obj -954 1405 tgl 25 0 empty empty empty 17 7 0 10 #e3dfd9 #5a5a5a #5a5a5a 0 1;
#X obj -954 1007 t f b;
#X msg -907 1316 0;
#X obj -1041 1559 s \$0-slew_bang;
#X obj -841 518 r \$0-slew_bang;
#X obj -1041 1527 bang;
#X obj -1041 1426 f;
#X obj -854 941 f;
#X obj -1047 941 f;
#X obj -978 688 t b f;
#X obj -827 874 sel 0 1;
#X obj -827 843 f;
#X floatatom -814 807 5 0 0 0 - - - 16;
#X obj -2661 -266 tgl 25 0 empty \$0-slew_engage-i empty 17 7 0 10 #e3dfd9 #5a5a5a #5a5a5a 0 1;
#X obj -2657 -330 lb;
#X msg -2657 -292 0;
#X obj -1041 1392 t b b;
#X obj -882 1374 lb;
#X floatatom -2661 -226 5 0 0 0 - - - 12;
#X obj 43 356 knob 50 10 2000 0 100 \$0-rate_slew-duration-i empty #E3DFD9 #968E82 #5A5A5A 1 0 0 0 1 270 0 0 10 empty empty 0 12 6 -15 0 1 0 0;
#X obj 136 356 knob 50 -1 0 0 0 \$0-rate_slew_curve_i empty #E3DFD9 #968E82 #5A5A5A 1 0 0 0 1 270 0 0 0 empty empty 0 12 6 -15 0 1 0 0;
#X obj 97 274 tgl 25 0 \$0-slew_engage-i empty empty 17 7 0 10 #e3dfd9 #5a5a5a #5a5a5a 0 1;
#X text 125 313 slew curve;
#X text 43 313 slew time;
#X floatatom 43 416 7 0 0 0 - - - 12;
#X floatatom 136 413 7 0 0 0 - - - 12;
#X text 73 241 slew engage;
#X obj 305 274 tgl 25 0 \$0-direction_slew_i empty empty 17 7 0 10 #e3dfd9 #5a5a5a #5a5a5a 0 1;
#X text 250 241 direction change slew;
#X obj -2478 -266 tgl 25 0 empty \$0-direction_slew_i empty 17 7 0 10 #e3dfd9 #5a5a5a #5a5a5a 0 1;
#X obj -2474 -337 lb;
#X msg -2474 -299 0;
#X floatatom -2478 -226 5 0 0 0 - - - 12;
#X obj -2478 -190 s \$0-direction_slew_engaged;
#X obj -2661 -190 s \$0-slew_engaged;
#X obj -814 775 r \$0-slew_engaged;
#X msg -829 1358 stop;
#X obj -1041 1493 change;
#X obj -967 1493 change;
#X text 548 664 playback dir;
#X text 571 805 playback dir;
#X obj 720 743 lb;
#X msg 720 784 0;
#X obj -2782 -473 t b f;
#X obj -2805 -373 s \$0-dir_slew_logic;
#X obj 1550 1500 snapshot~;
#X floatatom 1550 1536 10 0 0 0 - - - 12;
#X obj 1550 1460 r \$0-dir-slew-snapshot;
#X obj 1550 1566 s \$0-dir-slew-pos;
#X obj -210 1373 s \$0-selected_rate;
#X obj -238 893 knob 50 10 2000 0 100 empty \$0-dir_slew-duration-i #E3DFD9 #968E82 #5A5A5A 1 0 0 0 1 270 0 0 51 empty empty 0 12 6 -15 0 1 0 0;
#X floatatom -238 952 5 0 0 0 - - - 12;
#X text -256 866 slew duration;
#X obj -59 1009 f;
#X text -7 967 exponent/curve control;
#X obj -59 894 knob 50 -1 0 0 0 empty \$0-dir_slew_curve_i #E3DFD9 #968E82 #5A5A5A 1 0 0 0 1 270 0 0 0 empty empty 0 12 6 -15 0 1 0 0;
#X floatatom -59 968 5 0 0 0 - - - 12;
#X obj -210 1268 curve~;
#X obj -210 1309 cyclone/snapshot~;
#X msg -109 1281 5;
#X obj -280 1385 bang;
#X obj -109 1249 lb;
#X obj -280 1350 change;
#X obj -210 1343 change;
#X obj -132 820 r \$0-rate_multiplier;
#X obj -160 924 f;
#X obj -160 708 r \$0-dir_slew_logic;
#X obj -150 1019 f;
#X obj -160 746 t b b;
#X obj 493 276 tgl 25 0 \$0-tape_stop_slew empty empty 17 7 0 10 #e3dfd9 #5a5a5a #5a5a5a 0 1;
#X text 475 241 tape stop;
#X obj -2478 -467 f;
#X floatatom -2478 -516 5 0 0 0 - - - 12;
#X obj -2478 -418 s \$0-stored_rate;
#X obj -2478 -558 r \$0-active_rate;
#X obj -1149 1007 s \$0-active_rate;
#X obj -238 991 / 2;
#X obj 2118 136 r \$0-dir-slew-pos;
#X obj 2533 439 s \$0-update_loop_start;
#X obj 2707 439 s \$0-update_loop_end;
#X obj 1721 323 t b b b b b b b;
#X obj 1857 323 t b b b b b b b;
#X obj 2024 323 t f b b b b b b;
#X obj 733 854 r \$0-update_loop_start;
#X obj 1024 811 r \$0-update_loop_end;
#X obj 2307 136 r \$0-stop_settings_reset;
#X obj 2307 185 t b b b b b b b;
#X msg 2280 244 0;
#X obj 2110 205 t f b b b b b;
#X obj -59 1210 delay;
#X obj 18 1186 s \$0-direction_swap_trigger;
#X obj 4 1113 t b b b;
#X obj 33 1155 s \$0-playback_speed_snapshot;
#X obj 4 1212 s \$0-playback_speed_snapshot;
#X obj -181 1178 t a b b;
#X obj -146 1268 tgl 25 0 empty empty empty 17 7 0 10 #e3dfd9 #5a5a5a #5a5a5a 0 1;
#X msg -106 1019 0;
#X text -2590 -632 Playback States;
#X floatatom -406 1137 5 0 0 0 - - - 12;
#X obj -417 1169 f;
#X obj -417 1202 sel 0 1;
#X obj -406 1101 r \$0-direction_slew_engaged;
#X obj -403 1239 f;
#X obj -160 956 t b f b b b;
#X obj -404 1321 s \$0-direction_swap_trigger;
#X obj 2416 285 t f b b b b b;
#X msg -226 1216 \$1 0 0 0 \$2 \$3 \$4 \$2 \$3;
#X obj -106 1125 pack f f f f;
#X obj -4 1086 f;
#X floatatom -4 1053 5 0 0 0 - - - 12;
#X obj -751 946 s \$0-selected_rate_mult;
#X obj -4 1019 r \$0-selected_rate_mult;
#X obj -9 1332 s \$0-selected_rate;
#X obj -52 1268 f;
#X obj 245 356 knob 50 10 2000 0 100 \$0-dir_slew-duration-i empty #E3DFD9 #968E82 #5A5A5A 1 0 0 0 1 270 0 0 51 empty empty 0 12 6 -15 0 1 0 0;
#X text 227 313 slew duration;
#X floatatom 245 413 7 0 0 0 - - - 12;
#X obj 335 356 knob 50 -1 0 0 0 \$0-dir_slew_curve_i empty #E3DFD9 #968E82 #5A5A5A 1 0 0 0 1 270 0 0 0 empty empty 0 12 6 -15 0 1 0 0;
#X floatatom 335 413 7 0 0 0 - - - 12;
#X text 324 313 slew curve;
#X obj -707 2182 s \$0-selected_rate;
#X obj -745 1847 knob 50 10 2000 0 100 empty \$0-stop_slew-duration-i #E3DFD9 #968E82 #5A5A5A 1 0 0 0 1 270 0 0 51 empty empty 0 12 6 -15 0 1 0 0;
#X floatatom -745 1906 5 0 0 0 - - - 12;
#X text -763 1820 slew duration;
#X obj -556 1934 f;
#X text -485 1834 exponent/curve control;
#X obj -556 1819 knob 50 -1 0 0 0 empty \$0-stop_slew_curve_i #E3DFD9 #968E82 #5A5A5A 1 0 0 0 1 270 0 0 0 empty empty 0 12 6 -15 0 1 0 0;
#X floatatom -556 1893 5 0 0 0 - - - 12;
#X obj -707 2057 curve~;
#X obj -707 2098 cyclone/snapshot~;
#X msg -606 2070 5;
#X obj -772 2182 bang;
#X obj -606 2038 lb;
#X obj -772 2132 change;
#X obj -707 2132 change;
#X obj -606 1786 r \$0-rate_multiplier;
#X obj -657 1829 f;
#X obj -644 1906 f;
#X obj -658 1759 t b b;
#X obj -678 1967 t a b b;
#X obj -643 2057 tgl 25 0 empty empty empty 17 7 0 10 #e3dfd9 #5a5a5a #5a5a5a 0 1;
#X msg -583 1941 0;
#X obj -453 1941 r \$0-selected_rate_mult;
#X obj -464 2007 s \$0-selected_rate;
#X obj -464 1980 f;
#X obj 1423 1330 snapshot~;
#X floatatom 1423 1366 10 0 0 0 - - - 12;
#X obj 1423 1277 r \$0-stop_snapshot;
#X obj 1423 1416 s \$0-stop_pos;
#X obj -606 1759 s \$0-stop-snapshot;
#X obj 2280 75 r \$0-stop_pos;
#X msg -707 2005 \$1 0 0 0 \$2 \$3;
#X obj -678 1941 pack f f f;
#X obj -284 1948 r \$0-loop_start;
#X obj -330 2026 f;
#X obj -350 2057 pack f;
#X msg -397 2089 \$1 0;
#X obj -427 2132 s \$0-vline_0;
#X obj 2100 1102 r \$0-vline_0;
#X obj -675 1866 t f b b b;
#X obj -674 1724 sel 0 1;
#X obj -674 1694 f;
#X obj 444 356 knob 50 10 2000 0 100 \$0-stop_slew-duration-i empty #E3DFD9 #968E82 #5A5A5A 1 0 0 0 1 270 0 0 51 empty empty 0 12 6 -15 0 1 0 0;
#X floatatom 444 415 7 0 0 0 - - - 12;
#X obj 515 356 knob 50 -1 0 0 0 \$0-stop_slew_curve_i empty #E3DFD9 #968E82 #5A5A5A 1 0 0 0 1 270 0 0 0 empty empty 0 12 6 -15 0 1 0 0;
#X floatatom 515 415 7 0 0 0 - - - 12;
#X text 418 313 slew duration;
#X text 515 313 slew curve;
#X obj -772 2226 s \$0-stop_snapshot;
#X obj -1235 397 r \$0-stop_playbar;
#X msg -1271 427 0;
#X obj -564 2132 s \$0-stop_playbar;
#X obj -663 1528 r \$0-is_playing_flag;
#X floatatom -663 1550 5 0 0 0 - - - 16;
#X obj -692 1664 sel 0 1;
#X obj -692 1634 f;
#X obj 1266 -45 t b b;
#X obj -256 1980 r \$0-loop_end;
#X floatatom -256 2006 5 0 0 0 - - - 12;
#X floatatom -319 1995 5 0 0 0 - - - 12;
#X msg -453 2089 stop;
#X obj -532 2026 t b b b;
#X obj -532 1980 t b b b;
#X obj 20 746 r \$0-is_playing_flag;
#X floatatom 20 784 5 0 0 0 - - - 12;
#X obj 20 820 f;
#X obj 20 868 sel 0 1;
#X floatatom 91 827 5 0 0 0 - - - 12;
#X obj 91 863 f;
#X obj 84 906 sel 0 1;
#X obj 84 784 r \$0-is_paused_flag;
#X obj -280 1423 s \$0-dir_slew_bang;
#X obj -22 708 r \$0-dir_slew_bang;
#X obj -417 1350 s \$0-dir_slew_bang;
#X obj 228 1025 s \$0-dir-slew-snapshot;
#X obj -51 1299 t b f;
#X obj -51 1362 s \$0-playback_speed_snapshot;
#X obj -495 887 r \$0-is_playing_flag;
#X floatatom -495 925 5 0 0 0 - - - 12;
#X obj -495 961 f;
#X obj -495 1009 sel 0 1;
#X floatatom -424 968 5 0 0 0 - - - 12;
#X obj -424 1004 f;
#X obj -431 1047 sel 0 1;
#X obj -431 925 r \$0-is_paused_flag;
#X obj 957 403 s \$0-direction_swap_trigger;
#X obj 656 847 change;
#X obj 1294 473 s \$0-dir-slew-snapshot;
#X obj -417 1269 t b b;
#X floatatom -1411 325 5 0 0 0 - - - 12;
#X obj -1411 374 sel 0 1;
#X obj -1205 451 t b b;
#X msg -493 2089 1 0;
#X obj 1928 128 r \$1-sample_load_bang;
#X obj 1928 157 t b b;
#X obj 672 961 lb;
#X msg 672 987 1;
#X floatatom -2819 -304 5 0 0 0 - - - 12;
#X obj -2819 -279 f;
#X floatatom -3014 -303 5 0 0 0 - - - 12;
#X obj 1194 987 r \$0-project_bpm_i;
#X obj 1331 987 r \$0-num_beats_for_segment_i;
#X obj -3014 -329 r \$1-num_beats_for_segment;
#X obj -3014 -190 s \$0-num_beats_for_segment_i;
#X floatatom -3002 -437 5 0 0 0 - - - 12;
#X obj -3002 -507 tgl 25 0 empty empty empty 17 7 0 10 #e3dfd9 #5a5a5a #5a5a5a 0 1;
#X obj -3002 -373 s \$0-clock_mode_enable_i;
#X obj 1331 1031 r \$0-clock_mode_enable_i;
#X obj -3002 -582 r \$1-clock_mode_enabled;
#X obj -3014 -266 f;
#X obj -2819 -330 r project_bpm;
#X obj -2819 -190 s \$0-project_bpm_i;
#X text 2294 1511 vca to audio out;
#X floatatom -1111 -180 13 0 0 0 - - - 12;
#X obj -1111 -245 r \$1-live_buffer_abs_end;
#X obj -1111 -212 f;
#X obj -913 -245 r \$1-live_buffer_sample_rate_val;
#X obj -913 -212 f;
#X obj -1755 -99 r \$1-audio_file_slice_size_val;
#X obj 1979 601 r \$0-slice_size_val;
#X obj -1569 -99 r \$1-live-buffer_slice_size_val, f 27;
#X floatatom -1755 -73 5 0 0 0 - - - 12;
#X floatatom -1569 -73 7 0 0 0 - - - 12;
#X obj -1755 -37 f;
#X obj -1569 -37 f;
#X obj -1667 -9 switch, f 7;
#X obj -1682 -64 lb;
#X obj -1667 81 s \$0-slice_size_val;
#X obj -1256 733 s \$0-playbar_data_i;
#X obj -1159 587 r \$0-set_active_loop_end;
#X obj 3304 1059 numbox~ 10 15 100 #E3DFD9 #5A5A5A 10 0 0 0;
#X text 438 108 Record Live Buffer, f 17;
#X text 636 108 Swap Buffer, f 12;
#X obj 666 143 bng 25 250 50 0 \$0-playback_source empty empty 17 7 0 10 #e3dfd9 #5a5a5a #5a5a5a;
#X obj 2805 401 s \$0-audio_file_slot_selection_i;
#X msg -1650 -64 2;
#X obj -1569 -134 s \$0_audio_file_playback_choice;
#X obj -2241 -558 r \$0-buffer_status, f 19;
#X floatatom -2241 -520 5 0 0 0 - - - 12;
#X obj -2241 -471 f;
#X obj -2241 -422 s \$0-stored_buffer_state;
#X obj -2241 -337 r \$0-overdub_enabled;
#X floatatom -2241 -292 5 0 0 0 - - - 12;
#X obj -2241 -226 f;
#X obj -2241 -190 s \$0-overdub_enabled_i;
#X obj -2317 -582 lb;
#X msg -2317 -556 0;
#X obj 475 143 bng 25 250 50 0 \$0-record_button_bang empty empty 17 7 0 10 #e3dfd9 #5a5a5a #5a5a5a;
#X obj 3436 490 r \$0-is_playing_flag;
#X floatatom 3436 521 5 0 0 0 - - - 12;
#X obj 3425 548 f;
#X obj 3425 577 sel 0 1;
#X floatatom 3497 557 5 0 0 0 - - - 12;
#X obj 3497 593 f;
#X obj 3504 622 sel 0 1;
#X obj 3497 521 r \$0-is_paused_flag;
#X text -2171 -486 Flag for if the audio buffer has recorded data;
#X obj 798 1349 s \$0-vline_message;
#X obj 2163 1061 r \$0-vline_message;
#X obj 3503 948 snapshot~;
#X floatatom 3503 974 12 0 0 0 - - - 12;
#X obj 3472 1004 f;
#X obj 3598 934 snapshot~;
#X floatatom 3598 977 11 0 0 0 - - - 12;
#X obj 3587 1004 f;
#X text 3002 1101 Live Buffer First Recorded Sample, f 30;
#X obj 3306 304 r \$0-record_button_bang;
#X obj 3388 948 s \$0-play_button;
#X floatatom 3373 449 5 0 0 0 - - - 12;
#X obj 3362 481 f;
#X obj 3362 519 sel 0 1;
#X obj 3235 948 s \$0-is_recording_flag;
#X obj 3373 423 r \$0-is_recording_flag;
#X floatatom 3326 371 5 0 0 0 - - - 12;
#X obj 3306 415 f;
#X obj 3306 449 sel 0 1;
#X floatatom 3137 483 5 0 0 0 - - - 12;
#X obj 3126 510 f;
#X obj 3126 543 sel 0 1;
#X obj 3137 457 r \$0-is_recording_flag;
#X text 3721 1016 Live Buffer Last Recorded sample;
#X msg 3005 903 1;
#X obj 2991 954 s \$1-live_buffer_content, f 23;
#X obj -665 -212 f;
#X msg 3492 688 1;
#X obj 578 136 bng 25 250 50 0 empty empty empty 17 7 0 10 #e3dfd9 #5a5a5a #5a5a5a;
#X text 552 108 delete buffer, f 12;
#X text 2112 1395 routing control;
#X obj 3175 1029 s \$0-vline_message;
#X obj 3535 720 r \$0-playback_direction;
#X floatatom 3535 749 5 0 0 0 - - - 12;
#X obj 3535 775 + 1;
#X obj 3745 738 s \$0-rec_control_signal;
#X msg 3748 711 1;
#X obj 3716 770 s \$0-read_control_signal;
#X msg 3716 738 0;
#X obj 3224 607 t b b b b b b b b b b;
#X msg 3447 641 0;
#X msg 3413 652 1;
#X obj 2149 1163 switch;
#X msg 2153 1012 1;
#X obj 2157 937 lb;
#X obj 2155 971 delay 100;
#X obj 3504 875 switch;
#X obj 3583 875 switch;
#X floatatom -1665 36 5 0 0 0 - - - 12;
#X floatatom -913 -180 5 0 0 0 - - - 12;
#X floatatom -1195 -5 7 0 0 0 - - - 12;
#X floatatom -1367 -3 5 0 0 0 - - - 12;
#X floatatom -1297 -178 5 0 0 0 - - - 12;
#X floatatom -665 -180 5 0 0 0 - - - 12;
#X floatatom 1168 1097 5 0 0 0 - - - 12;
#X floatatom 1121 1082 5 0 0 0 - - - 12;
#X floatatom 1077 1077 5 0 0 0 - - - 12;
#X floatatom 1033 1082 5 0 0 0 - - - 12;
#X floatatom 1050 1030 5 0 0 0 - - - 12;
#X floatatom 945 1109 5 0 0 0 - - - 12;
#X floatatom 861 1111 5 0 0 0 - - - 12;
#X obj 3779 702 s \$0-empty_buffer_value_initialize;
#X obj 1944 31 r \$1-completed_first_buffer_record;
#X obj 3721 795 t b b;
#X obj 3743 827 snapshot~;
#X obj 3743 871 sel 0;
#X obj 3743 909 tgl 25 0 empty empty empty 17 7 0 10 #e3dfd9 #5a5a5a #5a5a5a 0 1;
#X obj 3721 948 spigot;
#X obj 3845 827 edge~;
#X obj 3845 860 gate;
#X obj 3845 893 t b b;
#X obj 839 924 r \$0-loop_start;
#X obj 355 -139 s \$1-erase_buffer;
#X obj 315 -281 t b b b;
#X obj 3504 645 t b b b b b b b;
#X obj 3813 668 s \$0-direction_swap_trigger;
#X obj -1553 506 r \$0-set_active_loop_start;
#X msg 2068 1134 stop;
#X msg 3175 989 0 0 0;
#X obj 3141 903 s \$0-stop_button;
#X obj -323 380 f \$1;
#X obj 235 583 f;
#X obj 20 522 sel 0 1;
#X obj 20 598 pack s f;
#X obj 20 660 s \$0-send_target;
#N canvas 733 172 450 300 tabread_processing 0;
#X obj 197 191 tabread4~;
#X obj 116 191 tabread4~;
#X obj 116 241 *~;
#X obj 195 232 *~;
#X obj 229 150 line~;
#X msg 230 118 1 5;
#X obj 114 313 s~ \$1-voice-audio-L;
#X obj 195 280 s~ \$1-voice-audio-R;
#X obj 116 150 *~;
#X obj 34 56 r \$0-read_control_signal;
#X obj 229 46 inlet slice-env;
#X obj 436 160 prepend set;
#X obj 430 98 prepend set;
#X obj 430 67 inlet tabread_selection_L;
#X obj 436 129 inlet tabread_selection_R;
#X obj 364 226 inlet switch_state;
#X obj 364 267 tgl 25 0 empty empty empty 17 7 0 10 #e3dfd9 #5a5a5a #5a5a5a 0 1;
#X obj 364 318 switch~;
#X obj 116 113 inlet~ tabread;
#X obj 229 80 bang;
#X connect 0 0 3 0;
#X connect 1 0 2 0;
#X connect 2 0 6 0;
#X connect 3 0 7 0;
#X connect 4 0 3 1;
#X connect 4 0 2 1;
#X connect 5 0 4 0;
#X connect 8 0 1 0;
#X connect 8 0 0 0;
#X connect 9 0 8 1;
#X connect 10 0 19 0;
#X connect 11 0 0 0;
#X connect 12 0 1 0;
#X connect 13 0 12 0;
#X connect 14 0 11 0;
#X connect 15 0 16 0;
#X connect 16 0 17 0;
#X connect 18 0 8 0;
#X connect 19 0 5 0;
#X restore 2100 1370 pd tabread_processing;
#X msg 2197 1303 1;
#X msg 2159 1305 0;
#X obj 235 491 popmenu 128 26 12 #E3DFD9 #5A5A5A \  empty empty empty empty 1 0 -1 1 0 1 0 0 0 0 0 select 1 2 3 4 5 6 7 8 9 10 11 12 13 14 15 16;
#X obj -466 346 lb;
#X obj -386 355 bng 25 250 50 0 empty empty empty 17 7 0 10 #e3dfd9 #5a5a5a #5a5a5a;
#X msg -436 498 0;
#X msg -350 423 clear \, add select 1 2 3 4 5 6 7 8 9 10 11 12 13 14 15 16;
#X obj -468 386 t b b b;
#X obj 20 472 popmenu 128 26 12 #E3DFD9 #5A5A5A \  empty empty empty empty 1 0 -1 1 0 1 0 0 0 0 0 live_buffer sample_buffer;
#X msg -198 385 0;
#X obj -26 -58 route;
#X obj 27 -139 lb;
#X obj 25 -102 f \$1;
#X obj -132 -171 r \$1-loop_buffer_default_selection;
#X msg -24 179 0;
#X obj 2 37 f \$1;
#X obj -26 -8 t b b;
#X obj -267 -531 r \$0-send_target;
#X obj -267 -486 t b a;
#X msg 20 629 symbol \$2\$1;
#X msg -255 -442 \$1_select_bang;
#X obj -255 -401 symbol;
#X obj -267 -344 s;
#X obj 3483 1030 r \$0-send_target;
#X obj 3483 1086 symbol;
#X obj 3472 1116 s;
#X msg 3483 1059 \$1_first_index;
#X obj 3598 1086 symbol;
#X obj 3587 1113 s;
#X msg 3598 1059 \$1_last_index;
#X obj 2818 869 r \$0-send_target;
#X obj 2818 925 symbol;
#X obj 2807 955 s;
#X msg 2818 898 \$1_first_record_complete;
#X obj 20 555 symbol _l_b;
#X obj 1350 249 t b b b;
#X obj 1364 300 s \$0-dsp_on;
#X obj 1165 226 t b b b b;
#X obj 1212 343 s \$0-dsp_on;
#X obj 1394 13 s \$0-dsp_off;
#X obj 1380 -23 t b b b;
#X obj 2223 1134 r \$0-dsp_off;
#X obj 2272 1170 r \$0-dsp_on;
#X obj 2223 1216 print on-off;
#X obj 187 701 s \$0-buffer_ID, f 15;
#X obj 2363 834 r \$0-buffer_ID, f 15;
#X obj 178 555 symbol live_buffer_;
#X obj 187 618 pack s f;
#X msg 2465 898 1-;
#X obj 2506 849 lb;
#X obj 2321 960 pack s s;
#X msg 2363 898 0-;
#X obj 2423 964 pack s s;
#X obj 2469 934 symbol;
#X msg 2423 994 symbol \$2\$1;
#X msg 187 660 symbol \$1\$2;
#X msg 2321 994 symbol \$2\$1;
#X obj 2363 928 symbol;
#X obj -85 561 symbol _s_b;
#X obj 311 555 symbol sample_buffer_, f 22;
#X msg -222 297 clear \, add live_buffer sample_buffer;
#X obj 1885 1619 r \$0-send_target;
#X obj 1885 1664 t b a;
#X obj 1947 1749 symbol;
#X msg 1947 1708 \$1_record_head_vline;
#X obj 338 701 s \$0-record_head_id;
#N canvas 0 22 450 300 poke_write_processing 0;
#X obj 468 791 inlet~ vline;
#X obj 783 453 r \$0-rec_control_signal;
#X obj 485 286 r \$0-record_head_id;
#X obj 485 402 route live_buffer_;
#X obj 542 344 route sample_buffer_;
#X obj 309 471 print live_buffer_num;
#X obj 542 375 print sample_buffer_num;
#X msg 485 344 \$1 \$2;
#X obj 478 671 symbol;
#X obj 513 481 >= 10;
#X msg 478 555 localhost:2220\$1;
#X obj 478 510 router 2;
#X obj 510 639 symbol;
#X msg 510 594 localhost:222\$1;
#X obj 566 671 knob 50 0 1 0 0 empty \$1-live-buffer-in #E3DFD9 #968E82 #5A5A5A 1 0 0 0 1 270 0 0 0 empty empty 0 12 6 -15 0 1 0 0;
#X msg 773 527 0;
#X msg 804 527 1;
#X obj 485 438 route 0;
#X obj 783 603 switch~;
#X obj 783 563 tgl 25 0 empty empty empty 17 7 0 10 #e3dfd9 #5a5a5a #5a5a5a 0 1;
#X obj 620 833 numbox~ 8 15 100 #E3DFD9 #5A5A5A 10 0 0 0;
#X obj 620 876 expr~ $v1 >= ($f2 * 0.9);
#X obj 620 953 f;
#X text 985 953 current buffer size;
#X obj 620 910 edge~;
#X obj 620 979 expr $f1 * 2;
#X floatatom 795 980 14 0 0 0 - - - 12;
#X obj 795 954 array size 1-live_buffer_\$1, f 24;
#X obj 620 1115 pack s f;
#X msg 620 1086 1-live_buffer_\$1;
#X obj 620 1143 t b a;
#X msg 632 1189 \; \$1 resize \$2, f 27;
#X obj 494 953 bng 25 250 50 0 empty empty empty 17 7 0 10 #e3dfd9 #5a5a5a #5a5a5a;
#X obj 620 1008 t b b f;
#X msg 504 1086 0-live_buffer_\$1;
#X obj 504 1112 pack s f;
#X obj 384 739 pdlink~ audio-in-L;
#X obj 415 707 pdlink~ audio-in-R;
#X obj 384 775 *~;
#X obj 415 804 *~;
#X obj 795 889 r \$1-sample_rate_load;
#X obj 504 1038 f;
#X obj 620 1044 f;
#X obj 388 854 poke~, f 18;
#X obj 427 896 poke~;
#X obj 62 811 print poke_addy;
#X msg 119 716 set 0-live_buffer_\$1;
#X msg 243 749 set 1-live_buffer_\$1;
#X obj 1020 833 bng 25 250 50 0 empty empty empty 17 7 0 10 #e3dfd9 #5a5a5a #5a5a5a;
#X connect 0 0 20 0;
#X connect 0 0 43 1;
#X connect 0 0 44 1;
#X connect 1 0 15 0;
#X connect 1 0 16 0;
#X connect 2 0 4 0;
#X connect 2 0 7 0;
#X connect 3 0 17 0;
#X connect 3 0 42 1;
#X connect 3 0 41 1;
#X connect 3 0 46 0;
#X connect 3 0 47 0;
#X connect 4 0 6 0;
#X connect 7 0 3 0;
#X connect 7 0 5 0;
#X connect 8 0 36 1;
#X connect 9 0 11 1;
#X connect 10 0 8 0;
#X connect 11 0 10 0;
#X connect 11 1 13 0;
#X connect 12 0 37 1;
#X connect 13 0 12 0;
#X connect 14 0 39 1;
#X connect 14 0 38 1;
#X connect 15 0 19 0;
#X connect 16 0 19 0;
#X connect 17 1 11 0;
#X connect 17 1 9 0;
#X connect 19 0 18 0;
#X connect 20 0 21 0;
#X connect 21 0 24 0;
#X connect 22 0 25 0;
#X connect 24 0 22 0;
#X connect 25 0 33 0;
#X connect 26 0 21 1;
#X connect 26 0 22 1;
#X connect 27 0 26 0;
#X connect 28 0 30 0;
#X connect 29 0 28 0;
#X connect 30 0 27 0;
#X connect 30 1 31 0;
#X connect 32 0 22 0;
#X connect 33 0 42 0;
#X connect 33 1 41 0;
#X connect 33 2 28 1;
#X connect 33 2 35 1;
#X connect 34 0 35 0;
#X connect 35 0 31 0;
#X connect 36 0 38 0;
#X connect 37 0 39 0;
#X connect 38 0 43 0;
#X connect 39 0 44 0;
#X connect 40 0 27 0;
#X connect 41 0 34 0;
#X connect 42 0 29 0;
#X connect 46 0 45 0;
#X connect 46 0 44 0;
#X connect 47 0 43 0;
#X connect 48 0 27 0;
#X restore 2395 1416 pd poke_write_processing;
#X obj -1111 -636 route, f 6;
#X obj -1111 -667 r l_b_buffer_states;
#X obj -1111 -604 unpack f f f f f;
#X text -1297 -313 first_index;
#X obj -1076 -508 s \$0-first_index;
#X obj -1059 -537 s \$0-last_index;
#X obj -1094 -478 s \$0-sample-rate;
#X obj -1111 -447 s \$0-write_buffer_size, f 22;
#X obj -1040 -567 s \$0-buffer_content_flag;
#X obj -1297 -245 r \$0-first_index;
#X obj -1297 -212 f;
#X obj -665 -245 r \$0-buffer_content_flag;
#X obj 3326 337 r \$0-buffer_content_flag;
#X obj -818 -667 r l_b_buffer_resize, f 18;
#X obj -818 -630 route, f 6;
#X obj -818 -567 t b b b;
#X obj 1837 1566 s \$0-resume_sample_location;
#X obj 1837 1524 snapshot~;
#X obj 1837 1484 r \$0-resize_snapshot_bang;
#X obj -804 -508 s \$0-resize_snapshot_bang;
#X obj -818 -463 s \$0-resize_resume_bang;
#X obj 1675 63 r \$0-resize_resume_bang;
#X connect 0 0 3 0;
#X connect 0 0 165 0;
#X connect 1 0 0 0;
#X connect 2 0 3 1;
#X connect 2 0 166 1;
#X connect 3 0 4 0;
#X connect 4 0 155 0;
#X connect 5 0 69 0;
#X connect 5 0 89 0;
#X connect 5 0 132 0;
#X connect 5 0 249 0;
#X connect 5 0 349 0;
#X connect 5 0 141 0;
#X connect 5 0 454 0;
#X connect 5 0 63 0;
#X connect 5 0 566 0;
#X connect 5 0 633 0;
#X connect 6 0 5 0;
#X connect 6 0 566 1;
#X connect 8 0 247 0;
#X connect 9 0 13 0;
#X connect 12 0 14 0;
#X connect 13 0 15 0;
#X connect 14 0 16 0;
#X connect 15 0 532 0;
#X connect 16 0 531 0;
#X connect 17 0 18 0;
#X connect 19 0 20 0;
#X connect 19 0 81 0;
#X connect 20 0 21 0;
#X connect 21 0 17 0;
#X connect 24 0 34 0;
#X connect 25 0 36 0;
#X connect 27 0 28 0;
#X connect 28 0 70 0;
#X connect 28 0 67 0;
#X connect 28 0 30 0;
#X connect 29 0 25 1;
#X connect 31 0 84 0;
#X connect 31 0 114 0;
#X connect 32 0 70 0;
#X connect 34 0 604 0;
#X connect 34 1 25 0;
#X connect 36 0 72 0;
#X connect 36 1 409 0;
#X connect 36 1 411 0;
#X connect 36 1 602 0;
#X connect 37 0 67 0;
#X connect 38 0 30 0;
#X connect 39 0 57 1;
#X connect 39 0 541 0;
#X connect 40 0 49 1;
#X connect 41 0 58 1;
#X connect 41 0 540 0;
#X connect 42 0 43 1;
#X connect 43 0 539 0;
#X connect 44 0 39 1;
#X connect 45 0 41 1;
#X connect 46 0 47 1;
#X connect 47 0 410 0;
#X connect 48 0 44 1;
#X connect 48 0 45 2;
#X connect 49 0 44 2;
#X connect 49 0 45 1;
#X connect 50 1 64 0;
#X connect 50 1 44 0;
#X connect 50 1 45 0;
#X connect 51 0 56 0;
#X connect 53 0 54 1;
#X connect 54 0 538 0;
#X connect 55 0 481 0;
#X connect 56 0 57 0;
#X connect 56 1 58 0;
#X connect 56 2 55 2;
#X connect 57 0 55 0;
#X connect 58 0 55 1;
#X connect 58 0 61 0;
#X connect 59 0 50 0;
#X connect 61 0 62 0;
#X connect 65 0 285 0;
#X connect 66 0 77 0;
#X connect 68 0 29 0;
#X connect 69 0 71 0;
#X connect 70 0 31 1;
#X connect 72 0 73 0;
#X connect 72 1 31 0;
#X connect 72 2 106 0;
#X connect 73 0 30 0;
#X connect 74 0 30 0;
#X connect 75 0 91 0;
#X connect 76 0 28 0;
#X connect 76 0 607 0;
#X connect 77 0 24 1;
#X connect 81 0 8 0;
#X connect 84 0 105 0;
#X connect 85 0 86 0;
#X connect 86 0 87 1;
#X connect 87 0 88 0;
#X connect 88 1 175 0;
#X connect 89 0 90 0;
#X connect 90 0 100 0;
#X connect 95 0 41 0;
#X connect 96 0 43 0;
#X connect 97 0 54 0;
#X connect 98 0 47 0;
#X connect 99 0 39 0;
#X connect 101 0 309 0;
#X connect 103 0 379 0;
#X connect 104 0 5 0;
#X connect 107 0 69 0;
#X connect 109 0 89 0;
#X connect 111 0 284 0;
#X connect 113 0 285 0;
#X connect 115 0 75 1;
#X connect 117 0 118 0;
#X connect 117 1 119 0;
#X connect 117 2 122 0;
#X connect 117 3 120 0;
#X connect 117 4 121 0;
#X connect 118 0 211 1;
#X connect 118 0 212 1;
#X connect 118 0 314 0;
#X connect 119 0 211 1;
#X connect 119 0 212 1;
#X connect 119 0 314 0;
#X connect 120 0 211 1;
#X connect 120 0 212 1;
#X connect 120 0 314 0;
#X connect 121 0 211 1;
#X connect 121 0 212 1;
#X connect 121 0 314 0;
#X connect 122 0 211 1;
#X connect 122 0 212 1;
#X connect 122 0 314 0;
#X connect 123 0 213 0;
#X connect 125 0 21 0;
#X connect 126 0 127 0;
#X connect 127 0 128 1;
#X connect 128 0 129 0;
#X connect 129 1 179 0;
#X connect 131 0 132 0;
#X connect 132 0 133 0;
#X connect 133 0 134 0;
#X connect 135 0 286 0;
#X connect 136 0 128 0;
#X connect 136 1 123 0;
#X connect 138 0 139 0;
#X connect 139 0 137 0;
#X connect 140 0 136 0;
#X connect 142 0 145 0;
#X connect 144 0 452 0;
#X connect 145 0 144 0;
#X connect 146 0 413 0;
#X connect 147 0 145 0;
#X connect 149 0 144 0;
#X connect 150 0 148 0;
#X connect 151 0 152 0;
#X connect 152 0 153 1;
#X connect 153 0 154 0;
#X connect 154 0 156 0;
#X connect 154 1 171 0;
#X connect 155 0 166 0;
#X connect 155 0 163 1;
#X connect 155 1 153 0;
#X connect 157 0 380 0;
#X connect 158 0 24 0;
#X connect 159 0 81 0;
#X connect 160 0 161 1;
#X connect 161 0 164 0;
#X connect 162 0 160 0;
#X connect 163 0 170 0;
#X connect 164 0 163 0;
#X connect 165 0 161 0;
#X connect 166 0 163 2;
#X connect 169 0 286 0;
#X connect 171 0 172 0;
#X connect 173 0 29 0;
#X connect 174 0 175 1;
#X connect 175 0 176 0;
#X connect 176 0 108 0;
#X connect 177 0 174 0;
#X connect 178 0 179 1;
#X connect 179 0 180 0;
#X connect 180 0 130 0;
#X connect 181 0 178 0;
#X connect 188 0 190 0;
#X connect 189 0 200 0;
#X connect 190 0 191 0;
#X connect 191 0 198 1;
#X connect 193 0 198 2;
#X connect 195 0 196 0;
#X connect 196 0 193 0;
#X connect 197 0 202 0;
#X connect 197 1 220 0;
#X connect 197 1 204 0;
#X connect 198 0 199 0;
#X connect 199 0 201 0;
#X connect 200 0 198 0;
#X connect 200 0 210 1;
#X connect 200 1 191 0;
#X connect 200 2 193 0;
#X connect 201 0 197 0;
#X connect 201 1 204 0;
#X connect 202 0 242 0;
#X connect 202 0 241 0;
#X connect 203 0 202 1;
#X connect 204 0 202 0;
#X connect 205 0 189 0;
#X connect 205 1 206 0;
#X connect 206 0 204 0;
#X connect 208 0 128 0;
#X connect 209 0 207 0;
#X connect 210 0 124 0;
#X connect 211 0 205 0;
#X connect 211 0 279 0;
#X connect 212 0 279 0;
#X connect 212 0 124 0;
#X connect 213 0 215 0;
#X connect 213 1 117 0;
#X connect 214 0 212 0;
#X connect 214 1 211 0;
#X connect 215 0 214 0;
#X connect 216 0 215 1;
#X connect 217 0 222 0;
#X connect 218 0 219 0;
#X connect 219 0 217 0;
#X connect 220 0 207 0;
#X connect 220 1 210 0;
#X connect 221 0 203 0;
#X connect 222 0 238 0;
#X connect 223 0 228 0;
#X connect 224 0 229 0;
#X connect 233 0 236 0;
#X connect 234 0 235 0;
#X connect 235 0 233 0;
#X connect 236 0 237 0;
#X connect 239 0 216 0;
#X connect 240 0 202 1;
#X connect 241 0 209 0;
#X connect 242 0 124 0;
#X connect 245 0 246 0;
#X connect 246 0 47 1;
#X connect 247 0 248 0;
#X connect 247 1 7 0;
#X connect 249 0 250 0;
#X connect 250 0 252 0;
#X connect 251 0 249 0;
#X connect 254 0 255 0;
#X connect 255 0 280 0;
#X connect 257 0 311 2;
#X connect 259 0 260 0;
#X connect 260 0 257 0;
#X connect 261 0 262 0;
#X connect 261 1 299 0;
#X connect 261 1 317 0;
#X connect 262 0 267 0;
#X connect 262 0 266 0;
#X connect 263 0 262 1;
#X connect 264 0 395 0;
#X connect 265 0 263 0;
#X connect 266 0 264 0;
#X connect 267 0 253 0;
#X connect 268 0 269 1;
#X connect 269 0 307 0;
#X connect 270 0 272 0;
#X connect 271 0 311 1;
#X connect 271 0 293 1;
#X connect 272 0 269 0;
#X connect 272 1 389 0;
#X connect 275 0 277 0;
#X connect 276 0 275 0;
#X connect 278 0 276 0;
#X connect 280 0 271 1;
#X connect 281 0 292 0;
#X connect 284 0 75 0;
#X connect 284 2 282 0;
#X connect 284 3 283 0;
#X connect 284 5 93 0;
#X connect 284 6 94 0;
#X connect 285 0 91 0;
#X connect 285 1 92 0;
#X connect 285 2 282 0;
#X connect 285 3 283 0;
#X connect 285 5 93 0;
#X connect 285 6 94 0;
#X connect 286 0 91 0;
#X connect 286 1 92 0;
#X connect 286 2 282 0;
#X connect 286 3 283 0;
#X connect 286 5 93 0;
#X connect 286 6 94 0;
#X connect 287 0 48 0;
#X connect 288 0 49 0;
#X connect 289 0 290 0;
#X connect 290 0 291 0;
#X connect 290 1 92 0;
#X connect 290 2 282 0;
#X connect 290 3 283 0;
#X connect 290 5 93 0;
#X connect 290 6 94 0;
#X connect 291 0 91 0;
#X connect 292 0 91 0;
#X connect 292 1 92 0;
#X connect 292 2 93 0;
#X connect 292 3 94 0;
#X connect 292 4 282 0;
#X connect 292 5 283 0;
#X connect 293 0 295 0;
#X connect 295 0 297 0;
#X connect 295 1 294 0;
#X connect 295 2 296 0;
#X connect 298 0 310 0;
#X connect 298 1 293 0;
#X connect 298 2 299 0;
#X connect 299 0 262 1;
#X connect 300 0 299 0;
#X connect 302 0 303 1;
#X connect 303 0 304 0;
#X connect 304 0 412 0;
#X connect 304 1 306 0;
#X connect 305 0 302 0;
#X connect 306 0 311 0;
#X connect 307 0 403 0;
#X connect 307 1 306 1;
#X connect 307 2 300 0;
#X connect 307 3 271 0;
#X connect 307 4 257 0;
#X connect 309 0 91 0;
#X connect 309 1 92 0;
#X connect 309 2 283 0;
#X connect 309 3 282 0;
#X connect 309 4 93 0;
#X connect 309 5 94 0;
#X connect 310 0 261 0;
#X connect 311 0 298 0;
#X connect 312 0 311 3;
#X connect 313 0 312 0;
#X connect 315 0 313 0;
#X connect 315 0 317 1;
#X connect 317 0 399 0;
#X connect 318 0 320 0;
#X connect 321 0 322 0;
#X connect 325 0 326 0;
#X connect 326 0 341 1;
#X connect 328 0 356 2;
#X connect 330 0 331 0;
#X connect 331 0 328 0;
#X connect 332 0 333 0;
#X connect 332 1 344 0;
#X connect 332 1 386 0;
#X connect 333 0 338 0;
#X connect 333 0 337 0;
#X connect 334 0 333 1;
#X connect 335 0 372 0;
#X connect 336 0 334 0;
#X connect 337 0 335 0;
#X connect 338 0 324 0;
#X connect 339 0 340 1;
#X connect 340 0 363 0;
#X connect 341 0 356 1;
#X connect 342 0 340 0;
#X connect 342 1 353 0;
#X connect 343 0 355 0;
#X connect 343 2 344 0;
#X connect 344 0 333 1;
#X connect 345 0 344 0;
#X connect 346 0 348 1;
#X connect 348 0 347 0;
#X connect 349 0 350 0;
#X connect 350 0 352 0;
#X connect 351 0 349 0;
#X connect 354 0 292 0;
#X connect 355 0 332 0;
#X connect 356 0 343 0;
#X connect 357 0 383 0;
#X connect 358 0 359 0;
#X connect 359 0 360 0;
#X connect 360 0 361 0;
#X connect 362 0 5 0;
#X connect 363 0 356 0;
#X connect 363 1 345 0;
#X connect 363 2 341 0;
#X connect 363 3 328 0;
#X connect 364 0 385 0;
#X connect 364 1 342 0;
#X connect 365 0 364 0;
#X connect 366 0 367 0;
#X connect 368 0 369 0;
#X connect 373 0 374 0;
#X connect 374 0 147 0;
#X connect 376 0 377 0;
#X connect 377 0 379 1;
#X connect 378 0 385 0;
#X connect 378 1 365 0;
#X connect 379 0 378 0;
#X connect 380 0 28 0;
#X connect 380 1 607 0;
#X connect 381 0 382 0;
#X connect 383 0 358 1;
#X connect 384 0 361 0;
#X connect 385 0 375 0;
#X connect 385 1 416 0;
#X connect 385 2 384 0;
#X connect 386 0 385 0;
#X connect 386 2 348 0;
#X connect 387 0 388 0;
#X connect 388 0 389 1;
#X connect 389 0 390 0;
#X connect 390 1 392 0;
#X connect 391 0 392 1;
#X connect 392 0 393 0;
#X connect 393 0 398 0;
#X connect 394 0 391 0;
#X connect 396 0 389 0;
#X connect 399 0 400 0;
#X connect 399 1 316 0;
#X connect 401 0 402 0;
#X connect 402 0 403 1;
#X connect 403 0 404 0;
#X connect 404 1 406 0;
#X connect 405 0 406 1;
#X connect 406 0 407 0;
#X connect 407 0 303 0;
#X connect 408 0 405 0;
#X connect 410 0 59 0;
#X connect 412 0 397 0;
#X connect 412 1 308 0;
#X connect 413 0 414 0;
#X connect 414 1 147 0;
#X connect 416 0 361 0;
#X connect 417 0 418 0;
#X connect 418 0 283 0;
#X connect 418 0 282 0;
#X connect 418 0 94 0;
#X connect 418 0 93 0;
#X connect 418 0 92 0;
#X connect 419 0 420 0;
#X connect 420 0 44 0;
#X connect 420 0 45 0;
#X connect 421 0 422 0;
#X connect 422 0 435 0;
#X connect 423 0 433 0;
#X connect 424 0 537 0;
#X connect 425 0 536 0;
#X connect 426 0 423 0;
#X connect 428 0 430 0;
#X connect 429 0 428 0;
#X connect 431 0 535 0;
#X connect 432 0 429 0;
#X connect 433 0 427 0;
#X connect 434 0 421 0;
#X connect 437 0 11 0;
#X connect 438 0 439 1;
#X connect 439 0 437 0;
#X connect 440 0 441 1;
#X connect 441 0 530 0;
#X connect 442 0 445 0;
#X connect 443 0 2 0;
#X connect 444 0 446 0;
#X connect 445 0 447 1;
#X connect 446 0 448 1;
#X connect 447 0 449 1;
#X connect 448 0 449 2;
#X connect 449 0 529 0;
#X connect 450 0 459 0;
#X connect 453 0 144 2;
#X connect 454 0 483 0;
#X connect 454 0 486 0;
#X connect 454 0 545 0;
#X connect 454 0 549 0;
#X connect 459 0 449 0;
#X connect 461 0 462 0;
#X connect 462 0 463 0;
#X connect 463 0 464 0;
#X connect 465 0 466 0;
#X connect 466 0 467 0;
#X connect 467 0 468 0;
#X connect 469 0 470 0;
#X connect 470 0 462 0;
#X connect 470 0 466 0;
#X connect 472 0 473 0;
#X connect 473 0 474 1;
#X connect 474 0 475 0;
#X connect 475 0 477 0;
#X connect 475 1 477 0;
#X connect 476 0 477 1;
#X connect 477 0 478 0;
#X connect 478 0 555 0;
#X connect 479 0 476 0;
#X connect 482 0 523 1;
#X connect 483 0 484 0;
#X connect 484 0 485 1;
#X connect 485 0 592 0;
#X connect 486 0 487 0;
#X connect 487 0 488 1;
#X connect 488 0 595 0;
#X connect 490 0 498 0;
#X connect 492 0 493 1;
#X connect 493 0 494 0;
#X connect 494 0 474 0;
#X connect 494 1 520 0;
#X connect 496 0 492 0;
#X connect 497 0 498 1;
#X connect 498 0 499 0;
#X connect 499 0 493 0;
#X connect 499 1 501 0;
#X connect 500 0 501 1;
#X connect 501 0 502 0;
#X connect 503 0 500 0;
#X connect 505 0 506 0;
#X connect 507 0 534 0;
#X connect 508 0 495 0;
#X connect 509 0 554 0;
#X connect 513 0 514 0;
#X connect 514 0 515 0;
#X connect 515 0 527 0;
#X connect 515 0 528 0;
#X connect 517 0 516 0;
#X connect 519 0 518 0;
#X connect 520 1 599 0;
#X connect 520 2 505 0;
#X connect 520 3 485 0;
#X connect 520 4 488 0;
#X connect 520 5 527 2;
#X connect 520 5 528 1;
#X connect 520 6 522 0;
#X connect 520 7 521 0;
#X connect 520 8 559 0;
#X connect 520 9 560 0;
#X connect 521 0 516 0;
#X connect 521 0 495 0;
#X connect 522 0 518 0;
#X connect 523 0 6 0;
#X connect 524 0 523 0;
#X connect 525 0 526 0;
#X connect 526 0 524 0;
#X connect 527 0 483 0;
#X connect 528 0 544 0;
#X connect 529 0 451 0;
#X connect 530 0 52 0;
#X connect 531 0 23 0;
#X connect 532 0 22 0;
#X connect 533 0 10 0;
#X connect 535 0 51 6;
#X connect 536 0 51 5;
#X connect 537 0 51 4;
#X connect 538 0 51 3;
#X connect 539 0 51 2;
#X connect 540 0 51 1;
#X connect 541 0 51 0;
#X connect 543 0 283 0;
#X connect 543 0 94 0;
#X connect 543 0 93 0;
#X connect 543 0 92 0;
#X connect 543 0 282 0;
#X connect 543 0 91 0;
#X connect 544 0 548 0;
#X connect 544 1 545 0;
#X connect 545 0 546 0;
#X connect 546 0 547 0;
#X connect 547 0 550 1;
#X connect 547 0 548 1;
#X connect 548 0 486 0;
#X connect 549 0 550 0;
#X connect 550 0 551 0;
#X connect 551 0 547 0;
#X connect 551 1 486 0;
#X connect 552 0 48 1;
#X connect 554 2 553 0;
#X connect 555 0 508 0;
#X connect 555 1 528 2;
#X connect 555 1 527 1;
#X connect 555 2 491 0;
#X connect 555 3 519 0;
#X connect 555 4 517 0;
#X connect 555 5 542 0;
#X connect 555 6 556 0;
#X connect 557 0 144 1;
#X connect 558 0 5 0;
#X connect 559 0 512 0;
#X connect 562 0 564 1;
#X connect 562 0 614 1;
#X connect 563 0 613 0;
#X connect 563 0 601 0;
#X connect 563 1 625 0;
#X connect 563 1 626 0;
#X connect 564 0 586 0;
#X connect 567 0 566 2;
#X connect 568 0 566 2;
#X connect 569 0 562 0;
#X connect 569 0 634 1;
#X connect 569 0 648 1;
#X connect 570 0 574 0;
#X connect 571 0 574 0;
#X connect 573 0 569 0;
#X connect 574 0 561 0;
#X connect 574 0 576 0;
#X connect 574 1 627 0;
#X connect 574 1 573 0;
#X connect 574 2 572 0;
#X connect 575 0 563 0;
#X connect 577 0 583 0;
#X connect 578 0 579 0;
#X connect 579 0 577 1;
#X connect 580 0 577 0;
#X connect 581 0 575 0;
#X connect 582 0 569 0;
#X connect 583 0 581 0;
#X connect 583 1 582 0;
#X connect 584 0 585 0;
#X connect 585 0 589 0;
#X connect 585 1 587 0;
#X connect 586 0 565 0;
#X connect 587 0 588 0;
#X connect 588 0 589 1;
#X connect 590 0 593 0;
#X connect 590 0 596 0;
#X connect 591 0 592 1;
#X connect 593 0 591 0;
#X connect 594 0 595 1;
#X connect 596 0 594 0;
#X connect 597 0 600 0;
#X connect 598 0 599 1;
#X connect 600 0 598 0;
#X connect 601 0 564 0;
#X connect 602 0 110 0;
#X connect 602 1 603 0;
#X connect 602 2 74 0;
#X connect 604 0 112 0;
#X connect 604 1 38 0;
#X connect 604 2 37 0;
#X connect 604 2 409 0;
#X connect 604 3 605 0;
#X connect 607 0 150 0;
#X connect 607 1 606 0;
#X connect 607 2 102 0;
#X connect 608 0 568 0;
#X connect 608 0 610 0;
#X connect 609 0 567 0;
#X connect 609 0 610 0;
#X connect 612 0 619 0;
#X connect 612 0 617 0;
#X connect 613 0 614 0;
#X connect 614 0 622 0;
#X connect 614 0 632 0;
#X connect 615 0 620 0;
#X connect 616 0 615 0;
#X connect 616 0 618 0;
#X connect 617 0 623 0;
#X connect 618 0 624 0;
#X connect 619 0 621 0;
#X connect 620 0 619 1;
#X connect 621 0 566 4;
#X connect 622 0 611 0;
#X connect 623 0 566 3;
#X connect 624 0 617 1;
#X connect 625 0 564 0;
#X connect 626 0 614 0;
#X connect 627 0 575 0;
#X connect 628 0 629 0;
#X connect 629 1 631 0;
#X connect 631 0 630 0;
#X connect 634 0 636 0;
#X connect 635 0 634 0;
#X connect 636 0 641 0;
#X connect 636 1 640 0;
#X connect 636 2 638 0;
#X connect 636 3 639 0;
#X connect 636 4 642 0;
#X connect 643 0 644 1;
#X connect 644 0 533 0;
#X connect 645 0 507 0;
#X connect 646 0 497 0;
#X connect 647 0 648 0;
#X connect 648 0 649 0;
#X connect 649 0 654 0;
#X connect 649 1 653 0;
#X connect 649 2 439 0;
#X connect 651 0 650 0;
#X connect 652 0 651 0;
#X connect 655 0 284 0;
