#N canvas 827 239 734 565 12;
#N canvas 0 0 450 250 (subpatch) 0;
#X array 0-sample_buffer_\$1 364966 float 2;
#X coords 0 1 364966 -1 200 140 1;
#X restore 537 63 graph;
#N canvas 0 0 450 250 (subpatch) 0;
#X array 1-sample_buffer_\$1 364966 float 2;
#X coords 0 1 364966 -1 200 140 1;
#X restore 537 223 graph;
#X obj 108 320 soundfiler;
#X obj 107 89 openpanel;
#X floatatom 108 357 8 0 0 0 - - - 12;
#X floatatom 200 364 6 0 0 0 - - - 12;
#X obj 200 332 unpack f f f f;
#X obj 169 478 / 16;
#X floatatom 169 508 6 0 0 0 - - - 16;
#X obj 201 391 / 1000;
#X obj 108 283 prepend read -resize;
#X obj 107 115 list trim;
#X obj 107 243 pack s s s;
#X obj 107 145 t a b b;
#X obj 107 42 bng 25 250 50 0 empty \$1-sample-load empty 17 7 0 10 #333333 #e5e5e5 #111111;
#X msg -47 486 0;
#X obj 148 187 symbol 0-sample_buffer_\$1;
#X obj 129 216 symbol 1-sample_buffer_\$1;
#X obj -63 726 s s_b_buffer_states;
#X obj -300 545 f;
#X text -333 501 sample rate;
#X obj -33 545 f;
#X text -127 536 first index;
#X obj 9 537 f;
#X text 2 509 last index;
#X obj 90 559 f;
#X text 71 531 sample slice size;
#X obj -436 528 f \$1;
#X obj 108 391 t b b f b;
#X obj -63 656 pack f f f f f f;
#X msg 292 529 1;
#X connect 2 0 4 0;
#X connect 2 1 6 0;
#X connect 3 0 11 0;
#X connect 4 0 28 0;
#X connect 5 0 9 0;
#X connect 6 0 5 0;
#X connect 7 0 8 0;
#X connect 8 0 25 0;
#X connect 9 0 19 0;
#X connect 10 0 2 0;
#X connect 11 0 13 0;
#X connect 12 0 10 0;
#X connect 13 0 12 0 32.................n..........J.........7D....;
#X connect 13 1 17 0 32.................Z....f....fF....H....PC....;
#X connect 13 2 16 0 32.................L....v.....C....L....bA....;
#X connect 14 0 3 0;
#X connect 15 0 21 0;
#X connect 16 0 12 2;
#X connect 17 0 12 1;
#X connect 19 0 29 2;
#X connect 21 0 29 4;
#X connect 23 0 29 5;
#X connect 25 0 29 3;
#X connect 27 0 29 0;
#X connect 28 0 27 0;
#X connect 28 1 15 0;
#X connect 28 2 23 0;
#X connect 28 2 7 0;
#X connect 28 3 30 0;
#X connect 29 0 18 0;
#X connect 30 0 29 1;
