#N canvas 827 239 734 564 12;
#X floatatom 1891 658 5 0 0 0 - - - 12;
#X obj 1891 626 r row_\$1;
#X obj 1979 626 r \$1-slice_size_val;
#X floatatom 1979 658 7 0 0 0 - - - 12;
#X obj 1930 706 *;
#X floatatom 1930 738 8 0 0 0 - - - 12;
#X obj -848 37 r \$1_file_abs_start;
#X floatatom -848 76 5 0 0 0 - - - 12;
#X obj -676 37 r \$1_file_abs_end;
#X floatatom -676 79 9 0 0 0 - - - 12;
#X obj 1457 635 inlet sample-selection;
#X obj 1457 665 t f f;
#X obj 1558 758 prepend set;
#X obj 1252 849 tabread4~;
#X obj 1457 758 prepend set;
#X obj 1171 849 tabread4~;
#X obj 1457 695 sprintf sample%d_L;
#X obj 1468 726 sprintf sample%d_R;
#X obj 1184 717 vline~;
#X msg 1213 666 \$1 \, \$2 \$3;
#X obj -496 117 s \$0-playback_direction;
#X floatatom -496 57 5 0 0 0 - - - 12;
#X obj -848 161 r \$0-set_active_loop_start;
#X obj -848 117 s \$0-set_active_loop_start;
#X obj -676 117 s \$0-set_active_loop_end;
#X obj -676 161 r \$0-set_active_loop_end;
#X floatatom -848 190 5 0 0 0 - - - 12;
#X floatatom -676 190 9 0 0 0 - - - 12;
#X obj -496 161 r \$1-sample_rate_val;
#X floatatom -496 190 5 0 0 0 - - - 12;
#X obj -496 223 f;
#X obj -848 223 f;
#X obj -676 223 f;
#X obj -333 84 f;
#X obj -333 117 s \$0-rate_multiplier;
#X obj -401 -45 lb;
#X msg -333 20 1;
#X obj -496 88 f;
#X floatatom -333 55 5 0 0 0 - - - 16;
#X obj -848 257 s \$0-loop_start;
#X obj -676 257 s \$0-loop_end;
#X obj 916 10 f;
#X obj 1033 21 f;
#X obj 272 -215 bng 25 250 50 0 \$0-play_button \$0-press_play empty 17 7 0 10 #e3dfd9 #5a5a5a #5a5a5a;
#X obj 997 -72 lb;
#X msg 994 -33 0;
#X floatatom 1044 -29 5 0 0 0 - - - 12;
#X obj 1028 222 s \$0-is_paused_flag;
#X obj 1237 119 f;
#X obj 1237 14 r \$0-pause_position;
#X text 841 13 is playing;
#X obj 916 47 sel 0 1;
#X text 1076 13 is paused;
#X obj 1033 83 sel 0 1;
#X msg 950 138 1;
#X msg 989 138 0;
#X obj 277 665 r \$0-loop start;
#X obj 248 804 f;
#X obj 414 665 r \$0-loop_end;
#X obj 382 795 f;
#X obj 526 665 r \$0-rate_multiplier;
#X obj 515 708 f;
#X obj 248 735 switch;
#X obj 382 735 switch;
#X obj 93 476 r \$0-playback_direction;
#X obj 154 571 f;
#X obj 266 699 f;
#X obj 414 699 f;
#X obj 155 646 t b f;
#N canvas 0 22 450 300 calc_duration 0;
#X obj 228 132 inlet start_pos;
#X obj 364 132 inlet target_pos;
#X obj 503 132 inlet rate_mult;
#X obj 619 132 inlet sr_khz;
#X obj 228 214 expr abs($f2-$f1);
#X obj 228 166 f;
#X obj 364 166 f;
#X obj 503 166 f;
#X obj 619 166 f;
#X obj 266 377 outlet duration_ms;
#X floatatom 228 253 5 0 0 0 - - - 12;
#X text 125 252 delta_samples;
#X obj 503 214 expr $f2 * $f1;
#X floatatom 503 253 5 0 0 0 - - - 12;
#X text 555 252 samples_per_ms;
#X obj 266 324 expr if($f2 == 0\\\, 99999999.0\\\, $f1 / $f2);
#X connect 0 0 5 0;
#X connect 1 0 6 0;
#X connect 2 0 7 0;
#X connect 3 0 8 0;
#X connect 4 0 10 0;
#X connect 5 0 4 0;
#X connect 6 0 4 1;
#X connect 7 0 12 0;
#X connect 8 0 12 1;
#X connect 10 0 15 0;
#X connect 12 0 13 0;
#X connect 13 0 15 1;
#X connect 15 0 9 0;
#X restore 366 826 pd calc_duration;
#X obj -496 257 s \$0-rate_khz;
#X obj 667 665 r \$0-rate_khz;
#X obj 592 708 f;
#X obj 237 959 pack f f f;
#X obj 366 861 t b b f;
#X obj 237 923 f;
#X obj 288 923 f;
#X obj 1171 922 s~ 1-voice-audio-L;
#X obj 1252 889 s~ 1-voice-audio-R;
#X obj 155 609 + 1;
#N canvas 733 172 450 300 loop_logic 0;
#X obj 655 634 r~ \$0-vline_output_sig;
#X obj 888 822 edge~;
#X obj 888 852 s \$0_loop_hit_bang;
#X obj 865 634 r~ \$0_target_for_expr_sig;
#X text 661 608 v_out;
#X text 865 608 v_tarrget;
#X obj 708 695 >=~;
#X text 592 694 fwd_comp_result;
#X text 1113 680 is_fwd_sig;
#X obj 1080 634 sig~;
#X obj 1053 687 ==~ 0;
#X obj 738 763 *~;
#X text 592 762 final_fwd_trigger_sig;
#X obj 810 695 <=~, f 5;
#X text 865 694 rev_comp_result;
#X obj 1206 687 ==~ 1;
#X text 1245 708 is_rev_sig;
#X obj 945 755 *~;
#X text 1014 754 final_rev_trigger_sig;
#X obj 888 786 +~;
#X obj 1080 526 r \$0_direction_for_expr_sig;
#X obj 655 899 number~;
#A saved 0 0 100 -inf inf #2a3434 #ffffff #b6fefd;
#X obj 865 899 number~;
#A saved 0 0 100 -inf inf #2a3434 #ffffff #b6fefd;
#X obj 1053 899 number~;
#A saved 0 0 100 -inf inf #2a3434 #ffffff #b6fefd;
#X obj 1081 584 - 1;
#X connect 0 0 6 0;
#X connect 0 0 13 0;
#X connect 0 0 21 0;
#X connect 1 0 2 0;
#X connect 3 0 6 1;
#X connect 3 0 13 1;
#X connect 3 0 22 0;
#X connect 6 0 11 0;
#X connect 9 0 10 0;
#X connect 9 0 15 0;
#X connect 9 0 23 0;
#X connect 10 0 11 1;
#X connect 11 0 19 0;
#X connect 13 0 17 0;
#X connect 15 0 17 1;
#X connect 17 0 19 1;
#X connect 19 0 1 0;
#X connect 20 0 24 0;
#X connect 24 0 9 0;
#X restore 826 571 pd loop_logic;
#X obj 307 959 sig~;
#X obj 307 993 s~ \$0_target_for_expr_sig;
#X obj 1364 849 s~ \$0-vline_output_sig;
#X obj 296 610 s \$0_direction_for_expr_sig;
#X obj 1657 264 r \$0_loop_hit_bang;
#X obj 769 -72 r \$0-is_playing_flag;
#X obj 947 260 s \$0-is_playing_flag;
#X obj 1044 -59 r \$0-is_paused_flag;
#X obj 1076 849 snapshot~;
#X floatatom 1239 60 10 0 0 0 - - - 12;
#X obj 1076 889 s \$0-pause_position;
#X msg 1204 -142 stop;
#X obj 918 83 t b b b;
#X obj 1033 119 t b b b;
#X msg 1036 164 1;
#X obj 1103 119 t b b;
#X msg 1119 182 0;
#X obj 1544 323 t b b b b b;
#X obj 1531 376 f;
#X obj 980 563 number~;
#A saved 0 0 100 -inf inf #2a3434 #ffffff #b6fefd;
#X obj 1133 -209 r \$1_sample_swap_bang;
#X floatatom 924 -29 5 0 0 0 - - - 12;
#X obj 350 -215 bng 25 250 50 0 \$0-stop_button empty empty 17 7 0 10 #e3dfd9 #5a5a5a #5a5a5a;
#X text 249 -251 Play/Pause;
#X text 342 -251 stop;
#X obj -432 20 count 1;
#X obj 436 -215 bng 25 250 50 0 \$0-dir-change empty empty 17 7 0 10 #e3dfd9 #5a5a5a #5a5a5a;
#X text 394 -251 Direction Change;
#X msg 1220 200 \$1 0;
#X obj 262 335 r \$0-is_playing_flag;
#X floatatom 269 378 5 0 0 0 - - - 12;
#X obj 269 414 f;
#X obj 203 378 bang;
#X obj 262 457 sel 0 1;
#X obj 970 849 snapshot~;
#X floatatom 970 885 10 0 0 0 - - - 12;
#X obj 1824 333 t f b b b b;
#X obj 1531 439 s \$0-jump_to_pos;
#X obj 1657 439 s \$0-loop-end-pos;
#X obj 1982 439 s \$0-rate-multiplyer-trigger;
#X obj 2169 439 s \$0-rate_khz_trigger;
#X obj 366 763 r \$0-loop-end-pos;
#X obj 533 633 r \$0-rate-multiplyer-trigger;
#X obj 667 633 r \$0-rate_khz_trigger;
#X obj 1797 439 s \$0-direction_swap_trigger;
#X obj 154 517 r \$0-direction_swap_trigger;
#X obj 119 735 r \$0-jump_to_pos;
#X obj 970 935 s \$0-direction-change-pos;
#X obj 1824 283 r \$0-direction-change-pos;
#X obj 1657 323 t b b b b b;
#X obj 237 1036 s \$0-vline-message;
#X obj 1213 627 r \$0-vline-message;
#X obj 1194 -99 s \$0-stop_message, f 18;
#X obj 1200 531 r \$0-stop_message;
#X obj 1150 575 r \$0-pause_sample_number;
#X obj 1134 260 s \$0-pause_sample_number;
#X obj 1062 292 s \$0-pause_snapshot_bang;
#X obj 1076 758 r \$0-pause_snapshot_bang;
#X obj 340 579 s \$0-playback_dir_snapshot;
#X obj 970 796 r \$0-playback_dir_snapshot;
#X obj 1103 153 s \$0-resume_bang;
#X obj 1544 275 r \$0-resume_bang;
#X obj 901 292 s \$0-play_button_bang;
#X obj 1630 210 r \$0-play_button_bang;
#X obj 1261 292 s \$0-resume_sample_location;
#X obj 1497 162 r \$0-resume_sample_location;
#X text 131 -225 playback speed;
#X obj -786 669 sel 1 2 3 4 5;
#X msg -879 750 0.25, f 5;
#X msg -824 750 0.5, f 5;
#X msg -721 750 2, f 5;
#X msg -674 750 4, f 5;
#X msg -774 750 1, f 5;
#X obj -785 579 + 1;
#X obj -779 1438 s \$0-selected_rate;
#X obj -286 -21 r \$0-selected_rate;
#X obj -575 507 r \$0-is_playing_flag;
#X floatatom -575 545 5 0 0 0 - - - 12;
#X obj -575 581 f;
#X obj -575 629 sel 0 1;
#X obj -503 712 s \$0-playback_speed_snapshot;
#X obj 774 796 r \$0-playback_speed_snapshot;
#X obj 774 849 snapshot~;
#X floatatom 774 885 10 0 0 0 - - - 12;
#X obj 774 935 s \$0-speed_change_pos;
#X obj 2034 283 r \$0-speed_change_pos;
#X obj -785 545 t b f;
#X obj 76 -179 hradio 20 1 1 5 \$0-playback_speed_dial empty empty 0 -8 0 10 #e3dfd9 #5a5a5a #5a5a5a 3;
#X obj 78 -262 lb;
#X msg 78 -231 2;
#X obj -785 507 r \$0-playback_speed_dial;
#X obj 980 666 s~ \$0-playhead_pos;
#X obj -171 567 r~ \$0-playhead_pos;
#X obj 263 -179 hsl 235 19 0 1 0 0 empty \$0-playbar_data empty -2 -8 0 10 #e3dfd9 #5a5a5a #5a5a5a 0 1;
#X obj -171 668 scale 0 \$1 0 1;
#X obj -171 613 snapshot~;
#X obj -74 613 r \$1_file_abs_end;
#X obj -295 493 r \$0-is_playing_flag;
#X obj -295 533 metro 20;
#X obj 1044 -99 s \$0-playhead_reset;
#X obj -221 524 r \$0-playhead_reset;
#X msg 1093 -138 0;
#X obj 1133 -166 t b b;
#X obj -171 710 s \$0-playbar_data;
#X obj 2068 691 r \$0-is_playing_flag;
#X floatatom 2068 737 5 0 0 0 - - - 12;
#X obj 2068 773 f;
#X obj 2068 813 sel 0 1;
#X obj 1930 768 t f b;
#X obj 2068 851 s \$0-press_play;
#X obj 1019 -222 r \$0-stop_button;
#X obj 898 -90 r \$0-play_button;
#X obj -407 -129 r \$0-dir-change;
#X floatatom 1767 629 5 0 0 0 - - - 12;
#X obj 1767 665 f;
#X obj 1767 591 r \$0-playback_direction;
#X obj 1912 885 switch;
#X obj 1769 709 + 1;
#X obj 1835 682 bang;
#X obj 1995 813 +;
#X text 1873 534 slice position (and reverse offset);
#X text 1770 55 Playback Trigger Order;
#X obj 1796 243 r \$0-key_press_pos;
#X obj 1921 923 s \$0-key_press_pos;
#X msg 2205 851 0;
#X obj 2203 914 s \$0-unpause;
#X obj 1194 -59 r \$0-unpause;
#X floatatom 347 457 5 0 0 0 - - - 12;
#X obj 347 493 f;
#X obj 340 536 sel 0 1;
#X obj 340 414 r \$0-is_paused_flag;
#X floatatom -496 590 5 0 0 0 - - - 12;
#X obj -496 626 f;
#X obj -503 669 sel 0 1;
#X obj -503 547 r \$0-is_paused_flag;
#X text 537 465 vline playback and speed calculations;
#X text -640 447 playback speed change mechanism;
#X text -771 -73 Master Numbers;
#X text 249 -337 Controls;
#X text 962 -291 Play/Pause/Stop Logic;
#X text 1107 490 vline object and arrays;
#X obj -765 1013 knob 50 10 2000 0 100 empty \$0-slew-duration-i #E3DFD9 #968E82 #5A5A5A 1 0 0 0 1 270 0 0 51 empty empty 0 12 6 -15 0 1 0 0;
#X obj -829 1019 f;
#X floatatom -765 1087 5 0 0 0 - - - 12;
#X obj -765 1123 f;
#X text -783 986 slew duration;
#X obj -678 1123 f;
#X text -678 986 exponent/curve control;
#X obj -678 1013 knob 50 -1 0 0 0 empty \$0-slew_curve_i #E3DFD9 #968E82 #5A5A5A 1 0 0 0 1 270 0 0 0 empty empty 0 12 6 -15 0 1 0 0;
#X floatatom -678 1087 5 0 0 0 - - - 12;
#X obj -498 989 bng 25 250 50 0 empty empty empty 17 7 0 10 #e3dfd9 #5a5a5a #5a5a5a;
#X text -524 960 linear curve;
#X obj -779 1274 curve~;
#X msg -495 1036 0;
#X obj -779 1171 pack f f f;
#X msg -779 1205 \$1 \$2 \$3;
#X obj -829 1072 t f b b;
#X obj -779 1239 t a b;
#X obj -779 1388 cyclone/snapshot~;
#X msg -678 1347 5;
#X obj -734 1333 tgl 25 0 empty empty empty 17 7 0 10 #e3dfd9 #5a5a5a #5a5a5a 0 1;
#X obj -750 943 t f b;
#X msg -703 1252 0;
#X obj -837 1492 s \$0-slew_bang;
#X obj -785 427 r \$0-slew_bang;
#X obj -837 1439 bang;
#X obj -837 1362 f;
#X obj -650 877 f;
#X obj -843 877 f;
#X obj -786 606 t b f;
#X obj -551 877 sel 0 1;
#X obj -551 846 f;
#X floatatom -505 804 5 0 0 0 - - - 16;
#X obj -333 206 tgl 25 0 empty \$0-slew_engage-i empty 17 7 0 10 #e3dfd9 #5a5a5a #5a5a5a 0 1;
#X obj -243 154 lb;
#X msg -243 192 0;
#X obj -837 1328 t b b;
#X obj -678 1310 lb;
#X floatatom -333 246 5 0 0 0 - - - 12;
#X obj 94 -81 knob 50 10 2000 0 100 \$0-slew-duration-i empty #E3DFD9 #968E82 #5A5A5A 1 0 0 0 1 270 0 0 10 empty empty 0 12 6 -15 0 1 0 0;
#X obj 187 -81 knob 50 -1 0 0 0 \$0-slew_curve_i empty #E3DFD9 #968E82 #5A5A5A 1 0 0 0 1 270 0 0 0 empty empty 0 12 6 -15 0 1 0 0;
#X obj 296 -81 tgl 25 0 \$0-slew_engage-i empty empty 17 7 0 10 #e3dfd9 #5a5a5a #5a5a5a 0 1;
#X text 176 -123 slew curve;
#X text 94 -123 slew time;
#X floatatom 94 -21 5 0 0 0 - - - 12;
#X floatatom 187 -24 5 0 0 0 - - - 12;
#X text 272 -123 slew engage;
#X text 499 1333;
#X obj 407 -81 tgl 25 0 \$0-direction_slew_i empty empty 17 7 0 10 #e3dfd9 #5a5a5a #5a5a5a 0 1;
#X text 365 -123 direction change slew;
#X obj -150 206 tgl 25 0 empty \$0-direction_slew_i empty 17 7 0 10 #e3dfd9 #5a5a5a #5a5a5a 0 1;
#X obj -60 154 lb;
#X msg -60 192 0;
#X floatatom -150 246 5 0 0 0 - - - 12;
#X obj -150 282 s \$0-direction_slew_engaged;
#X obj -333 282 s \$0-slew_engaged;
#X obj -505 750 r \$0-slew_engaged;
#X obj -36 861 r \$0-direction_slew_engaged;
#X floatatom -36 899 5 0 0 0 - - - 12;
#X obj -47 931 f;
#X obj -47 963 sel 0 1;
#X connect 0 0 4 0;
#X connect 0 0 199 0;
#X connect 1 0 0 0;
#X connect 2 0 3 0;
#X connect 3 0 4 1;
#X connect 3 0 200 1;
#X connect 4 0 5 0;
#X connect 5 0 189 0;
#X connect 6 0 7 0;
#X connect 7 0 23 0;
#X connect 8 0 9 0;
#X connect 9 0 24 0;
#X connect 10 0 11 0;
#X connect 11 0 16 0;
#X connect 11 1 17 0;
#X connect 12 0 13 0;
#X connect 13 0 78 0;
#X connect 14 0 15 0;
#X connect 15 0 77 0;
#X connect 16 0 14 0;
#X connect 17 0 12 0;
#X connect 18 0 15 0;
#X connect 18 0 13 0;
#X connect 18 0 89 0;
#X connect 18 0 83 0;
#X connect 18 0 115 0;
#X connect 18 0 100 0;
#X connect 18 0 163 0;
#X connect 18 0 172 0;
#X connect 19 0 18 0;
#X connect 21 0 37 0;
#X connect 22 0 26 0;
#X connect 25 0 27 0;
#X connect 26 0 31 0;
#X connect 27 0 32 0;
#X connect 28 0 29 0;
#X connect 29 0 30 0;
#X connect 30 0 70 0;
#X connect 31 0 39 0;
#X connect 32 0 40 0;
#X connect 33 0 34 0;
#X connect 35 0 106 0;
#X connect 35 0 36 0;
#X connect 36 0 38 0;
#X connect 37 0 20 0;
#X connect 38 0 33 0;
#X connect 41 0 51 0;
#X connect 42 0 53 0;
#X connect 44 0 45 0;
#X connect 45 0 90 0;
#X connect 45 0 47 0;
#X connect 45 0 87 0;
#X connect 46 0 42 1;
#X connect 48 0 109 0;
#X connect 48 0 145 0;
#X connect 49 0 90 0;
#X connect 51 0 93 0;
#X connect 51 1 42 0;
#X connect 53 0 94 0;
#X connect 53 1 96 0;
#X connect 54 0 87 0;
#X connect 55 0 47 0;
#X connect 56 0 66 1;
#X connect 57 0 75 1;
#X connect 57 0 69 0;
#X connect 58 0 67 1;
#X connect 59 0 76 1;
#X connect 59 0 69 1;
#X connect 60 0 61 1;
#X connect 61 0 69 2;
#X connect 62 0 57 1;
#X connect 63 0 59 1;
#X connect 64 0 65 1;
#X connect 64 0 113 0;
#X connect 65 0 79 0;
#X connect 66 0 62 1;
#X connect 66 0 63 2;
#X connect 67 0 62 2;
#X connect 67 0 63 1;
#X connect 68 0 66 0;
#X connect 68 0 67 0;
#X connect 68 1 84 0;
#X connect 68 1 62 0;
#X connect 68 1 63 0;
#X connect 69 0 74 0;
#X connect 71 0 72 1;
#X connect 72 0 69 3;
#X connect 73 0 131 0;
#X connect 74 0 75 0;
#X connect 74 1 76 0;
#X connect 74 2 73 2;
#X connect 75 0 73 0;
#X connect 76 0 73 1;
#X connect 76 0 81 0;
#X connect 79 0 68 0;
#X connect 81 0 82 0;
#X connect 85 0 130 0;
#X connect 86 0 102 0;
#X connect 88 0 46 0;
#X connect 89 0 91 0;
#X connect 90 0 48 1;
#X connect 92 0 133 0;
#X connect 93 0 143 0;
#X connect 93 1 55 0;
#X connect 93 2 54 0;
#X connect 94 0 95 0;
#X connect 94 1 48 0;
#X connect 94 2 137 0;
#X connect 95 0 47 0;
#X connect 96 0 141 0;
#X connect 96 1 97 0;
#X connect 97 0 47 0;
#X connect 98 0 99 0;
#X connect 98 1 119 0;
#X connect 98 2 125 0;
#X connect 98 3 120 0;
#X connect 98 4 121 0;
#X connect 99 0 118 0;
#X connect 101 0 45 0;
#X connect 101 0 183 0;
#X connect 102 0 41 1;
#X connect 106 0 21 0;
#X connect 109 0 136 0;
#X connect 110 0 111 0;
#X connect 111 0 112 1;
#X connect 112 0 114 0;
#X connect 113 0 112 0;
#X connect 114 1 209 0;
#X connect 115 0 116 0;
#X connect 116 0 128 0;
#X connect 117 0 118 0;
#X connect 117 1 119 0;
#X connect 117 2 125 0;
#X connect 117 3 120 0;
#X connect 117 4 121 0;
#X connect 122 0 59 0;
#X connect 123 0 61 0;
#X connect 124 0 72 0;
#X connect 126 0 65 0;
#X connect 127 0 57 0;
#X connect 129 0 117 0;
#X connect 130 0 118 0;
#X connect 130 1 119 0;
#X connect 130 2 125 0;
#X connect 130 3 120 0;
#X connect 130 4 121 0;
#X connect 132 0 19 0;
#X connect 134 0 18 0;
#X connect 135 0 18 0;
#X connect 138 0 89 0;
#X connect 140 0 115 0;
#X connect 142 0 98 0;
#X connect 144 0 130 0;
#X connect 146 0 99 1;
#X connect 148 0 149 0;
#X connect 148 1 150 0;
#X connect 148 2 153 0;
#X connect 148 3 151 0;
#X connect 148 4 152 0;
#X connect 149 0 248 1;
#X connect 149 0 249 1;
#X connect 150 0 248 1;
#X connect 150 0 249 1;
#X connect 151 0 248 1;
#X connect 151 0 249 1;
#X connect 152 0 248 1;
#X connect 152 0 249 1;
#X connect 153 0 248 1;
#X connect 153 0 249 1;
#X connect 154 0 250 0;
#X connect 156 0 38 0;
#X connect 157 0 158 0;
#X connect 158 0 159 1;
#X connect 159 0 160 0;
#X connect 160 1 213 0;
#X connect 162 0 163 0;
#X connect 163 0 164 0;
#X connect 164 0 165 0;
#X connect 166 0 117 0;
#X connect 167 0 159 0;
#X connect 167 1 154 0;
#X connect 169 0 170 0;
#X connect 170 0 168 0;
#X connect 171 0 167 0;
#X connect 173 0 176 0;
#X connect 175 0 184 0;
#X connect 176 0 175 0;
#X connect 177 0 175 2;
#X connect 178 0 179 0;
#X connect 179 0 176 0;
#X connect 181 0 175 0;
#X connect 182 0 180 0;
#X connect 183 0 182 0;
#X connect 183 1 92 0;
#X connect 185 0 186 0;
#X connect 186 0 187 1;
#X connect 187 0 188 0;
#X connect 188 0 190 0;
#X connect 188 1 205 0;
#X connect 189 0 200 0;
#X connect 189 0 197 1;
#X connect 189 1 187 0;
#X connect 191 0 45 0;
#X connect 191 0 183 0;
#X connect 192 0 41 0;
#X connect 193 0 106 0;
#X connect 194 0 195 1;
#X connect 195 0 198 0;
#X connect 196 0 194 0;
#X connect 197 0 204 0;
#X connect 198 0 197 0;
#X connect 199 0 195 0;
#X connect 200 0 197 2;
#X connect 203 0 117 0;
#X connect 205 0 206 0;
#X connect 207 0 46 0;
#X connect 208 0 209 1;
#X connect 209 0 210 0;
#X connect 210 0 139 0;
#X connect 211 0 208 0;
#X connect 212 0 213 1;
#X connect 213 0 214 0;
#X connect 214 0 161 0;
#X connect 215 0 212 0;
#X connect 222 0 224 0;
#X connect 223 0 237 0;
#X connect 224 0 225 0;
#X connect 225 0 235 1;
#X connect 227 0 235 2;
#X connect 229 0 230 0;
#X connect 230 0 227 0;
#X connect 231 0 234 0;
#X connect 233 0 239 0;
#X connect 233 1 241 0;
#X connect 233 1 257 0;
#X connect 234 0 229 0;
#X connect 235 0 236 0;
#X connect 236 0 238 0;
#X connect 237 0 235 0;
#X connect 237 0 247 1;
#X connect 237 1 225 0;
#X connect 237 2 227 0;
#X connect 238 0 233 0;
#X connect 238 1 241 0;
#X connect 239 0 155 0;
#X connect 239 0 246 0;
#X connect 240 0 239 1;
#X connect 241 0 239 0;
#X connect 242 0 223 0;
#X connect 242 1 243 0;
#X connect 243 0 241 0;
#X connect 245 0 159 0;
#X connect 246 0 244 0;
#X connect 247 0 155 0;
#X connect 248 0 242 0;
#X connect 249 0 155 0;
#X connect 250 0 252 0;
#X connect 250 1 148 0;
#X connect 251 0 249 0;
#X connect 251 1 248 0;
#X connect 252 0 251 0;
#X connect 253 0 252 1;
#X connect 254 0 259 0;
#X connect 255 0 256 0;
#X connect 256 0 254 0;
#X connect 257 0 244 0;
#X connect 257 1 247 0;
#X connect 258 0 240 0;
#X connect 259 0 276 0;
#X connect 260 0 265 0;
#X connect 261 0 266 0;
#X connect 271 0 274 0;
#X connect 272 0 273 0;
#X connect 273 0 271 0;
#X connect 274 0 275 0;
#X connect 277 0 253 0;
#X connect 278 0 279 0;
#X connect 279 0 280 1;
#X connect 280 0 281 0;
