#N canvas 827 239 734 565 12;
#N canvas 0 0 450 250 (subpatch) 0;
#X array sample\$1_L 111303 float 4;
#X coords 0 1 111302 -1 200 140 1;
#X restore 537 63 graph;
#N canvas 0 0 450 250 (subpatch) 0;
#X array sample\$1_R 111303 float 4;
#X coords 0 1 111302 -1 200 140 1;
#X restore 537 223 graph;
#X obj 108 320 soundfiler;
#X obj 107 89 openpanel;
#X floatatom 108 357 8 0 0 0 - - - 12;
#X floatatom 200 364 6 0 0 0 - - - 12;
#X obj 200 332 unpack f f f f;
#X obj 280 460 / 16;
#X floatatom 280 493 6 0 0 0 - - - 16;
#X obj 201 391 / 1000;
#X obj 108 283 prepend read -resize;
#X obj 107 115 list trim;
#X obj 107 243 pack s s s;
#X obj 107 145 t a b b;
#X obj 107 42 bng 25 250 50 0 empty \$1-sample-load empty 17 7 0 10 #333333 #e5e5e5 #111111;
#X obj 295 542 send \$1-slice_size_val;
#X obj 108 414 t b f;
#X msg -197 460 0;
#X obj 200 421 s \$1-sample_rate_val;
#X obj 148 187 symbol sample\$1_R;
#X obj 129 216 symbol sample\$1_L;
#X obj 135 542 s \$1-set_active_loop_end;
#X obj -197 536 s \$1_file_abs_start;
#X obj -44 536 s \$1_file_abs_end;
#X connect 2 0 4 0;
#X connect 2 1 6 0;
#X connect 3 0 11 0;
#X connect 4 0 16 0;
#X connect 5 0 9 0;
#X connect 6 0 5 0;
#X connect 7 0 8 0;
#X connect 8 0 15 0;
#X connect 9 0 18 0;
#X connect 10 0 2 0;
#X connect 11 0 13 0;
#X connect 12 0 10 0;
#X connect 13 0 12 0 32.................n..........J.........7D....;
#X connect 13 1 20 0 32.................Z....f....fF....H....PC....;
#X connect 13 2 19 0 32.................L....v.....C....L....bA....;
#X connect 14 0 3 0;
#X connect 16 0 17 0;
#X connect 16 1 7 0;
#X connect 16 1 21 0;
#X connect 16 1 23 0;
#X connect 17 0 22 0;
#X connect 19 0 12 2;
#X connect 20 0 12 1;
