#N canvas 827 239 734 565 12;
#X text 909 777 Playback Speed;
#X msg 346 565 stop;
#X obj 697 844 vline~;
#X msg 704 805 \$1 \, \$2 \$3;
#X text 521 496 Play;
#X floatatom 654 506 4 0 0 0 - - - 12;
#X obj 680 470 random;
#X floatatom 706 436 5 0 0 0 - - - 16;
#X obj 713 506 t f f;
#X obj 483 414 bng 25 250 50 0 empty empty empty 17 7 0 10 #333333 #eeeeee #e4e4e4;
#X text 857 580 Slice (plays till end of sample);
#X text 429 469 Play Random Slice for Tests;
#X floatatom 1416 182 9 0 0 0 - - - 12;
#X obj 1416 259 sig~;
#X obj 778 877 expr~ $v1 >= $v2;
#X obj 778 913 edge~;
#X obj 778 949 bang;
#X obj 229 835 hsl 328 13 0 1 0 0 \$1-playhead empty empty -2 -8 0 10 #333333 #eeeeee #e4e4e4 0 1;
#X obj 521 704 metro 20;
#X obj 521 759 snapshot~;
#X obj 521 731 bang;
#X text 437 646 Loop Points Logic;
#X text 855 929 Loop Math/Function;
#X text 284 804 playhead Visualizer;
#X floatatom 1621 52 8 0 0 0 - - - 12;
#X obj 595 180 int;
#X obj 583 279 select 0;
#X obj 552 345 print;
#X obj 595 212 * 64;
#X obj 583 310 spigot;
#X obj 698 313 tgl 21 0 empty empty empty 0 -11 0 12 #fcfcfc #000000 #000000 0 1;
#X text 649 199 Beat Reset;
#X floatatom 649 236 3 1 100 0 - - - 24;
#X obj 372 194 change;
#X obj 372 267 sel 1;
#X obj 291 534 bang;
#X msg 595 134 4;
#X obj 1416 296 s~ \$0-loop-end;
#X obj 538 579 r \$0-reset-sync;
#X obj 518 607 r \$0-loop-trigger;
#X obj 867 814 r~ \$0-loop-end;
#X obj 778 993 s \$0-loop-trigger;
#X obj 583 94 send \$0-64th-pulse;
#X obj 604 345 s \$0-reset-sync;
#X obj 552 62 r ppq;
#X obj 372 157 r daw-transport;
#X obj 858 227 loadbang;
#X msg 1123 441 0;
#X obj 1174 486 f;
#X text 1214 485 event pending flag;
#X obj 1134 525 spigot;
#X obj 1121 296 r \$0-64th-pulse;
#X obj 1121 410 t b b;
#X obj 372 511 r transport;
#X obj 583 373 print reset;
#X obj 583 245 mod;
#X obj 1190 369 r row_\$1;
#X obj 1121 333 mod, f 5;
#X obj 1121 369 select 0;
#X obj 1134 486 f;
#X text 1032 485 event storage;
#X msg 1081 401 0;
#X msg 1148 441 1;
#X obj 1174 413 t b f;
#X obj 1107 572 switch;
#X obj 929 379 sel 1;
#X msg 932 414 1;
#X msg 1090 525 2;
#X obj 929 339 r \$1-quantizer;
#X obj 473 870 inlet sample-selection;
#X obj 473 900 t f f;
#X obj 484 961 sprintf sample%d-R;
#X obj 574 993 prepend set;
#X obj 745 1028 tabread4~;
#X obj 473 993 prepend set;
#X obj 664 1028 tabread4~;
#X obj 473 930 sprintf sample%d-L;
#X obj 1416 22 r \$1-length;
#X obj 742 470 r \$0-slice-size;
#X obj 473 1028 print loadbang;
#X msg 706 407 16;
#X floatatom 1514 52 9 0 0 0 - - - 12;
#X floatatom 1763 52 9 0 0 0 - - - 12;
#X obj 1514 196 s \$0-slice-pos-i;
#X obj 742 621 r \$0-slice-pos-i;
#X obj 745 1056 s~ playback-voiceR-\$1;
#X obj 664 1085 s~ playback-voiceL-\$1;
#X obj 341 534 r stop-playback;
#N canvas 733 172 450 300 rate-change 0;
#X obj 496 32 inlet init-rate;
#X obj 138 -28 inlet~ position;
#X obj 138 29 snapshot~;
#X obj 397 65 f;
#X floatatom 397 37 9 0 0 0 - - - 12;
#X floatatom 496 61 9 0 0 0 - - - 12;
#X obj 496 89 f;
#X floatatom 138 58 9 0 0 0 - - - 12;
#X obj 153 101 f;
#X text 75 34 v paused;
#X text 333 36 loop end;
#X obj 601 251 / 0.5;
#X obj 546 251 / 0.25;
#X obj 655 251 / 2;
#X floatatom 583 332 13 0 0 0 - - - 16;
#X obj 583 362 f;
#X obj 383 343 pack f f f;
#X obj 367 190 expr abs($f2 - $f1) / $f3;
#X obj 752 46 loadbang;
#X msg 754 106 3;
#X obj 583 296 switch 5;
#X obj 583 214 t f f f f f f b;
#X obj 279 -19 inlet loop-start;
#X obj 397 8 inlet loop-end;
#X floatatom 673 153 5 1 5 0 - - - 12;
#X text 731 152 rate selection;
#X obj 673 178 int;
#X obj 673 81 r rate-select-\$1;
#X msg 325 129 2;
#X obj 153 127 t f b;
#X msg 202 136 1;
#X obj 219 203 switch;
#X obj 279 67 t f b;
#X obj 383 381 outlet;
#X obj 694 251 / 4;
#X obj 86 -15 bang;
#X obj 228 235 t f f;
#X obj 86 -75 inlet stop-playback;
#X obj 36 67 r \$0-resume;
#X obj 554 91 hradio 20 1 0 5 empty \$0-playback-speed empty 0 -8 0 10 #333333 #e5e5e5 #111111 0;
#X obj 554 139 + 1;
#X obj 554 178 t b b f;
#X connect 0 0 5 0;
#X connect 1 0 2 0;
#X connect 2 0 7 0;
#X connect 3 0 17 1;
#X connect 3 0 16 1;
#X connect 4 0 3 0;
#X connect 5 0 6 0;
#X connect 6 0 17 2;
#X connect 7 0 8 1;
#X connect 8 0 29 0;
#X connect 11 0 20 2;
#X connect 12 0 20 1;
#X connect 13 0 20 4;
#X connect 14 0 15 0;
#X connect 15 0 16 2;
#X connect 16 0 33 0;
#X connect 17 0 21 0;
#X connect 18 0 19 0;
#X connect 18 0 28 0 32.................J++++Sk+++ux++++T4+++CD....;
#X connect 19 0 24 0;
#X connect 20 0 14 0;
#X connect 21 1 12 0;
#X connect 21 2 11 0;
#X connect 21 3 20 3;
#X connect 21 4 13 0;
#X connect 21 5 34 0;
#X connect 22 0 32 0;
#X connect 23 0 4 0;
#X connect 24 0 26 0;
#X connect 26 0 41 0;
#X connect 27 0 24 0;
#X connect 28 0 31 0;
#X connect 29 0 31 1;
#X connect 29 1 30 0;
#X connect 30 0 31 0;
#X connect 31 0 36 0;
#X connect 32 0 31 2;
#X connect 32 1 28 0;
#X connect 34 0 20 5;
#X connect 35 0 2 0;
#X connect 36 0 16 0;
#X connect 36 1 17 0;
#X connect 37 0 35 0;
#X connect 38 0 8 0;
#X connect 39 0 40 0;
#X connect 40 0 41 0;
#X connect 41 0 8 0;
#X connect 41 1 2 0;
#X connect 41 2 20 0;
#X restore 704 736 pd rate-change;
#X obj 1763 22 r \$1-sample-rate;
#X obj 1763 92 s \$0-sample-rate-i;
#X obj 781 691 r \$0-sample-rate-i;
#X floatatom 1188 182 8 0 0 0 - - - 12;
#X obj 1188 245 s loop-start-i;
#X msg 422 689 stop;
#X obj 199 689 s \$0-resume;
#X obj 199 647 bng 25 250 50 0 empty empty empty 17 7 0 10 #333333 #e5e5e5 #111111;
#X obj 385 749 hradio 20 1 0 5 \$0-playback-speed empty empty 0 -8 0 10 #333333 #e5e5e5 #111111 0;
#X text 262 748 playback speed;
#X obj 385 696 lb;
#X msg 385 722 2;
#X obj 372 230 tgl 25 0 empty empty empty 17 7 0 10 #e3dfd9 #5a5a5a #5a5a5a 0 1;
#X msg 1174 333 4;
#X obj 192 157 r global-transport-i;
#X obj 761 662 r \$0-loop-end;
#X obj 1416 216 f;
#X obj 1514 22 r \$1-slice-size, f 13;
#X msg 1190 74 0;
#X obj 649 691 f;
#X obj 649 647 r loop-start-i;
#X obj 1514 123 *;
#X obj 1107 612 s \$0-slice-selection;
#X obj 1621 22 r \$0-slice-selection;
#X obj 1188 148 switch;
#X obj 1188 109 f;
#X obj 1190 22 lb;
#X msg 1288 74 1;
#X obj 1416 85 f;
#X obj 1416 137 switch;
#X msg 1346 74 2;
#X obj 1271 38 t b b;
#X obj 1271 -20 bng 25 250 50 0 empty empty empty 17 7 0 10 #e3dfd9 #5a5a5a #5a5a5a;
#X obj 1346 -20 bng 25 250 50 0 empty empty empty 17 7 0 10 #e3dfd9 #5a5a5a #5a5a5a;
#X obj 1317 244 s \$0-loop-end;
#X obj 1067 861 expr~ $v1 <= 0;
#X obj 1067 904 edge~;
#X obj 1067 949 bang;
#X obj 521 790 scale \$0 \$0 0 1;
#X obj 1346 38 t b b b;
#X connect 1 0 2 0;
#X connect 2 0 73 0;
#X connect 2 0 75 0;
#X connect 2 0 19 0;
#X connect 2 0 88 1;
#X connect 2 0 14 0;
#X connect 3 0 2 0;
#X connect 6 0 8 0;
#X connect 7 0 6 1;
#X connect 8 0 5 0;
#X connect 9 0 6 0;
#X connect 9 0 18 0;
#X connect 12 0 105 0;
#X connect 12 0 123 0;
#X connect 13 0 37 0;
#X connect 14 0 15 0;
#X connect 15 0 16 0;
#X connect 18 0 20 0;
#X connect 19 0 127 0;
#X connect 20 0 19 0;
#X connect 24 0 110 0;
#X connect 25 0 28 0;
#X connect 26 0 29 0;
#X connect 28 0 55 1;
#X connect 29 0 54 0;
#X connect 29 0 43 0;
#X connect 29 0 27 0;
#X connect 30 0 29 1;
#X connect 32 0 25 0;
#X connect 33 0 101 0;
#X connect 34 0 6 0;
#X connect 34 0 18 0;
#X connect 34 1 35 0;
#X connect 35 0 1 0;
#X connect 36 0 25 0;
#X connect 36 0 32 0;
#X connect 38 0 108 0;
#X connect 39 0 108 0;
#X connect 40 0 14 1;
#X connect 40 0 124 0;
#X connect 44 0 55 0;
#X connect 44 0 42 0;
#X connect 45 0 33 0;
#X connect 46 0 66 0;
#X connect 46 0 36 0;
#X connect 46 0 80 0;
#X connect 46 0 61 0;
#X connect 46 0 102 0;
#X connect 47 0 48 0;
#X connect 48 0 50 1;
#X connect 50 0 64 2;
#X connect 51 0 57 0;
#X connect 52 0 47 0;
#X connect 52 1 59 0;
#X connect 53 0 1 0;
#X connect 55 0 26 0;
#X connect 56 0 63 0;
#X connect 56 0 64 1;
#X connect 57 0 58 0;
#X connect 58 0 52 0;
#X connect 59 0 50 0;
#X connect 61 0 47 0;
#X connect 61 0 59 0;
#X connect 62 0 48 0;
#X connect 62 0 48 1;
#X connect 63 0 62 0;
#X connect 63 1 59 0;
#X connect 64 0 111 0;
#X connect 65 0 66 0;
#X connect 65 1 67 0;
#X connect 66 0 64 0;
#X connect 67 0 64 0;
#X connect 68 0 65 0;
#X connect 69 0 70 0;
#X connect 70 0 76 0;
#X connect 70 1 71 0;
#X connect 71 0 72 0;
#X connect 72 0 73 0;
#X connect 73 0 85 0;
#X connect 74 0 79 0;
#X connect 74 0 75 0;
#X connect 75 0 86 0;
#X connect 76 0 74 0;
#X connect 77 0 117 0;
#X connect 78 0 8 0;
#X connect 80 0 7 0;
#X connect 81 0 110 1;
#X connect 82 0 90 0;
#X connect 84 0 88 2;
#X connect 87 0 1 0;
#X connect 88 0 3 0;
#X connect 89 0 82 0;
#X connect 91 0 88 4;
#X connect 92 0 93 0;
#X connect 94 0 2 0;
#X connect 94 0 88 0;
#X connect 96 0 95 0;
#X connect 99 0 100 0;
#X connect 100 0 97 0;
#X connect 101 0 34 0;
#X connect 102 0 57 1;
#X connect 103 0 101 0;
#X connect 104 0 88 3;
#X connect 104 0 127 2;
#X connect 105 0 13 0;
#X connect 106 0 81 0;
#X connect 107 0 114 0;
#X connect 108 0 88 2;
#X connect 109 0 108 0;
#X connect 109 0 127 1;
#X connect 110 0 83 0;
#X connect 112 0 24 0;
#X connect 113 0 92 0;
#X connect 114 0 113 1;
#X connect 114 0 118 2;
#X connect 115 0 107 0;
#X connect 115 0 116 0;
#X connect 116 0 113 0;
#X connect 116 0 118 0;
#X connect 117 0 118 1;
#X connect 117 0 113 2;
#X connect 118 0 12 0;
#X connect 119 0 118 0;
#X connect 119 0 113 0;
#X connect 120 0 114 0;
#X connect 120 0 117 0;
#X connect 120 1 116 0;
#X connect 121 0 120 0;
#X connect 122 0 128 0;
#X connect 124 0 125 0;
#X connect 125 0 126 0;
#X connect 126 0 41 0;
#X connect 127 0 17 0;
#X connect 128 0 117 0;
#X connect 128 1 114 0;
#X connect 128 2 119 0;
