#N canvas 827 239 734 565 12;
#N canvas 0 0 450 250 (subpatch) 0;
#X array sample\$1-L 364966 float 4;
#X coords 0 1 364965 -1 200 140 1;
#X restore 229 120 graph;
#N canvas 0 0 450 250 (subpatch) 0;
#X array sample\$1-R 364966 float 4;
#X coords 0 1 364965 -1 200 140 1;
#X restore 229 280 graph;
#X obj -200 377 soundfiler;
#X obj -201 146 openpanel;
#X floatatom -200 414 8 0 0 0 - - - 12;
#X floatatom -108 421 6 0 0 0 - - - 12;
#X obj -108 389 unpack f f f f;
#X obj -200 487 t b f;
#X obj -189 517 / 16;
#X floatatom -189 550 6 0 0 0 - - - 16;
#X obj -107 448 / 1000;
#X obj -200 340 prepend read -resize;
#X obj -201 172 list trim;
#X obj -201 300 pack s s s;
#X obj -201 202 t a b b;
#X obj -201 99 bng 25 250 50 0 empty \$1-sample-load empty 17 7 0 10 #333333 #e5e5e5 #111111;
#X obj -160 244 symbol sample\$1-R;
#X obj -179 273 symbol sample\$1-L;
#X obj -269 460 s \$1-length;
#X obj -189 599 send \$1-slice-pos;
#X obj -108 478 s \$1-sample-rate;
#X connect 2 0 4 0;
#X connect 2 1 6 0;
#X connect 3 0 12 0;
#X connect 4 0 7 0;
#X connect 4 0 18 0;
#X connect 5 0 10 0;
#X connect 6 0 5 0;
#X connect 7 1 8 0;
#X connect 8 0 9 0;
#X connect 9 0 19 0;
#X connect 10 0 20 0;
#X connect 11 0 2 0;
#X connect 12 0 14 0;
#X connect 13 0 11 0;
#X connect 14 0 13 0 32.................n..........J.........7D....;
#X connect 14 1 17 0 32.................Z....f....fF....H....PC....;
#X connect 14 2 16 0 32.................L....v.....C....L....bA....;
#X connect 15 0 3 0;
#X connect 16 0 13 2;
#X connect 17 0 13 1;
