#N canvas 827 239 734 564 12;
#X floatatom 1891 658 5 0 0 0 - - - 12;
#X obj 1891 626 r row_\$1;
#X obj 1979 626 r \$1-slice_size_val;
#X floatatom 1979 658 7 0 0 0 - - - 12;
#X obj 1930 706 *;
#X floatatom 1930 738 8 0 0 0 - - - 12;
#X obj -1367 -223 r \$1_file_abs_start;
#X floatatom -1367 -184 5 0 0 0 - - - 12;
#X obj -1195 -223 r \$1_file_abs_end;
#X floatatom -1195 -181 9 0 0 0 - - - 12;
#X obj 2273 1210 inlet sample-selection;
#X obj 2273 1240 t f f;
#X obj 2374 1333 prepend set;
#X obj 2168 1387 tabread4~;
#X obj 2273 1333 prepend set;
#X obj 2087 1387 tabread4~;
#X obj 2273 1270 sprintf sample%d_L;
#X obj 2284 1301 sprintf sample%d_R;
#X obj 2100 1255 vline~;
#X msg 2149 1204 \$1 \, \$2 \$3;
#X obj -1801 -31 s \$0-playback_direction;
#X floatatom -1923 -181 5 0 0 0 - - - 12;
#X obj -1367 -99 r \$0-set_active_loop_start;
#X obj -1367 -143 s \$0-set_active_loop_start;
#X obj -1195 -143 s \$0-set_active_loop_end;
#X obj -1195 -99 r \$0-set_active_loop_end;
#X floatatom -1367 -70 5 0 0 0 - - - 12;
#X floatatom -1195 -70 9 0 0 0 - - - 12;
#X obj -1015 -99 r \$1-sample_rate_val;
#X floatatom -1015 -70 5 0 0 0 - - - 12;
#X obj -1015 -37 f;
#X obj -1367 -37 f;
#X obj -1195 -37 f;
#X obj -1812 -117 f;
#X obj -1812 -76 s \$0-rate_multiplier;
#X obj -1812 -347 lb;
#X msg -1812 -182 1;
#X floatatom -1812 -147 5 0 0 0 - - - 16;
#X obj -1367 16 s \$0-loop_start;
#X obj -1195 16 s \$0-loop_end;
#X obj 1163 153 f;
#X obj 1280 164 f;
#X obj 326 144 bng 25 250 50 0 \$0-play_button \$0-press_play empty 17 7 0 10 #e3dfd9 #5a5a5a #5a5a5a;
#X obj 1244 71 lb;
#X msg 1241 110 0;
#X floatatom 1291 114 5 0 0 0 - - - 12;
#X obj 1275 365 s \$0-is_paused_flag;
#X obj 1484 262 f;
#X obj 1484 157 r \$0-pause_position;
#X text 1088 156 is playing;
#X obj 1163 190 sel 0 1;
#X text 1323 156 is paused;
#X obj 1280 226 sel 0 1;
#X msg 1197 281 1;
#X msg 1236 281 0;
#X obj 1173 866 r \$0-loop start;
#X obj 1144 1015 f;
#X obj 1321 866 r \$0-loop_end;
#X obj 1278 1006 f;
#X obj 1422 876 r \$0-rate_multiplier;
#X obj 1411 919 f;
#X obj 1144 946 switch;
#X obj 1278 946 switch;
#X obj 1001 601 r \$0-playback_direction;
#X obj 990 753 f;
#X obj 1162 910 f;
#X obj 1310 910 f;
#X obj 990 851 t b f;
#N canvas 0 22 450 300 calc_duration 0;
#X obj 228 89 inlet start_pos;
#X obj 364 132 inlet target_pos;
#X obj 503 132 inlet rate_mult;
#X obj 619 132 inlet sr_khz;
#X obj 228 250 expr abs($f2-$f1);
#X obj 364 166 f;
#X obj 503 166 f;
#X obj 619 166 f;
#X obj 352 632 outlet duration_ms;
#X floatatom 228 289 7 0 0 0 - - - 12;
#X text 134 322 delta_samples;
#X obj 503 250 expr $f2 * $f1;
#X floatatom 503 289 5 0 0 0 - - - 12;
#X text 423 322 samples_per_ms;
#X obj 266 421 expr if($f2 == 0\\\, 99999999.0\\\, $f1 / $f2);
#X obj 753 132 inlet bpm;
#X obj 858 132 inlet num_beats_for_segment;
#X obj 1499 132 inlet clock_mode_enabled;
#X obj 753 185 f;
#X obj 858 166 f;
#X obj 1499 168 f;
#X obj 266 371 pack f f;
#X obj 228 214 pack f f;
#X obj 248 323 f;
#X obj 364 323 f;
#X text 123 499 orig_duration_ms;
#X obj 266 500 f;
#X text 144 165 f_start_pos;
#X text 279 165 f_target_pos;
#X text 402 165 f_rate_multiplier;
#X text 555 165 f_sr_khz;
#X text 692 165 f_bpm;
#X text 905 167 f_num_beats;
#X text 1543 167 f_clock_mode;
#X obj 228 118 t f b b b b b b;
#X obj 408 532 switch;
#X obj 1514 285 + 1;
#X floatatom 1074 148 5 0 0 0 - - - 12;
#X obj 1074 173 f;
#X obj 1074 122 r \$1_file_abs_end;
#X obj 1207 122 r \$1_file_abs_start;
#X floatatom 1207 148 5 0 0 0 - - - 12;
#X obj 1207 173 f;
#X obj 753 230 expr ((60000 / $f1) * $f2 );
#X floatatom 753 256 5 0 0 0 - - - 12;
#X obj 753 281 f;
#X text 800 280 target duration ms;
#X obj 1095 230 expr ($f1 - $f2);
#X obj 1095 256 f;
#X text 1150 256 total number of samples;
#X obj 753 398 f;
#X text 937 370 Base Playback Rate;
#X obj 678 440 expr ($f1 * $f2);
#X obj 626 579 f;
#X text 672 578 synced ms;
#X obj 626 532 expr abs(($f2 - $f1) / $f3);
#X obj 753 371 expr (($f3 * 100) / ($f2 *$f1));
#X obj 162 214 f;
#X obj 753 157 t b f;
#X connect 0 0 34 0;
#X connect 1 0 5 0;
#X connect 2 0 6 0;
#X connect 3 0 7 0;
#X connect 4 0 9 0;
#X connect 5 0 22 1;
#X connect 5 0 55 1;
#X connect 6 0 11 0;
#X connect 6 0 52 0;
#X connect 7 0 11 1;
#X connect 7 0 56 1;
#X connect 9 0 23 0;
#X connect 11 0 12 0;
#X connect 12 0 24 0;
#X connect 14 0 26 0;
#X connect 15 0 58 0;
#X connect 16 0 19 0;
#X connect 17 0 20 0;
#X connect 18 0 43 0;
#X connect 19 0 43 1;
#X connect 20 0 36 0;
#X connect 21 0 14 0;
#X connect 22 0 4 0;
#X connect 23 0 21 0;
#X connect 24 0 21 1;
#X connect 26 0 35 1;
#X connect 34 0 22 0;
#X connect 34 0 57 0;
#X connect 34 1 5 0;
#X connect 34 2 6 0;
#X connect 34 3 7 0;
#X connect 34 4 18 0;
#X connect 34 5 19 0;
#X connect 34 5 38 0;
#X connect 34 6 20 0;
#X connect 34 6 42 0;
#X connect 35 0 8 0;
#X connect 36 0 35 0;
#X connect 37 0 38 0;
#X connect 38 0 47 0;
#X connect 39 0 37 0;
#X connect 40 0 41 0;
#X connect 41 0 42 0;
#X connect 42 0 47 1;
#X connect 43 0 44 0;
#X connect 44 0 45 0;
#X connect 45 0 56 0;
#X connect 45 0 57 0;
#X connect 47 0 48 0;
#X connect 48 0 56 2;
#X connect 50 0 52 1;
#X connect 52 0 55 2;
#X connect 53 0 35 2;
#X connect 55 0 53 0;
#X connect 56 0 50 0;
#X connect 57 0 55 0;
#X connect 58 0 34 0;
#X connect 58 1 18 1;
#X restore 1262 1037 pd calc_duration;
#X obj -1015 -3 s \$0-rate_khz;
#X obj 1563 876 r \$0-rate_khz;
#X obj 1488 919 f;
#X obj 1133 1170 pack f f f;
#X obj 1262 1088 t b b f;
#X obj 1133 1134 f;
#X obj 1184 1134 f;
#X obj 990 813 + 1;
#N canvas 733 172 450 300 loop_logic 0;
#X obj 655 634 r~ \$0-vline_output_sig;
#X obj 888 822 edge~;
#X obj 888 852 s \$0_loop_hit_bang;
#X obj 865 634 r~ \$0_target_for_expr_sig;
#X text 661 608 v_out;
#X text 865 608 v_tarrget;
#X obj 708 695 >=~;
#X text 592 694 fwd_comp_result;
#X text 1113 680 is_fwd_sig;
#X obj 1080 634 sig~;
#X obj 1053 687 ==~ 0;
#X obj 738 763 *~;
#X text 592 762 final_fwd_trigger_sig;
#X obj 810 695 <=~, f 5;
#X text 865 694 rev_comp_result;
#X obj 1206 687 ==~ 1;
#X text 1245 708 is_rev_sig;
#X obj 945 755 *~;
#X text 1014 754 final_rev_trigger_sig;
#X obj 888 786 +~;
#X obj 1080 526 r \$0_direction_for_expr_sig;
#X obj 655 899 number~;
#A saved 0 0 100 -inf inf #2a3434 #ffffff #b6fefd;
#X obj 865 899 number~;
#A saved 0 0 100 -inf inf #2a3434 #ffffff #b6fefd;
#X obj 1053 899 number~;
#A saved 0 0 100 -inf inf #2a3434 #ffffff #b6fefd;
#X obj 1081 584 - 1;
#X connect 0 0 6 0;
#X connect 0 0 13 0;
#X connect 0 0 21 0;
#X connect 1 0 2 0;
#X connect 3 0 6 1;
#X connect 3 0 13 1;
#X connect 3 0 22 0;
#X connect 6 0 11 0;
#X connect 9 0 10 0;
#X connect 9 0 15 0;
#X connect 9 0 23 0;
#X connect 10 0 11 1;
#X connect 11 0 19 0;
#X connect 13 0 17 0;
#X connect 15 0 17 1;
#X connect 17 0 19 1;
#X connect 19 0 1 0;
#X connect 20 0 24 0;
#X connect 24 0 9 0;
#X restore 1626 774 pd loop_logic;
#X obj 1203 1170 sig~;
#X obj 1203 1204 s~ \$0_target_for_expr_sig;
#X obj 2280 1387 s~ \$0-vline_output_sig;
#X obj 1192 821 s \$0_direction_for_expr_sig;
#X obj 1857 264 r \$0_loop_hit_bang;
#X obj 1016 71 r \$0-is_playing_flag;
#X obj 1194 403 s \$0-is_playing_flag;
#X obj 1291 84 r \$0-is_paused_flag;
#X obj 1992 1387 snapshot~;
#X floatatom 1486 203 10 0 0 0 - - - 12;
#X obj 1992 1427 s \$0-pause_position;
#X obj 1165 226 t b b b;
#X obj 1280 262 t b b b;
#X msg 1283 307 1;
#X obj 1350 262 t b b;
#X msg 1366 325 0;
#X obj 1731 376 f;
#X obj 1896 1101 number~;
#A saved 0 0 100 -inf inf #2a3434 #ffffff #b6fefd;
#X obj 1380 -110 r \$1_sample_swap_bang;
#X floatatom 1171 114 5 0 0 0 - - - 12;
#X obj 404 144 bng 25 250 50 0 \$0-stop_button empty empty 17 7 0 10 #e3dfd9 #5a5a5a #5a5a5a;
#X text 303 108 Play/Pause;
#X text 396 108 stop;
#X obj -1923 -216 count 1;
#X obj 490 144 bng 25 250 50 0 \$0-dir-change empty empty 17 7 0 10 #e3dfd9 #5a5a5a #5a5a5a;
#X text 448 108 Direction Change;
#X msg 1467 343 \$1 0;
#X obj 1248 558 r \$0-is_playing_flag;
#X floatatom 1248 593 5 0 0 0 - - - 12;
#X obj 1158 625 f;
#X obj 1158 668 sel 0 1;
#X obj 1886 1387 snapshot~;
#X floatatom 1886 1423 10 0 0 0 - - - 12;
#X obj 1731 439 s \$0-jump_to_pos;
#X obj 1857 439 s \$0-loop-end-pos;
#X obj 2182 439 s \$0-rate-multiplyer-trigger;
#X obj 2369 439 s \$0-rate_khz_trigger;
#X obj 1262 974 r \$0-loop-end-pos;
#X obj 1429 844 r \$0-rate-multiplyer-trigger;
#X obj 1563 844 r \$0-rate_khz_trigger;
#X obj 990 647 r \$0-direction_swap_trigger;
#X obj 1017 974 r \$0-jump_to_pos;
#X obj 1886 1473 s \$0-direction-change-pos;
#X obj 2416 243 r \$0-direction-change-pos;
#X obj 1133 1247 s \$0-vline-message;
#X obj 2129 1165 r \$0-vline-message;
#X obj 1441 44 s \$0-stop_message, f 18;
#X obj 2880 721 r \$0-stop_message;
#X obj 2066 1113 r \$0-pause_sample_number;
#X obj 1381 403 s \$0-pause_sample_number;
#X obj 1309 435 s \$0-pause_snapshot_bang;
#X obj 1992 1296 r \$0-pause_snapshot_bang;
#X obj 1236 790 s \$0-playback_dir_snapshot;
#X obj 1886 1334 r \$0-playback_dir_snapshot;
#X obj 1350 296 s \$0-resume_bang;
#X obj 1721 243 r \$0-resume_bang;
#X obj 1148 435 s \$0-play_button_bang;
#X obj 1830 194 r \$0-play_button_bang;
#X obj 1508 435 s \$0-resume_sample_location;
#X obj 1697 162 r \$0-resume_sample_location;
#X text 185 134 playback speed;
#X obj -990 733 sel 1 2 3 4 5;
#X msg -1083 814 0.25, f 5;
#X msg -1028 814 0.5, f 5;
#X msg -925 814 2, f 5;
#X msg -878 814 4, f 5;
#X msg -978 814 1, f 5;
#X obj -978 645 + 1;
#X obj -983 1527 s \$0-selected_rate;
#X obj -1854 -216 r \$0-selected_rate;
#X obj -814 571 r \$0-is_playing_flag;
#X floatatom -814 609 5 0 0 0 - - - 12;
#X obj -814 645 f;
#X obj -814 693 sel 0 1;
#X obj -683 775 s \$0-playback_speed_snapshot;
#X obj 1690 1334 r \$0-playback_speed_snapshot;
#X obj 1690 1387 snapshot~;
#X floatatom 1690 1423 10 0 0 0 - - - 12;
#X obj 1690 1473 s \$0-speed_change_pos;
#X obj 2234 283 r \$0-speed_change_pos;
#X obj -989 609 t b f;
#X obj 130 180 hradio 20 1 1 5 \$0-playback_speed_dial empty empty 0 -8 0 10 #e3dfd9 #5a5a5a #5a5a5a 2;
#X obj 132 97 lb;
#X msg 132 128 2;
#X obj -989 571 r \$0-playback_speed_dial;
#X obj 1896 1204 s~ \$0-playhead_pos;
#X obj -1256 541 r~ \$0-playhead_pos;
#X obj 317 180 hsl 235 19 0 1 0 0 empty \$0-playbar_data empty -2 -8 0 10 #e3dfd9 #5a5a5a #5a5a5a 0 1;
#X obj -1256 642 scale 0 \$1 0 1;
#X obj -1256 587 snapshot~;
#X obj -1159 587 r \$1_file_abs_end;
#X obj -1411 271 r \$0-is_playing_flag;
#X obj -1380 507 metro 20;
#X obj 1291 44 s \$0-playhead_reset;
#X obj -1306 498 r \$0-playhead_reset;
#X msg 1340 5 0;
#X obj 1380 -23 t b b;
#X obj -1256 684 s \$0-playbar_data;
#X obj 2068 691 r \$0-is_playing_flag;
#X floatatom 2068 737 5 0 0 0 - - - 12;
#X obj 2068 773 f;
#X obj 2068 813 sel 0 1;
#X obj 1930 768 t f b;
#X obj 2068 851 s \$0-press_play;
#X obj 1266 -79 r \$0-stop_button;
#X obj 1145 53 r \$0-play_button;
#X obj -1923 -277 r \$0-dir-change;
#X floatatom 1778 624 5 0 0 0 - - - 12;
#X obj 1767 665 f;
#X obj 1778 586 r \$0-playback_direction;
#X obj 1912 885 switch;
#X obj 1769 709 + 1;
#X obj 1835 682 bang;
#X obj 1995 813 +;
#X text 1873 534 slice position (and reverse offset);
#X text 2037 74 Playback Trigger Order;
#X obj 1996 243 r \$0-key_press_pos;
#X obj 1921 923 s \$0-key_press_pos;
#X msg 2205 851 0;
#X obj 2203 914 s \$0-unpause;
#X obj 1441 84 r \$0-unpause;
#X floatatom 1243 668 5 0 0 0 - - - 12;
#X obj 1243 704 f;
#X obj 1218 741 sel 0 1;
#X obj 1236 625 r \$0-is_paused_flag;
#X floatatom -743 652 5 0 0 0 - - - 12;
#X obj -743 688 f;
#X obj -750 731 sel 0 1;
#X obj -750 609 r \$0-is_paused_flag;
#X text 1433 676 vline playback and speed calculations;
#X text -995 466 playback speed change mechanism;
#X text -1295 -290 Master Numbers;
#X text 303 22 Controls;
#X text 1209 -148 Play/Pause/Stop Logic;
#X text 2023 1028 vline object and arrays;
#X obj -969 1077 knob 50 10 2000 0 100 empty \$0-rate_slew-duration-i #E3DFD9 #968E82 #5A5A5A 1 0 0 0 1 270 0 0 51 empty empty 0 12 6 -15 0 1 0 0;
#X obj -1033 1092 f;
#X floatatom -969 1151 5 0 0 0 - - - 12;
#X obj -969 1187 f;
#X text -987 1050 slew duration;
#X obj -892 1187 f;
#X text -892 1050 exponent/curve control;
#X obj -892 1077 knob 50 -1 0 0 0 empty \$0-rate_slew_curve_i #E3DFD9 #968E82 #5A5A5A 1 0 0 0 1 270 0 0 0 empty empty 0 12 6 -15 0 1 0 0;
#X floatatom -892 1151 5 0 0 0 - - - 12;
#X obj -983 1338 curve~;
#X obj -983 1235 pack f f f;
#X msg -983 1269 \$1 \$2 \$3;
#X obj -1033 1136 t f b b;
#X obj -983 1303 t a b;
#X obj -983 1452 cyclone/snapshot~;
#X msg -882 1411 5;
#X obj -954 1405 tgl 25 0 empty empty empty 17 7 0 10 #e3dfd9 #5a5a5a #5a5a5a 0 1;
#X obj -954 1007 t f b;
#X msg -907 1316 0;
#X obj -1041 1559 s \$0-slew_bang;
#X obj -841 518 r \$0-slew_bang;
#X obj -1041 1527 bang;
#X obj -1041 1426 f;
#X obj -854 941 f;
#X obj -1047 941 f;
#X obj -978 688 t b f;
#X obj -827 874 sel 0 1;
#X obj -827 843 f;
#X floatatom -814 807 5 0 0 0 - - - 16;
#X obj -1802 76 tgl 25 0 empty \$0-slew_engage-i empty 17 7 0 10 #e3dfd9 #5a5a5a #5a5a5a 0 1;
#X obj -1798 12 lb;
#X msg -1798 50 0;
#X obj -1041 1392 t b b;
#X obj -882 1374 lb;
#X floatatom -1802 116 5 0 0 0 - - - 12;
#X obj 142 329 knob 50 10 2000 0 100 \$0-rate_slew-duration-i empty #E3DFD9 #968E82 #5A5A5A 1 0 0 0 1 270 0 0 10 empty empty 0 12 6 -15 0 1 0 0;
#X obj 235 329 knob 50 -1 0 0 0 \$0-rate_slew_curve_i empty #E3DFD9 #968E82 #5A5A5A 1 0 0 0 1 270 0 0 0 empty empty 0 12 6 -15 0 1 0 0;
#X obj 196 247 tgl 25 0 \$0-slew_engage-i empty empty 17 7 0 10 #e3dfd9 #5a5a5a #5a5a5a 0 1;
#X text 224 287 slew curve;
#X text 142 287 slew time;
#X floatatom 142 389 7 0 0 0 - - - 12;
#X floatatom 235 386 7 0 0 0 - - - 12;
#X text 172 214 slew engage;
#X obj 404 247 tgl 25 0 \$0-direction_slew_i empty empty 17 7 0 10 #e3dfd9 #5a5a5a #5a5a5a 0 1;
#X text 349 214 direction change slew;
#X obj -1619 76 tgl 25 0 empty \$0-direction_slew_i empty 17 7 0 10 #e3dfd9 #5a5a5a #5a5a5a 0 1;
#X obj -1615 5 lb;
#X msg -1615 43 0;
#X floatatom -1619 116 5 0 0 0 - - - 12;
#X obj -1619 152 s \$0-direction_slew_engaged;
#X obj -1802 152 s \$0-slew_engaged;
#X obj -814 775 r \$0-slew_engaged;
#X msg -829 1358 stop;
#X obj -1041 1493 change;
#X obj -967 1493 change;
#X text 882 600 playback dir;
#X text 905 741 playback dir;
#X obj 1054 679 lb;
#X msg 1054 720 0;
#X obj -1923 -131 t b f;
#X obj -1946 -31 s \$0-dir_slew_logic;
#X obj 1690 1557 snapshot~;
#X floatatom 1690 1593 10 0 0 0 - - - 12;
#X obj 1690 1517 r \$0-dir-slew-snapshot;
#X obj 1690 1623 s \$0-dir-slew-pos;
#X obj -210 1373 s \$0-selected_rate;
#X obj -238 893 knob 50 10 2000 0 100 empty \$0-dir_slew-duration-i #E3DFD9 #968E82 #5A5A5A 1 0 0 0 1 270 0 0 51 empty empty 0 12 6 -15 0 1 0 0;
#X floatatom -238 952 5 0 0 0 - - - 12;
#X text -256 866 slew duration;
#X obj -59 1009 f;
#X text -7 967 exponent/curve control;
#X obj -59 894 knob 50 -1 0 0 0 empty \$0-dir_slew_curve_i #E3DFD9 #968E82 #5A5A5A 1 0 0 0 1 270 0 0 0 empty empty 0 12 6 -15 0 1 0 0;
#X floatatom -59 968 5 0 0 0 - - - 12;
#X obj -210 1268 curve~;
#X obj -210 1309 cyclone/snapshot~;
#X msg -109 1281 5;
#X obj -280 1385 bang;
#X obj -109 1249 lb;
#X obj -280 1350 change;
#X obj -210 1343 change;
#X obj -132 820 r \$0-rate_multiplier;
#X obj -160 924 f;
#X obj -160 708 r \$0-dir_slew_logic;
#X obj -150 1019 f;
#X obj -160 746 t b b;
#X obj 592 249 tgl 25 0 \$0-tape_stop_slew empty empty 17 7 0 10 #e3dfd9 #5a5a5a #5a5a5a 0 1;
#X text 574 214 tape stop;
#X obj -1667 -125 f;
#X floatatom -1667 -174 5 0 0 0 - - - 12;
#X obj -1667 -76 s \$0-stored_rate;
#X obj -1667 -216 r \$0-active_rate;
#X obj -1149 1007 s \$0-active_rate;
#X obj -238 991 / 2;
#X obj 2118 136 r \$0-dir-slew-pos;
#X obj 807 790 print direction_change_bang;
#X obj 2533 439 s \$0-update_loop_start;
#X obj 2707 439 s \$0-update_loop_end;
#X obj 1721 323 t b b b b b b b;
#X obj 1857 323 t b b b b b b b;
#X obj 2024 323 t f b b b b b b;
#X obj 1067 790 r \$0-update_loop_start;
#X obj 1358 747 r \$0-update_loop_end;
#X obj 2307 136 r \$0-stop_settings_reset;
#X obj 2307 185 t b b b b b b b;
#X msg 2280 244 0;
#X obj 2110 205 t f b b b b b;
#X obj -59 1210 delay;
#X obj 18 1186 s \$0-direction_swap_trigger;
#X obj 4 1113 t b b b;
#X obj 33 1155 s \$0-playback_speed_snapshot;
#X obj 4 1212 s \$0-playback_speed_snapshot;
#X obj -181 1178 t a b b;
#X obj -146 1268 tgl 25 0 empty empty empty 17 7 0 10 #e3dfd9 #5a5a5a #5a5a5a 0 1;
#X msg -106 1019 0;
#X text -1731 -290 Playback States;
#X floatatom -406 1137 5 0 0 0 - - - 12;
#X obj -417 1169 f;
#X obj -417 1202 sel 0 1;
#X obj -406 1101 r \$0-direction_slew_engaged;
#X obj -403 1239 f;
#X obj -160 956 t b f b b b;
#X obj -404 1321 s \$0-direction_swap_trigger;
#X obj 2416 285 t f b b b b b;
#X msg -226 1216 \$1 0 0 0 \$2 \$3 \$4 \$2 \$3;
#X obj -106 1125 pack f f f f;
#X obj -4 1086 f;
#X floatatom -4 1053 5 0 0 0 - - - 12;
#X obj -751 946 s \$0-selected_rate_mult;
#X obj -4 1019 r \$0-selected_rate_mult;
#X obj -9 1332 s \$0-selected_rate;
#X obj -52 1268 f;
#X obj 344 329 knob 50 10 2000 0 100 \$0-dir_slew-duration-i empty #E3DFD9 #968E82 #5A5A5A 1 0 0 0 1 270 0 0 51 empty empty 0 12 6 -15 0 1 0 0;
#X text 326 287 slew duration;
#X floatatom 344 386 7 0 0 0 - - - 12;
#X obj 434 329 knob 50 -1 0 0 0 \$0-dir_slew_curve_i empty #E3DFD9 #968E82 #5A5A5A 1 0 0 0 1 270 0 0 0 empty empty 0 12 6 -15 0 1 0 0;
#X floatatom 434 386 7 0 0 0 - - - 12;
#X text 423 287 slew curve;
#X obj 2835 1715 s \$0-selected_rate;
#X obj 2810 1306 knob 50 10 2000 0 100 empty \$0-stop_slew-duration-i #E3DFD9 #968E82 #5A5A5A 1 0 0 0 1 270 0 0 51 empty empty 0 12 6 -15 0 1 0 0;
#X floatatom 2810 1365 5 0 0 0 - - - 12;
#X text 2792 1279 slew duration;
#X obj 2999 1393 f;
#X text 3070 1293 exponent/curve control;
#X obj 2999 1278 knob 50 -1 0 0 0 empty \$0-stop_slew_curve_i #E3DFD9 #968E82 #5A5A5A 1 0 0 0 1 270 0 0 0 empty empty 0 12 6 -15 0 1 0 0;
#X floatatom 2999 1352 5 0 0 0 - - - 12;
#X obj 2835 1590 curve~;
#X obj 2835 1631 cyclone/snapshot~;
#X msg 2936 1603 5;
#X obj 2770 1715 bang;
#X obj 2936 1571 lb;
#X obj 2770 1665 change;
#X obj 2835 1665 change;
#X obj 2932 1125 r \$0-rate_multiplier;
#X obj 2898 1288 f;
#X obj 2898 1439 f;
#X obj 2890 1033 t b b;
#X text 3001 1537 start curve;
#X obj 2864 1500 t a b b;
#X obj 2899 1590 tgl 25 0 empty empty empty 17 7 0 10 #e3dfd9 #5a5a5a #5a5a5a 0 1;
#X msg 2959 1474 0;
#X obj 3165 1465 r \$0-selected_rate_mult;
#X obj 3120 1530 s \$0-selected_rate;
#X obj 3120 1503 f;
#X obj 1563 1387 snapshot~;
#X floatatom 1563 1423 10 0 0 0 - - - 12;
#X obj 1563 1334 r \$0-stop_snapshot;
#X obj 1563 1473 s \$0-stop_pos;
#X obj 3036 1070 s \$0-stop-snapshot;
#X obj 2280 75 r \$0-stop_pos;
#X msg 2835 1538 \$1 0 0 0 \$2 \$3;
#X obj 2864 1474 pack f f f;
#X obj 3537 1439 r \$0-loop_start;
#X obj 3524 1548 f;
#X obj 3524 1603 pack f;
#X msg 3523 1668 \$1 0;
#X obj 3490 1720 s \$0-vline_0;
#X obj 2349 1061 r \$0-vline_0;
#X obj 2880 1325 t f b b b;
#X obj 2890 943 sel 0 1;
#X obj 2890 886 f;
#X obj 3157 809 tgl 25 0 empty \$0-tape_stop_slew empty 17 7 0 10 #e3dfd9 #5a5a5a #5a5a5a 0 1;
#X obj 543 329 knob 50 10 2000 0 100 \$0-stop_slew-duration-i empty #E3DFD9 #968E82 #5A5A5A 1 0 0 0 1 270 0 0 51 empty empty 0 12 6 -15 0 1 0 0;
#X floatatom 543 388 7 0 0 0 - - - 12;
#X obj 614 329 knob 50 -1 0 0 0 \$0-stop_slew_curve_i empty #E3DFD9 #968E82 #5A5A5A 1 0 0 0 1 270 0 0 0 empty empty 0 12 6 -15 0 1 0 0;
#X floatatom 614 388 7 0 0 0 - - - 12;
#X text 517 287 slew duration;
#X text 614 287 slew curve;
#X obj 2770 1759 s \$0-stop_snapshot;
#X obj -1235 397 r \$0-stop_playbar;
#X msg -1271 427 0;
#X obj 3077 1715 s \$0-stop_playbar;
#X obj 2733 706 r \$0-is_playing_flag;
#X floatatom 2733 750 5 0 0 0 - - - 12;
#X obj 2821 821 sel 0 1;
#X obj 2821 786 f;
#X obj 1266 -45 t b b;
#X obj 3673 1465 r \$0-loop_end;
#X floatatom 3673 1491 5 0 0 0 - - - 12;
#X floatatom 3537 1503 5 0 0 0 - - - 12;
#X msg 2384 1156 stop;
#X msg 3213 1665 stop;
#X obj 3091 1581 t b b b;
#X obj 3091 1474 t b b b;
#X obj 20 746 r \$0-is_playing_flag;
#X floatatom 20 784 5 0 0 0 - - - 12;
#X obj 20 820 f;
#X obj 20 868 sel 0 1;
#X floatatom 91 827 5 0 0 0 - - - 12;
#X obj 91 863 f;
#X obj 84 906 sel 0 1;
#X obj 84 784 r \$0-is_paused_flag;
#X obj -280 1423 s \$0-dir_slew_bang;
#X obj -22 708 r \$0-dir_slew_bang;
#X obj -417 1350 s \$0-dir_slew_bang;
#X obj 228 1025 s \$0-dir-slew-snapshot;
#X obj 1610 314 print resume;
#X obj -51 1299 t b f;
#X obj -51 1362 s \$0-playback_speed_snapshot;
#X obj -495 887 r \$0-is_playing_flag;
#X floatatom -495 925 5 0 0 0 - - - 12;
#X obj -495 961 f;
#X obj -495 1009 sel 0 1;
#X floatatom -424 968 5 0 0 0 - - - 12;
#X obj -424 1004 f;
#X obj -431 1047 sel 0 1;
#X obj -431 925 r \$0-is_paused_flag;
#X obj 957 403 s \$0-direction_swap_trigger;
#X obj 990 783 change;
#X obj 1294 473 s \$0-dir-slew-snapshot;
#X obj -417 1269 t b b;
#X floatatom -1411 325 5 0 0 0 - - - 12;
#X obj -1411 374 sel 0 1;
#X obj -1205 451 t b b;
#X msg 3125 1650 1 0;
#X obj 2744 917 print stop1;
#X obj 2745 1189 print sto 2;
#X obj 3073 1832 print stop-playbar;
#X obj -1051 334 print stop_playbar;
#X obj 1928 128 r \$1-sample_load_bang;
#X obj -918 -228 r \$1_sample_load_bang;
#X obj 1928 157 t b b;
#X obj 1006 897 lb;
#X msg 1006 923 1;
#X floatatom -1960 38 5 0 0 0 - - - 12;
#X obj -1960 63 f;
#X floatatom -2155 39 5 0 0 0 - - - 12;
#X obj 1528 923 r \$0-project_bpm_i;
#X obj 1665 923 r \$0-num_beats_for_segment_i;
#X obj -2155 13 r \$1-num_beats_for_segment;
#X obj -2155 152 s \$0-num_beats_for_segment_i;
#X floatatom -2143 -95 5 0 0 0 - - - 12;
#X obj -2143 -165 tgl 25 0 empty empty empty 17 7 0 10 #e3dfd9 #5a5a5a #5a5a5a 0 1;
#X obj -2143 -31 s \$0-clock_mode_enable_i;
#X obj 1665 967 r \$0-clock_mode_enable_i;
#X obj -2143 -240 r \$1-clock_mode_enabled;
#X obj -2155 76 f;
#X obj -1960 12 r project_bpm;
#X obj -1960 152 s \$0-project_bpm_i;
#X obj 2088 1485 *~;
#X obj 2167 1454 *~;
#X obj 2237 1445 line~;
#X text 2286 1444 vca to audio out;
#X msg 2237 1387 1 5;
#X obj 1864 1623 print vline_message;
#X obj 2087 1539 s~ \$1-voice-audio-L;
#X obj 2168 1506 s~ \$1-voice-audio-R;
#X connect 0 0 4 0;
#X connect 0 0 190 0;
#X connect 1 0 0 0;
#X connect 2 0 3 0;
#X connect 3 0 4 1;
#X connect 3 0 191 1;
#X connect 4 0 5 0;
#X connect 5 0 180 0;
#X connect 6 0 7 0;
#X connect 7 0 23 0;
#X connect 8 0 9 0;
#X connect 9 0 24 0;
#X connect 10 0 11 0;
#X connect 11 0 16 0;
#X connect 11 1 17 0;
#X connect 12 0 13 0;
#X connect 13 0 472 0;
#X connect 14 0 15 0;
#X connect 15 0 471 0;
#X connect 16 0 14 0;
#X connect 17 0 12 0;
#X connect 18 0 15 0;
#X connect 18 0 13 0;
#X connect 18 0 86 0;
#X connect 18 0 109 0;
#X connect 18 0 95 0;
#X connect 18 0 154 0;
#X connect 18 0 163 0;
#X connect 18 0 274 0;
#X connect 18 0 80 0;
#X connect 18 0 376 0;
#X connect 19 0 18 0;
#X connect 19 0 475 0;
#X connect 19 0 476 0;
#X connect 21 0 272 0;
#X connect 22 0 26 0;
#X connect 25 0 27 0;
#X connect 26 0 31 0;
#X connect 27 0 32 0;
#X connect 28 0 29 0;
#X connect 29 0 30 0;
#X connect 30 0 69 0;
#X connect 31 0 38 0;
#X connect 32 0 39 0;
#X connect 33 0 34 0;
#X connect 35 0 36 0;
#X connect 35 0 101 0;
#X connect 36 0 37 0;
#X connect 37 0 33 0;
#X connect 40 0 50 0;
#X connect 41 0 52 0;
#X connect 43 0 44 0;
#X connect 44 0 87 0;
#X connect 44 0 46 0;
#X connect 44 0 84 0;
#X connect 45 0 41 1;
#X connect 47 0 104 0;
#X connect 47 0 136 0;
#X connect 47 0 428 0;
#X connect 48 0 87 0;
#X connect 50 0 89 0;
#X connect 50 1 41 0;
#X connect 52 0 90 0;
#X connect 52 1 92 0;
#X connect 52 1 439 0;
#X connect 52 1 441 0;
#X connect 53 0 84 0;
#X connect 54 0 46 0;
#X connect 55 0 65 1;
#X connect 56 0 74 1;
#X connect 56 0 68 0;
#X connect 57 0 66 1;
#X connect 58 0 75 1;
#X connect 58 0 68 1;
#X connect 59 0 60 1;
#X connect 60 0 68 2;
#X connect 61 0 56 1;
#X connect 62 0 58 1;
#X connect 63 0 64 1;
#X connect 64 0 440 0;
#X connect 65 0 61 1;
#X connect 65 0 62 2;
#X connect 66 0 61 2;
#X connect 66 0 62 1;
#X connect 67 1 81 0;
#X connect 67 1 61 0;
#X connect 67 1 62 0;
#X connect 68 0 73 0;
#X connect 70 0 71 1;
#X connect 71 0 68 3;
#X connect 72 0 122 0;
#X connect 73 0 74 0;
#X connect 73 1 75 0;
#X connect 73 2 72 2;
#X connect 74 0 72 0;
#X connect 75 0 72 1;
#X connect 75 0 78 0;
#X connect 76 0 67 0;
#X connect 78 0 79 0;
#X connect 82 0 311 0;
#X connect 83 0 97 0;
#X connect 85 0 45 0;
#X connect 86 0 88 0;
#X connect 87 0 47 1;
#X connect 89 0 134 0;
#X connect 89 1 54 0;
#X connect 89 2 53 0;
#X connect 89 2 439 0;
#X connect 90 0 91 0;
#X connect 90 1 47 0;
#X connect 90 2 128 0;
#X connect 91 0 46 0;
#X connect 92 0 132 0;
#X connect 92 1 93 0;
#X connect 93 0 46 0;
#X connect 94 0 111 0;
#X connect 96 0 44 0;
#X connect 96 0 174 0;
#X connect 97 0 40 1;
#X connect 101 0 21 0;
#X connect 104 0 127 0;
#X connect 105 0 106 0;
#X connect 106 0 107 1;
#X connect 107 0 108 0;
#X connect 108 1 200 0;
#X connect 109 0 110 0;
#X connect 110 0 120 0;
#X connect 115 0 58 0;
#X connect 116 0 60 0;
#X connect 117 0 71 0;
#X connect 118 0 64 0;
#X connect 118 0 307 0;
#X connect 119 0 56 0;
#X connect 121 0 335 0;
#X connect 123 0 19 0;
#X connect 125 0 407 0;
#X connect 126 0 18 0;
#X connect 129 0 86 0;
#X connect 131 0 109 0;
#X connect 133 0 310 0;
#X connect 135 0 311 0;
#X connect 137 0 94 1;
#X connect 139 0 140 0;
#X connect 139 1 141 0;
#X connect 139 2 144 0;
#X connect 139 3 142 0;
#X connect 139 4 143 0;
#X connect 140 0 236 1;
#X connect 140 0 237 1;
#X connect 140 0 340 0;
#X connect 141 0 236 1;
#X connect 141 0 237 1;
#X connect 141 0 340 0;
#X connect 142 0 236 1;
#X connect 142 0 237 1;
#X connect 142 0 340 0;
#X connect 143 0 236 1;
#X connect 143 0 237 1;
#X connect 143 0 340 0;
#X connect 144 0 236 1;
#X connect 144 0 237 1;
#X connect 144 0 340 0;
#X connect 145 0 238 0;
#X connect 147 0 37 0;
#X connect 148 0 149 0;
#X connect 149 0 150 1;
#X connect 150 0 151 0;
#X connect 151 1 204 0;
#X connect 153 0 154 0;
#X connect 154 0 155 0;
#X connect 155 0 156 0;
#X connect 157 0 312 0;
#X connect 158 0 150 0;
#X connect 158 1 145 0;
#X connect 160 0 161 0;
#X connect 161 0 159 0;
#X connect 162 0 158 0;
#X connect 164 0 167 0;
#X connect 166 0 175 0;
#X connect 167 0 166 0;
#X connect 168 0 166 2;
#X connect 169 0 443 0;
#X connect 170 0 167 0;
#X connect 172 0 166 0;
#X connect 173 0 171 0;
#X connect 174 0 173 0;
#X connect 174 1 124 0;
#X connect 176 0 177 0;
#X connect 177 0 178 1;
#X connect 178 0 179 0;
#X connect 179 0 181 0;
#X connect 179 1 196 0;
#X connect 180 0 191 0;
#X connect 180 0 188 1;
#X connect 180 1 178 0;
#X connect 182 0 408 0;
#X connect 183 0 40 0;
#X connect 184 0 101 0;
#X connect 185 0 186 1;
#X connect 186 0 189 0;
#X connect 187 0 185 0;
#X connect 188 0 195 0;
#X connect 189 0 188 0;
#X connect 190 0 186 0;
#X connect 191 0 188 2;
#X connect 194 0 312 0;
#X connect 196 0 197 0;
#X connect 198 0 45 0;
#X connect 199 0 200 1;
#X connect 200 0 201 0;
#X connect 201 0 130 0;
#X connect 202 0 199 0;
#X connect 203 0 204 1;
#X connect 204 0 205 0;
#X connect 205 0 152 0;
#X connect 206 0 203 0;
#X connect 213 0 215 0;
#X connect 214 0 225 0;
#X connect 215 0 216 0;
#X connect 216 0 223 1;
#X connect 218 0 223 2;
#X connect 220 0 221 0;
#X connect 221 0 218 0;
#X connect 222 0 227 0;
#X connect 222 1 245 0;
#X connect 222 1 229 0;
#X connect 223 0 224 0;
#X connect 224 0 226 0;
#X connect 225 0 223 0;
#X connect 225 0 235 1;
#X connect 225 1 216 0;
#X connect 225 2 218 0;
#X connect 226 0 222 0;
#X connect 226 1 229 0;
#X connect 227 0 267 0;
#X connect 227 0 266 0;
#X connect 228 0 227 1;
#X connect 229 0 227 0;
#X connect 230 0 214 0;
#X connect 230 1 231 0;
#X connect 231 0 229 0;
#X connect 233 0 150 0;
#X connect 234 0 232 0;
#X connect 235 0 146 0;
#X connect 236 0 230 0;
#X connect 236 0 304 0;
#X connect 237 0 304 0;
#X connect 237 0 146 0;
#X connect 238 0 240 0;
#X connect 238 1 139 0;
#X connect 239 0 237 0;
#X connect 239 1 236 0;
#X connect 240 0 239 0;
#X connect 241 0 240 1;
#X connect 242 0 247 0;
#X connect 243 0 244 0;
#X connect 244 0 242 0;
#X connect 245 0 232 0;
#X connect 245 1 235 0;
#X connect 246 0 228 0;
#X connect 247 0 263 0;
#X connect 248 0 253 0;
#X connect 249 0 254 0;
#X connect 258 0 261 0;
#X connect 259 0 260 0;
#X connect 260 0 258 0;
#X connect 261 0 262 0;
#X connect 264 0 241 0;
#X connect 265 0 227 1;
#X connect 266 0 234 0;
#X connect 267 0 146 0;
#X connect 270 0 271 0;
#X connect 271 0 64 1;
#X connect 272 0 273 0;
#X connect 272 1 20 0;
#X connect 274 0 275 0;
#X connect 275 0 277 0;
#X connect 276 0 274 0;
#X connect 279 0 280 0;
#X connect 280 0 305 0;
#X connect 282 0 337 2;
#X connect 284 0 285 0;
#X connect 285 0 282 0;
#X connect 286 0 287 0;
#X connect 286 1 325 0;
#X connect 286 1 343 0;
#X connect 287 0 292 0;
#X connect 287 0 291 0;
#X connect 288 0 287 1;
#X connect 289 0 424 0;
#X connect 290 0 288 0;
#X connect 291 0 289 0;
#X connect 292 0 278 0;
#X connect 293 0 294 1;
#X connect 294 0 333 0;
#X connect 295 0 297 0;
#X connect 296 0 337 1;
#X connect 296 0 319 1;
#X connect 297 0 294 0;
#X connect 297 1 418 0;
#X connect 300 0 302 0;
#X connect 301 0 300 0;
#X connect 303 0 301 0;
#X connect 305 0 296 1;
#X connect 306 0 318 0;
#X connect 310 0 94 0;
#X connect 310 2 308 0;
#X connect 310 3 309 0;
#X connect 310 5 113 0;
#X connect 310 6 114 0;
#X connect 311 0 111 0;
#X connect 311 1 112 0;
#X connect 311 2 308 0;
#X connect 311 3 309 0;
#X connect 311 5 113 0;
#X connect 311 6 114 0;
#X connect 312 0 111 0;
#X connect 312 1 112 0;
#X connect 312 2 308 0;
#X connect 312 3 309 0;
#X connect 312 5 113 0;
#X connect 312 6 114 0;
#X connect 313 0 65 0;
#X connect 314 0 66 0;
#X connect 315 0 316 0;
#X connect 316 0 317 0;
#X connect 316 1 112 0;
#X connect 316 2 308 0;
#X connect 316 3 309 0;
#X connect 316 5 113 0;
#X connect 316 6 114 0;
#X connect 317 0 111 0;
#X connect 318 0 111 0;
#X connect 318 1 112 0;
#X connect 318 2 113 0;
#X connect 318 3 114 0;
#X connect 318 4 308 0;
#X connect 318 5 309 0;
#X connect 319 0 321 0;
#X connect 321 0 323 0;
#X connect 321 1 320 0;
#X connect 321 2 322 0;
#X connect 324 0 336 0;
#X connect 324 1 319 0;
#X connect 324 2 325 0;
#X connect 325 0 287 1;
#X connect 326 0 325 0;
#X connect 328 0 329 1;
#X connect 329 0 330 0;
#X connect 330 0 442 0;
#X connect 330 1 332 0;
#X connect 331 0 328 0;
#X connect 332 0 337 0;
#X connect 333 0 433 0;
#X connect 333 1 332 1;
#X connect 333 2 326 0;
#X connect 333 3 296 0;
#X connect 333 4 282 0;
#X connect 335 0 111 0;
#X connect 335 1 112 0;
#X connect 335 2 309 0;
#X connect 335 3 308 0;
#X connect 335 4 113 0;
#X connect 335 5 114 0;
#X connect 336 0 286 0;
#X connect 337 0 324 0;
#X connect 338 0 337 3;
#X connect 339 0 338 0;
#X connect 341 0 339 0;
#X connect 341 0 343 1;
#X connect 343 0 429 0;
#X connect 344 0 346 0;
#X connect 347 0 348 0;
#X connect 351 0 352 0;
#X connect 352 0 367 1;
#X connect 354 0 383 2;
#X connect 356 0 357 0;
#X connect 357 0 354 0;
#X connect 358 0 359 0;
#X connect 358 1 371 0;
#X connect 358 1 415 0;
#X connect 359 0 364 0;
#X connect 359 0 363 0;
#X connect 360 0 359 1;
#X connect 361 0 400 0;
#X connect 362 0 360 0;
#X connect 363 0 361 0;
#X connect 364 0 350 0;
#X connect 365 0 366 1;
#X connect 366 0 390 0;
#X connect 367 0 383 1;
#X connect 368 0 366 0;
#X connect 368 1 380 0;
#X connect 370 0 382 0;
#X connect 370 2 371 0;
#X connect 371 0 359 1;
#X connect 372 0 371 0;
#X connect 373 0 375 1;
#X connect 375 0 374 0;
#X connect 376 0 377 0;
#X connect 377 0 379 0;
#X connect 378 0 376 0;
#X connect 381 0 318 0;
#X connect 382 0 358 0;
#X connect 383 0 370 0;
#X connect 384 0 411 0;
#X connect 385 0 386 0;
#X connect 386 0 387 0;
#X connect 387 0 388 0;
#X connect 389 0 18 0;
#X connect 390 0 383 0;
#X connect 390 1 372 0;
#X connect 390 2 367 0;
#X connect 390 3 354 0;
#X connect 391 0 414 0;
#X connect 391 1 368 0;
#X connect 392 0 391 0;
#X connect 393 0 392 1;
#X connect 394 0 395 0;
#X connect 396 0 397 0;
#X connect 401 0 402 0;
#X connect 401 0 450 0;
#X connect 402 0 175 0;
#X connect 402 0 170 0;
#X connect 404 0 405 0;
#X connect 405 0 407 1;
#X connect 406 0 414 0;
#X connect 406 1 392 0;
#X connect 407 0 406 0;
#X connect 408 0 44 0;
#X connect 408 1 174 0;
#X connect 409 0 410 0;
#X connect 411 0 385 1;
#X connect 412 0 18 0;
#X connect 413 0 388 0;
#X connect 414 0 403 0;
#X connect 414 0 449 0;
#X connect 414 1 446 0;
#X connect 414 2 413 0;
#X connect 415 0 414 0;
#X connect 415 2 375 0;
#X connect 416 0 417 0;
#X connect 417 0 418 1;
#X connect 418 0 419 0;
#X connect 419 1 421 0;
#X connect 420 0 421 1;
#X connect 421 0 422 0;
#X connect 422 0 427 0;
#X connect 423 0 420 0;
#X connect 425 0 418 0;
#X connect 429 0 430 0;
#X connect 429 1 342 0;
#X connect 431 0 432 0;
#X connect 432 0 433 1;
#X connect 433 0 434 0;
#X connect 434 1 436 0;
#X connect 435 0 436 1;
#X connect 436 0 437 0;
#X connect 437 0 329 0;
#X connect 438 0 435 0;
#X connect 440 0 76 0;
#X connect 442 0 426 0;
#X connect 442 1 334 0;
#X connect 443 0 444 0;
#X connect 444 1 170 0;
#X connect 446 0 388 0;
#X connect 451 0 453 0;
#X connect 453 0 309 0;
#X connect 453 0 308 0;
#X connect 453 0 114 0;
#X connect 453 0 113 0;
#X connect 453 0 112 0;
#X connect 454 0 455 0;
#X connect 455 0 61 0;
#X connect 455 0 62 0;
#X connect 456 0 457 0;
#X connect 457 0 470 0;
#X connect 458 0 468 0;
#X connect 459 0 68 4;
#X connect 460 0 68 5;
#X connect 461 0 458 0;
#X connect 463 0 465 0;
#X connect 464 0 463 0;
#X connect 466 0 68 6;
#X connect 467 0 464 0;
#X connect 468 0 462 0;
#X connect 469 0 456 0;
#X connect 471 0 477 0;
#X connect 472 0 478 0;
#X connect 473 0 472 1;
#X connect 473 0 471 1;
#X connect 475 0 473 0;
