#N canvas 827 239 734 565 12;
#X obj 196 112 bng 25 250 50 0 \$0-play_button \$1-press_play empty 17 7 0 10 #e3dfd9 #5a5a5a #5a5a5a;
#X obj 274 112 bng 25 250 50 0 \$0-stop_button empty empty 17 7 0 10 #e3dfd9 #5a5a5a #5a5a5a;
#X text 173 83 Play/Pause;
#X text 266 83 stop;
#X obj 361 112 bng 25 250 50 0 \$0-dir_change empty empty 17 7 0 10 #e3dfd9 #5a5a5a #5a5a5a;
#X text 319 83 Direction Change;
#X text 34 111 playback speed;
#X obj 34 155 hradio 20 1 1 5 \$0-playback_speed_dial empty empty 0 -8 0 10 #e3dfd9 #5a5a5a #5a5a5a 2;
#X obj 19 53 lb;
#X msg 19 84 2;
#X obj 167 155 hsl 499 19 0 1 0 0 empty \$0-playbar_data_i empty -2 -8 0 10 #e3dfd9 #5a5a5a #5a5a5a 0 1;
#X text 361 39 Controls;
#X obj 477 112 bng 25 250 50 0 \$0-record_button_bang empty empty 17 7 0 10 #e3dfd9 #5a5a5a #5a5a5a;
#X obj 575 112 bng 25 250 50 0 \$0-delete_buffer empty empty 17 7 0 10 #e3dfd9 #5a5a5a #5a5a5a;
#X text 546 83 delete buffer, f 12;
#X text 448 83 Record Arm, f 12;
#X obj 188 266 popmenu 128 26 12 #E3DFD9 #5A5A5A \  \$0-boot_buffer_GUI_number \$0-selected_buffer_GUI_number empty empty 1 0 -1 1 0 1 0 0 0 0 0 select 1 2 3 4 5 6 7 8 9 10 11 12 13 14 15 16;
#X obj 34 266 popmenu 128 26 12 #E3DFD9 #5A5A5A \  \$0-boot_buffer_GUI_name \$0-selected_buffer_GUI_name empty empty 1 0 -1 1 0 1 0 0 0 0 0 live_buffer sample_buffer;
#X obj 31 356 popmenu 142 26 12 #E3DFD9 #5A5A5A Key\ Quantizing \$0-key_quantize_setup \$0-key_quantize_selection empty empty 1 0 -1 1 0 1 0 0 0 0 0 1/64 1/32 1/16 1/8 1/4 1/2 1;
#X obj 216 356 popmenu 128 26 12 #E3DFD9 #5A5A5A Beat\ Reset \$0-beat_reset_setup \$0-beat_reset_selection empty empty 1 0 -1 1 0 1 0 0 0 0 0 1 2 3 4 5 6 7 8;
#X msg -122 -546 clear \, add 1 2 3 4 5 6 7 8;
#X text 216 322 Beat Reset;
#X text 31 322 Key/Input Quantizer;
#X msg -381 -546 clear \, add 1/64 1/32 1/16 1/8 1/4 1/2 1;
#N canvas 733 172 450 300 buffer_selection_setup_and_logic 0;
#X obj -17 989 f;
#X obj -184 989 sel 0 1;
#X obj -272 1171 pack s f;
#X obj -272 1235 s \$0-send_target;
#X msg -118 812 clear \, add select 1 2 3 4 5 6 7 8 9 10 11 12 13 14 15 16;
#X obj -184 633 route;
#X obj -131 557 lb;
#X obj -133 589 f \$1;
#X obj -184 526 r \$1-loop_buffer_default_selection;
#X msg -182 709 0;
#X obj -24 709 f \$1;
#X msg -272 1205 symbol \$2\$1;
#X obj -238 1088 symbol _l_b;
#X obj -47 1235 s \$0-buffer_ID, f 15;
#X obj -143 1088 symbol live_buffer_;
#X obj -47 1144 pack s f;
#X msg -47 1189 symbol \$1\$2;
#X obj -328 1088 symbol _s_b;
#X obj -1 1088 symbol sample_buffer_, f 22;
#X msg -147 781 clear \, add live_buffer sample_buffer;
#X obj 66 1189 s \$0-record_head_id;
#X obj -184 658 t b b b b;
#X obj -30 939 t b f;
#X obj -339 912 r \$0-selected_buffer_GUI_name;
#X obj -328 842 s \$0-boot_buffer_GUI_name;
#X obj -30 852 s \$0-boot_buffer_GUI_number;
#X obj -30 901 r \$0-selected_buffer_GUI_number;
#X obj -212 1304 print target;
#X obj -19 1309 print ID;
#X obj 105 1013 s \$0-incoming_global_buffer_route, f 32;
#X obj -433 687 r \$0-loaded_sample;
#X obj -433 725 t b b;
#X msg -425 782 2;
#X obj -387 748 f \$1;
#X obj -402 609 bng 25 250 50 0 empty empty empty 17 7 0 10 #e3dfd9 #5a5a5a #5a5a5a;
#X connect 0 0 2 1;
#X connect 0 0 15 1;
#X connect 0 0 29 0;
#X connect 1 0 12 0;
#X connect 1 0 14 0;
#X connect 1 1 17 0;
#X connect 1 1 18 0;
#X connect 2 0 11 0;
#X connect 4 0 25 0;
#X connect 5 0 21 0;
#X connect 6 0 7 0;
#X connect 7 0 5 1;
#X connect 8 0 5 0;
#X connect 9 0 24 0;
#X connect 10 0 25 0;
#X connect 11 0 3 0;
#X connect 11 0 27 0;
#X connect 12 0 2 0;
#X connect 14 0 15 0;
#X connect 15 0 16 0;
#X connect 15 0 20 0;
#X connect 16 0 13 0;
#X connect 16 0 28 0;
#X connect 17 0 2 0;
#X connect 18 0 15 0;
#X connect 19 0 24 0;
#X connect 21 0 9 0;
#X connect 21 1 10 0;
#X connect 21 2 19 0;
#X connect 21 3 4 0;
#X connect 22 0 2 0;
#X connect 22 0 15 0;
#X connect 22 1 0 0;
#X connect 23 0 1 0;
#X connect 26 0 22 0;
#X connect 30 0 31 0;
#X connect 31 0 32 0;
#X connect 31 1 33 0;
#X connect 32 0 24 0;
#X connect 33 0 25 0;
#X connect 34 0 31 0;
#X restore 7 -243 pd buffer_selection_setup_and_logic;
#X text 126 228 Buffer Select;
#N canvas 733 172 450 300 playhead_logic 0;
#X obj 353 303 r~ \$0-playhead_pos;
#X obj 353 394 scale 0 \$1 0 1;
#X obj 353 339 snapshot~;
#X obj 198 68 r \$0-is_playing_flag;
#X obj 229 259 metro 20;
#X obj 314 190 r \$0-playhead_reset;
#X obj 265 126 r \$0-stop_playbar;
#X msg 267 157 0;
#X floatatom 198 97 5 0 0 0 - - - 12;
#X obj 198 126 sel 0 1;
#X obj 353 485 s \$0-playbar_data_i;
#X obj 440 339 r \$0-set_active_loop_end;
#X obj 56 258 r \$0-set_active_loop_start;
#X connect 0 0 2 0;
#X connect 1 0 10 0;
#X connect 2 0 1 0;
#X connect 3 0 8 0;
#X connect 4 0 2 0;
#X connect 5 0 1 0;
#X connect 6 0 7 0;
#X connect 7 0 4 0;
#X connect 8 0 9 0;
#X connect 9 1 4 0;
#X connect 11 0 1 2;
#X connect 12 0 1 1;
#X restore 7 -207 pd playhead_logic;
#N canvas 733 172 450 300 buffer_&_loop 0;
#X obj 327 785 r \$0-set_active_loop_start;
#X obj 83 730 s \$0-set_active_loop_start;
#X obj 271 730 s \$0-set_active_loop_end;
#X obj 499 785 r \$0-set_active_loop_end;
#X floatatom 327 814 5 0 0 0 - - - 12;
#X floatatom 499 814 9 0 0 0 - - - 12;
#X obj 327 847 f;
#X obj 499 847 f;
#X obj 327 917 s \$0-loop_start;
#X obj 499 917 s \$0-loop_end;
#X obj 469 730 s \$0-rate_khz;
#X text 85 489 Master Numbers;
#X floatatom 271 699 13 0 0 0 - - - 12;
#X obj 271 667 f;
#X obj 469 667 f;
#X floatatom 184 814 7 0 0 0 - - - 12;
#X obj 184 847 f;
#X obj 620 667 f;
#X floatatom 184 881 5 0 0 0 - - - 12;
#X floatatom 469 699 5 0 0 0 - - - 12;
#X floatatom 499 879 7 0 0 0 - - - 12;
#X floatatom 327 881 5 0 0 0 - - - 12;
#X floatatom 85 701 5 0 0 0 - - - 12;
#X floatatom 620 699 5 0 0 0 - - - 12;
#X obj 96 630 r \$0-first_index;
#X obj 85 667 f;
#X obj 282 630 r \$0-last_index;
#X obj 233 490 r \$0-update_indexes;
#X obj 233 542 t b b b;
#X obj 469 613 r \$0-sample-rate;
#X obj 184 785 r \$0-slice_size_val;
#X obj 184 917 s \$0-slice_size;
#X obj 620 730 s \$0-buffer_content_flag;
#X obj 620 613 r \$0-live_buffer_content, f 23;
#X obj 429 189 route, f 6;
#X obj 426 160 r l_b_buffer_states;
#X obj 446 413 s \$0-first_index;
#X obj 464 384 s \$0-last_index;
#X obj 429 443 s \$0-sample-rate;
#X floatatom 485 207 5 0 0 0 - - - 12;
#X obj 429 266 unpack f f f f f;
#X obj 481 358 s \$0-slice_size_val;
#X obj 186 175 route, f 6;
#X obj 238 355 s \$0-first_index;
#X obj 256 326 s \$0-last_index;
#X obj 203 410 s \$0-sample-rate;
#X floatatom 242 193 5 0 0 0 - - - 12;
#X obj 221 384 s \$0-slice_size_val;
#X obj 186 144 r s_b_buffer_states;
#X obj 186 439 s \$0-loaded_update_indexes;
#X obj 499 329 s \$0-live_buffer_content;
#X obj 389 72 r \$0-incoming_global_buffer_route, f 32;
#X obj 838 67 r \$0-send_target;
#X obj 838 112 t b a;
#X msg 850 156 \$1_select_bang;
#X obj 850 197 symbol;
#X obj 838 254 s;
#X obj 760 214 symbol;
#X obj 745 254 s;
#X msg 760 175 \$1_load_up;
#X obj 990 208 symbol;
#X obj 979 249 s;
#X msg 990 175 \$1_delete_buffer;
#X obj 965 67 r \$0-delete_buffer;
#X obj 835 334 s \$0-update_indexes;
#X obj 731 115 t b b a;
#X obj 965 98 t b b;
#X obj 186 203 list;
#X obj 429 228 list;
#X obj 271 295 s \$0-loaded_sample;
#X obj 186 249 unpack f f f f f;
#X obj 336 252 bang;
#X obj 258 1015 print \$0-loop_start;
#X obj 480 1013 print \$0-loop_end;
#X obj 360 144 print \$0-icoming_route;
#X obj 315 203 t a b;
#X connect 0 0 4 0;
#X connect 3 0 5 0;
#X connect 4 0 6 0;
#X connect 5 0 7 0;
#X connect 6 0 21 0;
#X connect 7 0 20 0;
#X connect 12 0 2 0;
#X connect 13 0 12 0;
#X connect 14 0 19 0;
#X connect 15 0 16 0;
#X connect 16 0 18 0;
#X connect 17 0 23 0;
#X connect 18 0 31 0;
#X connect 19 0 10 0;
#X connect 20 0 9 0;
#X connect 20 0 73 0;
#X connect 21 0 8 0;
#X connect 21 0 72 0;
#X connect 22 0 1 0;
#X connect 23 0 32 0;
#X connect 24 0 25 1;
#X connect 25 0 22 0;
#X connect 26 0 13 1;
#X connect 27 0 28 0;
#X connect 28 0 25 0;
#X connect 28 1 13 0;
#X connect 28 2 14 0;
#X connect 29 0 14 1;
#X connect 30 0 15 0;
#X connect 33 0 17 0;
#X connect 34 0 68 0;
#X connect 35 0 34 0;
#X connect 39 0 34 1;
#X connect 40 0 38 0;
#X connect 40 1 36 0;
#X connect 40 2 37 0;
#X connect 40 3 41 0;
#X connect 40 4 50 0;
#X connect 42 0 67 0;
#X connect 46 0 42 1;
#X connect 48 0 42 0;
#X connect 51 0 46 0;
#X connect 51 0 39 0;
#X connect 51 0 74 0;
#X connect 52 0 53 0;
#X connect 52 0 62 0;
#X connect 52 0 65 0;
#X connect 53 0 56 0;
#X connect 53 1 54 0;
#X connect 54 0 55 0;
#X connect 55 0 56 1;
#X connect 57 0 58 1;
#X connect 59 0 57 0;
#X connect 60 0 61 1;
#X connect 62 0 60 0;
#X connect 63 0 66 0;
#X connect 65 0 64 0;
#X connect 65 1 58 0;
#X connect 65 2 59 0;
#X connect 66 0 64 0;
#X connect 66 1 61 0;
#X connect 67 0 75 0;
#X connect 68 0 40 0;
#X connect 70 0 49 0;
#X connect 70 1 45 0;
#X connect 70 2 47 0;
#X connect 70 3 43 0;
#X connect 70 4 44 0;
#X connect 71 0 69 0;
#X connect 75 0 70 0;
#X connect 75 1 71 0;
#X restore 7 -174 pd buffer_&_loop indexes_data;
#X obj 1415 9 f;
#X obj 1602 -673 lb;
#X msg 1568 -673 0;
#X floatatom 1426 -20 5 0 0 0 - - - 12;
#X obj 1416 311 s \$0-is_paused_flag;
#X obj 1431 217 f;
#X obj 1599 217 r \$0-pause_position;
#X text 1476 8 is paused;
#X obj 1415 37 sel 0 1;
#X obj 1181 37 s \$0-is_playing_flag;
#X obj 1426 -47 r \$0-is_paused_flag;
#X floatatom 1599 242 10 0 0 0 - - - 12;
#X msg 1419 181 1;
#X msg 1795 107 0;
#X msg 1431 248 \$1 0;
#X obj 1498 107 s \$0-pause_snapshot_bang;
#X obj 1330 -741 r \$0-stop_button;
#X obj 1810 131 s \$0-dir-slew-snapshot;
#X obj 959 -732 r \$0-play_button;
#X msg 1166 8 0;
#X obj 1164 65 s \$0-is_paused_flag;
#X msg 1184 -20 1;
#X obj 1545 -255 s \$0-is_playing_flag;
#X obj 1562 -282 s \$0-is_paused_flag;
#X obj 1579 -309 s \$0-pause_position;
#X obj 1330 -613 s \$0-zero_playstates;
#X obj 1566 -708 r \$0-zero_playstates;
#X obj 1596 -341 s \$0-record_arm_flag;
#X obj 1613 -370 s \$0-overdub_off;
#X obj 1773 -629 r \$0-endles_buffer_recording_flag;
#X floatatom 1773 -603 5 0 0 0 - - - 12;
#X obj 1762 -571 f;
#X obj 1762 -540 sel 0 1;
#X obj 1705 -451 s \$0-stop_endless_buffer_recording;
#X obj 1760 -480 s \$0-overdub_off;
#X obj 1705 -655 r \$0-timed_recording_flag;
#X floatatom 1687 -629 5 0 0 0 - - - 12;
#X obj 1677 -596 f;
#X obj 1677 -571 sel 0 1;
#X obj 1665 -422 s \$0-timed_record_stop;
#X obj 1839 -603 r \$0-overdub_recording_flag;
#X floatatom 1839 -577 5 0 0 0 - - - 12;
#X obj 1841 -540 f;
#X obj 1841 -514 sel 0 1;
#X floatatom 2199 -48 5 0 0 0 - - - 12;
#X floatatom 2256 -21 7 0 0 0 - - - 12;
#X obj 2199 9 *;
#X floatatom 2199 37 8 0 0 0 - - - 12;
#X obj 2297 6 r \$0-is_playing_flag;
#X floatatom 2297 37 5 0 0 0 - - - 12;
#X obj 2297 70 f;
#X obj 2297 113 sel 0 1;
#X obj 2199 61 t f b;
#X floatatom 2147 70 5 0 0 0 - - - 12;
#X obj 2147 97 f;
#X obj 2032 37 r \$0-playback_direction;
#X obj 2185 165 switch;
#X obj 2147 121 + 1;
#X obj 2244 113 +;
#X text 2147 -116 slice position (and reverse offset);
#X obj 1916 392 s \$0-key_press_pos;
#X msg 2313 141 0;
#X obj 2256 -48 r \$0-slice_size_val;
#X obj 2311 165 s \$0-is_paused_flag;
#X obj 1793 158 s \$0-is_paused_flag;
#X obj 1776 185 s \$0-playhead_dsp;
#X msg 1779 131 1;
#X msg 1450 131 0;
#X obj 1448 185 s \$0-playhead_dsp;
#X text 1548 -759 Stop Logic;
#X obj 822 -665 r \$0-is_playing_flag;
#X floatatom 911 -638 5 0 0 0 - - - 12;
#X obj 911 -612 f;
#X obj 911 -581 sel 0 1;
#X obj 970 -700 r \$0-record_arm_flag;
#X floatatom 970 -665 5 0 0 0 - - - 12;
#X obj 959 -638 f;
#X obj 959 -612 sel 0 1;
#X floatatom 865 -612 5 0 0 0 - - - 12;
#X obj 865 -581 f;
#X obj 865 -550 sel 0 1;
#X obj 775 -638 r \$0-is_paused_flag;
#X obj 1216 -20 s \$0-update_indexes;
#X obj 1079 -137 r \$0-initial_playback_logic;
#X obj 865 -487 s \$0-initial_playback_logic;
#X obj 1716 782 s \$0-jump_to_pos;
#X obj 1733 751 s \$0-loop-end-pos;
#X obj 1767 698 s \$0-rate_khz_trigger;
#X obj 1784 672 s \$0-update_loop_start;
#X obj 1801 646 s \$0-update_loop_end;
#X obj 1485 804 s \$0-playhead_initiate_bang;
#X obj 1096 65 f;
#X obj 963 -20 r \$0-first_index;
#X obj 879 -516 s \$0-pause_logic;
#X obj 1415 -78 r \$0-pause_logic;
#X obj 1699 535 r \$0-buffer_and_playhead_update_and_exe;
#X obj 1096 210 s \$0-buffer_and_playhead_update_and_exe;
#X obj 1759 220 f;
#X obj 1759 251 s \$0-buffer_and_playhead_update_and_exe;
#X text 775 -701 Play/pause state logic;
#X obj 2199 -23 t f b;
#X obj 2185 260 f;
#X text 2288 250 slice selection position;
#X obj 2185 288 s \$0-buffer_and_playhead_update_and_exe;
#X obj 2318 -655 int;
#X obj 2307 -552 select 0;
#X obj 2318 -623 * 64;
#X obj 2307 -513 spigot;
#X obj 2391 -552 tgl 21 0 empty empty empty 0 -11 0 12 #fcfcfc #000000 #000000 0 1;
#X text 2318 -820 Beat Reset;
#X floatatom 2359 -704 3 1 100 0 - - - 24;
#X msg 2318 -737 4;
#X obj 2307 -480 s \$0-reset-sync;
#X obj 2778 -673 r ppq;
#X msg 2780 -524 0;
#X obj 2831 -439 f;
#X text 2871 -440 event pending flag;
#X obj 2791 -400 spigot;
#X obj 2778 -569 t b b;
#X obj 2307 -587 mod;
#X obj 2822 -569 r row_\$1;
#X obj 2778 -636 mod, f 5;
#X obj 2778 -602 select 0;
#X obj 2791 -439 f;
#X text 2698 -440 event storage;
#X msg 2892 -495 0;
#X msg 2834 -484 1;
#X obj 2834 -524 t b f;
#X obj 2764 -353 switch;
#X obj 2666 -492 sel 1;
#X msg 2738 -400 1;
#X msg 2764 -400 2;
#X obj 2666 -524 r \$1-quantizer;
#X text 2777 -808 Quantizer;
#X text 2892 -674 rate for quantizing. Figure out math and add optinos with GUI;
#X floatatom 2842 -673 5 0 0 0 - - - 12;
#X obj 2842 -750 r \$0-key_quantize_selection;
#X obj 2359 -768 r \$0-beat_reset_selection;
#X obj 2842 -718 expr pow(2\\\, $f1);
#X obj 2798 -751 lb;
#X msg 2798 -718 4;
#X obj 2359 -737 + 1;
#X obj 2199 -83 r \$0-selected_slice;
#X obj 2764 -319 s \$0-selected_slice;
#X obj 2318 -768 lb;
#X obj 2264 -655 r ppq;
#X text 2424 -553 enable;
#X obj 2892 -524 lb;
#X obj 2644 -417 lb;
#X obj 1129 1190 f;
#X obj 1221 984 r \$0-loop_end;
#X obj 1279 1196 f;
#X obj 1337 1099 r \$0-rate_multiplier;
#X obj 1326 1129 f;
#X obj 1201 1048 switch, f 7;
#X obj 1155 541 r \$0-playback_direction;
#X obj 1144 583 f;
#X obj 1315 1018 f;
#X obj 1210 1012 f;
#N canvas 0 22 450 300 calc_duration 0;
#X obj 228 89 inlet start_pos;
#X obj 364 132 inlet target_pos;
#X obj 503 118 inlet rate_mult;
#X obj 619 132 inlet sr_khz;
#X obj 228 250 expr abs($f2-$f1);
#X obj 408 729 outlet duration_ms;
#X floatatom 228 289 7 0 0 0 - - - 12;
#X text 134 322 delta_samples;
#X obj 503 250 expr $f2 * $f1;
#X floatatom 503 289 5 0 0 0 - - - 12;
#X text 423 322 samples_per_ms;
#X obj 753 132 inlet bpm;
#X obj 858 132 inlet num_beats_for_segment;
#X obj 1499 132 inlet clock_mode_enabled;
#X obj 1499 168 f;
#X obj 266 370 pack f f;
#X obj 228 214 pack f f;
#X obj 248 323 f;
#X obj 364 323 f;
#X text 123 499 orig_duration_ms;
#X obj 266 500 f;
#X text 144 165 f_start_pos;
#X text 279 165 f_target_pos;
#X text 402 165 f_rate_multiplier;
#X text 555 165 f_sr_khz;
#X text 692 165 f_bpm;
#X text 905 167 f_num_beats;
#X text 1543 167 f_clock_mode;
#X obj 228 118 t f b b b b b b;
#X obj 408 532 switch;
#X obj 1514 285 + 1;
#X floatatom 1074 148 5 0 0 0 - - - 12;
#X obj 1074 122 r \$1_file_abs_end;
#X obj 1207 122 r \$1_file_abs_start;
#X floatatom 1207 148 5 0 0 0 - - - 12;
#X obj 753 221 expr ((60000 / $f1) * $f2 );
#X floatatom 753 250 5 0 0 0 - - - 16;
#X obj 753 281 f;
#X text 800 280 target duration ms;
#X obj 1095 230 expr ($f1 - $f2);
#X obj 1095 256 f;
#X text 1150 256 total number of samples;
#X obj 753 398 f;
#X text 937 370 Base Playback Rate;
#X obj 698 437 expr ($f1 * $f2);
#X obj 626 579 f;
#X text 672 578 synced ms;
#X obj 795 543 expr abs(($f2 - $f1) / $f3);
#X obj 919 486 expr (($f3 * 100) / ($f2 *$f1));
#X obj 753 157 t b f;
#X obj 266 421 expr ($f1 / $f2);
#X obj 858 166 f;
#X obj 1074 173 f;
#X obj 1207 173 f;
#X obj 162 214 f;
#X obj 364 166 f;
#X obj 503 166 f;
#X obj 619 166 f;
#X obj 753 185 f;
#X obj 150 -121 lb;
#X msg 150 -92 3;
#X msg 197 -5 1;
#X msg 721 70 5;
#X obj 203 -49 t b f f f f f f b f;
#X obj 190 421 /;
#X obj 1007 297 * 100;
#X obj 753 322 *;
#X obj 753 358 /;
#X obj 555 437 expr abs($f2 - $f1);
#X obj 652 500 /;
#X obj 623 330 switch;
#X obj 580 371 s \$0-samples_per_ms;
#X connect 0 0 28 0;
#X connect 1 0 55 0;
#X connect 2 0 56 0;
#X connect 3 0 57 0;
#X connect 4 0 6 0;
#X connect 6 0 17 0;
#X connect 8 0 9 0;
#X connect 9 0 18 0;
#X connect 9 0 70 1;
#X connect 11 0 49 0;
#X connect 12 0 51 0;
#X connect 13 0 14 0;
#X connect 14 0 30 0;
#X connect 16 0 4 0;
#X connect 17 0 64 0;
#X connect 18 0 64 1;
#X connect 20 0 29 1;
#X connect 28 0 16 0;
#X connect 28 0 54 0;
#X connect 28 1 55 0;
#X connect 28 2 56 0;
#X connect 28 3 57 0;
#X connect 28 4 58 0;
#X connect 28 5 51 0;
#X connect 28 5 52 0;
#X connect 28 6 14 0;
#X connect 28 6 53 0;
#X connect 29 0 5 0;
#X connect 30 0 29 0;
#X connect 30 0 70 0;
#X connect 31 0 52 0;
#X connect 32 0 31 0;
#X connect 33 0 34 0;
#X connect 34 0 53 0;
#X connect 35 0 36 0;
#X connect 36 0 37 0;
#X connect 37 0 54 0;
#X connect 37 0 66 1;
#X connect 39 0 40 0;
#X connect 40 0 65 0;
#X connect 42 0 44 1;
#X connect 44 0 69 1;
#X connect 45 0 29 2;
#X connect 49 0 28 0;
#X connect 49 1 58 1;
#X connect 51 0 35 1;
#X connect 52 0 39 0;
#X connect 53 0 39 1;
#X connect 54 0 68 0;
#X connect 55 0 16 1;
#X connect 55 0 68 1;
#X connect 56 0 8 0;
#X connect 56 0 44 0;
#X connect 57 0 8 1;
#X connect 57 0 66 0;
#X connect 58 0 35 0;
#X connect 59 0 60 0;
#X connect 60 0 63 0;
#X connect 61 0 16 0;
#X connect 62 0 52 0;
#X connect 63 0 61 0;
#X connect 63 1 55 0;
#X connect 63 2 56 0;
#X connect 63 3 57 0;
#X connect 63 4 58 0;
#X connect 63 5 51 0;
#X connect 63 6 62 0;
#X connect 64 0 20 0;
#X connect 65 0 67 0;
#X connect 66 0 67 1;
#X connect 66 0 70 2;
#X connect 67 0 42 0;
#X connect 68 0 69 0;
#X connect 69 0 45 0;
#X connect 70 0 71 0;
#X restore 1324 1279 pd calc_duration;
#X obj 1379 1041 r \$0-rate_khz;
#X obj 1368 1129 f;
#X obj 1223 1434 pack f f f;
#X obj 1248 1316 t b b f;
#X obj 1210 1397 f;
#X obj 1281 1397 f;
#X obj 1144 670 + 1;
#N canvas 733 172 450 300 loop_logic 0;
#X obj 174 157 r~ \$0-vline_output_sig;
#X obj 227 345 edge~;
#X text 180 131 v_out;
#X text 384 131 v_tarrget;
#X obj 227 218 >=~;
#X text 111 217 fwd_comp_result;
#X text 111 285 final_fwd_trigger_sig;
#X obj 174 526 numbox~ 8 15 100 #E3DFD9 #5A5A5A 10 0 0 0;
#X obj 370 526 numbox~ 6 18 100 #E3DFD9 #5A5A5A 10 0 0 0;
#X obj 227 404 f;
#X obj 227 460 s \$0-buffer_and_playhead_update_and_exe;
#X obj 238 374 r \$0-loop_start;
#X obj 543 324 edge~;
#X obj 370 167 sig~;
#X obj 543 42 * 3;
#X obj 473 89 -;
#X obj 481 167 sig~;
#X obj 278 -45 r \$0-loop_end;
#X obj 466 234 >=~;
#X floatatom 543 -35 5 0 0 0 - - - 12;
#X obj 482 526 numbox~ 6 18 100 #E3DFD9 #5A5A5A 10 0 0 0;
#X obj 556 460 s \$0-crossfade_control_messages;
#X msg 556 404 loop 1;
#X obj 543 433 s \$0-crossfade_playhead;
#X obj 543 360 t b b;
#X obj 543 -70 r \$0-samples_per_ms;
#X obj 546 -130 r \$0-samples_per_ms_unsynced;
#X connect 0 0 4 0;
#X connect 0 0 7 0;
#X connect 0 0 18 0;
#X connect 1 0 9 0;
#X connect 4 0 1 0;
#X connect 9 0 10 0;
#X connect 11 0 9 1;
#X connect 12 0 24 0;
#X connect 13 0 4 1;
#X connect 13 0 8 0;
#X connect 14 0 15 1;
#X connect 15 0 16 0;
#X connect 16 0 18 1;
#X connect 16 0 20 0;
#X connect 17 0 13 0;
#X connect 17 0 15 0;
#X connect 18 0 12 0;
#X connect 19 0 14 0;
#X connect 22 0 21 0;
#X connect 24 0 23 0;
#X connect 24 1 22 0;
#X connect 25 0 19 0;
#X connect 26 0 19 0;
#X restore 7 -288 pd loop_logic;
#X obj 1144 763 s \$0_direction_for_expr_sig;
#X obj 1279 1162 r \$0-loop-end-pos;
#X obj 1368 1012 r \$0-rate_khz_trigger;
#X obj 1140 1156 r \$0-jump_to_pos;
#X text 1186 879 vline playback and speed calculations;
#X text 1077 490 playback dir;
#X text 1059 571 playback dir;
#X obj 1330 511 lb;
#X msg 1330 537 0;
#X obj 1315 952 r \$0-update_loop_start;
#X obj 1158 952 r \$0-update_loop_end;
#X obj 1144 617 change;
#X obj 1416 1129 r \$0-project_bpm_i;
#X obj 1462 1156 r \$0-num_beats_for_segment_i;
#X obj 1511 1190 r \$0-clock_mode_enable_i;
#X obj 1167 1504 s \$0-vline_message;
#X floatatom 1511 1229 5 0 0 0 - - - 12;
#X floatatom 1462 1229 5 0 0 0 - - - 12;
#X floatatom 1416 1229 5 0 0 0 - - - 12;
#X floatatom 1368 1229 5 0 0 0 - - - 12;
#X floatatom 1326 1229 5 0 0 0 - - - 12;
#X floatatom 1279 1229 5 0 0 0 - - - 12;
#X floatatom 1225 1229 5 0 0 0 - - - 12;
#X obj 1326 984 r \$0-loop_start;
#X obj 1144 699 t f f;
#X obj 1177 735 s \$0_direction_loop_switch_state;
#X obj 1201 910 r \$0_direction_loop_switch_state;
#X obj 1206 670 lb;
#X msg 1206 696 1;
#X obj 1129 1123 r \$0-playhead_initiate_bang;
#X obj 1129 1230 t f f;
#X obj 1326 1072 r \$0-update_rate_multiplyer;
#X obj 1750 723 s \$0-update_rate_multiplyer;
#X obj 2666 1195 vline~;
#X obj 2398 1400 s~ \$0-vline_output_sig;
#X obj 2326 1326 snapshot~;
#X obj 2326 1366 s \$0-pause_position;
#X obj 2220 1326 snapshot~;
#X floatatom 2220 1362 10 0 0 0 - - - 12;
#X obj 2220 1412 s \$0-direction-change-pos;
#X obj 2326 1235 r \$0-pause_snapshot_bang;
#X obj 2220 1273 r \$0-playback_dir_snapshot;
#X obj 1954 1223 r \$0-playback_speed_snapshot;
#X obj 1954 1276 snapshot~;
#X floatatom 1954 1312 10 0 0 0 - - - 12;
#X obj 1954 1362 s \$0-speed_change_pos;
#X obj 2178 1086 s~ \$0-playhead_pos;
#X text 2422 923 vline object and arrays;
#X obj 1940 1492 snapshot~;
#X floatatom 1940 1528 10 0 0 0 - - - 12;
#X obj 1940 1452 r \$0-dir-slew-snapshot;
#X obj 1940 1558 s \$0-dir-slew-pos;
#X obj 1766 1094 snapshot~;
#X floatatom 1766 1130 10 0 0 0 - - - 12;
#X obj 1766 1041 r \$0-stop_snapshot;
#X obj 1766 1180 s \$0-stop_pos;
#X text 2768 1507 vca to audio out;
#X obj 2666 1067 r \$0-vline_message;
#X text 2586 1391 routing control;
#X msg 2612 1067 stop;
#N canvas 733 172 450 300 tabread_processing 1;
#X obj 459 -262 r \$0-read_control_signal;
#X obj -49 -103 r \$0-buffer_ID, f 15;
#X msg 41 -57 1-;
#X obj 73 -103 lb;
#X obj -95 10 pack s s;
#X msg -22 -57 0-;
#X obj 0 10 pack s s;
#X obj 40 -28 symbol;
#X msg 0 46 symbol \$2\$1;
#X msg -95 46 symbol \$2\$1;
#X obj -22 -28 symbol;
#X obj -95 121 pack s s;
#X obj -22 84 t b a;
#X obj -176 207 prepend set;
#X obj 185 268 s~ \$1-voice_audio 2;
#X obj -130 147 list;
#X obj -165 69 lb;
#X obj -165 95 delay 2;
#X obj -120 326 print multi-channel-set;
#X obj -229 -7 bang;
#X obj -138 -68 t b a;
#N canvas 0 22 450 300 gain_control_logic 1;
#X obj 248 108 r \$0-crossfade_control_messages;
#X obj -252 -28 f;
#X text -495 48 Current Reader;
#X obj -252 -151 r \$0-crossfade_playhead;
#X floatatom -129 75 5 0 0 0 - - - 12;
#X obj -184 -43 lb;
#X obj -129 32 count 1;
#X obj -63 -178 bng 25 250 50 0 empty empty empty 17 7 0 10 #e3dfd9 #5a5a5a #5a5a5a;
#X obj -129 -43 r \$0-crossfade_reset;
#X msg 310 299 1 6;
#X obj -252 13 sel 0 1;
#X msg -233 -86 1;
#X msg -326 -59 0;
#X floatatom -236 -59 5 0 0 0 - - - 12;
#X obj -252 101 f;
#X obj -252 43 t b;
#X obj -252 142 t f b;
#X obj -334 92 f;
#X obj -334 43 t b b;
#X obj -334 129 t f b;
#X obj -596 181 sel 0 1;
#X obj -388 214 sel 0 1;
#X text -227 248 current voice;
#X obj 196 32 bng 25 250 50 0 empty empty empty 17 7 0 10 #e3dfd9 #5a5a5a #5a5a5a;
#X obj -118 161 expr abs(1 - $f1);
#X floatatom -118 193 5 0 0 0 - - - 12;
#X floatatom -252 182 5 0 0 0 - - - 12;
#X obj -186 -16 t b b;
#X obj 248 161 route slice loop play pause resume stop;
#X obj -252 218 s \$0-current_voice;
#X obj -118 218 s \$0-upcoming_voice;
#X msg 123 407 0 6;
#X msg 169 407 1 6;
#X text 219 497 upcoming voice;
#X obj 123 570 route 0 1;
#X obj 135 525 list;
#X obj 123 451 t b a;
#X obj 169 451 t b a;
#X obj 189 550 list;
#X msg -153 668 dsp_off 0;
#X msg 279 686 dsp_on 1;
#X obj -23 401 r \$0-current_voice;
#X obj 219 451 r \$0-upcoming_voice;
#X obj -72 668 prepend gain_fade;
#X obj 364 686 prepend gain_fade;
#X obj 112 369 t b b b b;
#X floatatom 42 451 5 0 0 0 - - - 12;
#X msg 60 668 dsp_on 1;
#X obj 69 706 prepend extend_switch;
#X obj -137 743 prepend extend_time;
#X obj 14 743 prepend main_vline_gate;
#X msg 496 686 dsp_off 0;
#X obj 504 731 prepend extend_switch;
#X obj 293 761 prepend extend_time;
#X obj 452 761 prepend main_vline_gate;
#X text 94 337 Loop Crossfade;
#X text 241 281 Initial Play Fade In;
#X obj 368 299 print play_message;
#X obj -59 20 bng 25 250 50 0 empty empty empty 17 7 0 10 #e3dfd9 #5a5a5a #5a5a5a;
#X msg -126 -4 0;
#X floatatom 202 472 5 0 0 0 - - - 12;
#X obj 252 518 t f f;
#X obj 98 487 f;
#X obj 164 498 f;
#X obj 422 598 sel 0 1;
#X obj -12 626 sel 0 1;
#X obj -153 598 delay 0;
#X obj 290 641 delay 0;
#X obj -69 626 list;
#X obj -69 579 t b a a;
#X obj 269 598 t b a a;
#X obj 352 657 list;
#X msg 268 407 0 9;
#X msg 319 407 1 9;
#X obj -379 378 prepend reverse_phase;
#X msg -376 325 1;
#X msg -364 351 dsp_on 1;
#X obj -40 827 s \$0-voice_0_change;
#X obj 383 827 s \$0-voice_1_change;
#X msg -393 407 1 6;
#X obj -393 435 prepend gain_fade;
#X obj -351 587 s;
#X obj -340 461 f \$0;
#X obj -359 252 t b b;
#X obj -406 252 t b b;
#X obj -322 520 f \$0;
#X msg -322 549 symbol \$1-voice_0_change;
#X msg -340 491 symbol \$1-voice_1_change;
#X obj -388 182 expr abs(1 - $f1);
#X obj -702 119 s \$0-voice_0_fade_bang;
#X obj -688 76 s \$0-voice_1_fade_bang;
#X obj -566 587 s;
#X obj -555 461 f \$0;
#X obj -537 520 f \$0;
#X msg -537 549 symbol \$1-voice_0_change;
#X msg -555 491 symbol \$1-voice_1_change;
#X obj -596 218 t b b;
#X obj -596 252 t b b b;
#X msg -582 399 dsp_off 0;
#X obj -609 340 delay 7;
#X msg -609 435 main_vline_gate \$1;
#X msg -565 295 0;
#X msg -606 378 1;
#X obj -551 218 t b b;
#X obj -393 295 t b b b b;
#X msg -304 317 main_vline_gate 1;
#X obj 36 950 print dsp-message;
#X obj -236 -121 r \$0-dir_change;
#X connect 0 0 28 0;
#X connect 1 0 10 0;
#X connect 3 0 1 0;
#X connect 4 0 17 1;
#X connect 4 0 14 1;
#X connect 5 0 27 0;
#X connect 6 0 4 0;
#X connect 7 0 1 0;
#X connect 8 0 59 0;
#X connect 9 0 69 0;
#X connect 10 0 15 0;
#X connect 10 1 18 0;
#X connect 11 0 13 0;
#X connect 12 0 13 0;
#X connect 13 0 1 1;
#X connect 14 0 16 0;
#X connect 15 0 14 0;
#X connect 16 0 24 0;
#X connect 16 0 26 0;
#X connect 16 1 6 0;
#X connect 17 0 19 0;
#X connect 18 0 17 0;
#X connect 18 1 12 0;
#X connect 19 0 88 0;
#X connect 19 0 20 0;
#X connect 19 1 6 0;
#X connect 20 0 89 0;
#X connect 20 0 96 0;
#X connect 20 1 90 0;
#X connect 20 1 103 0;
#X connect 21 0 84 0;
#X connect 21 1 83 0;
#X connect 23 0 45 0;
#X connect 24 0 25 0;
#X connect 25 0 30 0;
#X connect 26 0 29 0;
#X connect 27 0 14 0;
#X connect 27 1 59 0;
#X connect 28 0 73 0;
#X connect 28 0 72 0;
#X connect 28 1 45 0;
#X connect 28 2 9 0;
#X connect 28 2 57 0;
#X connect 31 0 36 0;
#X connect 32 0 37 0;
#X connect 34 0 69 0;
#X connect 34 1 70 0;
#X connect 35 0 34 0;
#X connect 36 0 62 0;
#X connect 36 1 35 1;
#X connect 37 0 63 0;
#X connect 37 1 38 1;
#X connect 38 0 34 0;
#X connect 39 0 77 0;
#X connect 39 0 106 0;
#X connect 40 0 78 0;
#X connect 41 0 46 0;
#X connect 42 0 60 0;
#X connect 43 0 77 0;
#X connect 44 0 78 0;
#X connect 45 2 31 0;
#X connect 45 3 32 0;
#X connect 46 0 62 1;
#X connect 47 0 77 0;
#X connect 47 0 106 0;
#X connect 51 0 78 0;
#X connect 58 0 6 0;
#X connect 59 0 6 0;
#X connect 60 0 63 1;
#X connect 61 0 38 0;
#X connect 62 0 35 0;
#X connect 63 0 61 0;
#X connect 64 0 51 0;
#X connect 64 1 40 0;
#X connect 65 0 39 0;
#X connect 65 1 47 0;
#X connect 66 0 68 0;
#X connect 67 0 71 0;
#X connect 68 0 43 0;
#X connect 69 0 66 0;
#X connect 69 1 68 1;
#X connect 69 2 65 0;
#X connect 70 0 67 0;
#X connect 70 1 71 1;
#X connect 70 2 64 0;
#X connect 71 0 44 0;
#X connect 72 0 36 0;
#X connect 73 0 37 0;
#X connect 74 0 81 0;
#X connect 75 0 74 0;
#X connect 76 0 81 0;
#X connect 79 0 80 0;
#X connect 80 0 81 0;
#X connect 82 0 87 0;
#X connect 83 0 104 0;
#X connect 83 1 82 0;
#X connect 84 0 104 0;
#X connect 84 1 85 0;
#X connect 85 0 86 0;
#X connect 86 0 81 1;
#X connect 87 0 81 1;
#X connect 88 0 21 0;
#X connect 92 0 95 0;
#X connect 93 0 94 0;
#X connect 94 0 91 1;
#X connect 95 0 91 1;
#X connect 96 0 97 0;
#X connect 96 1 93 0;
#X connect 97 0 99 0;
#X connect 97 1 98 0;
#X connect 97 2 101 0;
#X connect 98 0 91 0;
#X connect 99 0 102 0;
#X connect 100 0 91 0;
#X connect 101 0 100 0;
#X connect 102 0 100 0;
#X connect 103 0 97 0;
#X connect 103 1 92 0;
#X connect 104 0 79 0;
#X connect 104 1 75 0;
#X connect 104 2 76 0;
#X connect 104 3 105 0;
#X connect 105 0 81 0;
#X connect 107 0 11 0;
#X restore 378 62 pd gain_control_logic;
#N canvas 0 22 450 300 voice_0 1;
#X obj -47 195 inlet read_target_set;
#X obj 131 259 tabread4~ 0-live_buffer_\$1 1-live_buffer_\$1, f 42;
#X obj 470 151 switch~;
#X obj 127 414 outlet~ stereo_audio;
#X obj 518 185 print tab_a_tgl;
#X obj 470 110 tgl 25 0 empty empty empty 17 7 0 10 #e3dfd9 #5a5a5a #5a5a5a 0 1;
#X obj 162 116 vline~;
#X obj 162 203 expr~ 1 - $v1;
#X obj 131 162 gate~ 2;
#X obj -20 -165 count 1 2;
#X floatatom 20 -123 5 0 0 0 - - - 12;
#X obj -6 -228 lb;
#X msg -6 -202 1;
#X obj 127 349 *~;
#X msg -110 -131 1 6;
#X obj 162 74 switch;
#X obj 195 318 vline~;
#X obj -110 -237 t b b b;
#X msg -78 -202 1;
#X obj 942 168 delay 6;
#X msg 942 205 0;
#X obj 950 409 print dsp_on;
#X obj 148 -32 lb;
#X msg 148 -6 1;
#X obj 1025 207 print dsp_1_off;
#X obj 893 267 s \$0-voice_0_dsp;
#X obj 612 248 s \$0-voice_0_gain_env;
#X obj 612 19 r \$0-voice_0_change;
#X obj 470 47 r \$0-voice_0_dsp;
#X obj 195 286 r \$0-voice_0_gain_env;
#X obj -110 -96 s \$0-voice_0_gain_env;
#X obj -110 -297 r \$0-voice_0_start_reverse_bang;
#X obj -147 -165 s \$0-voice_0_dsp;
#X obj 589 305 bang;
#X obj 176 -172 inlet vline_message;
#X obj 668 203 s \$0-voice_1_phase_reverse;
#X obj -47 -6 r \$0-voice_1_phase_reverse;
#X obj 612 81 route gain_fade reverse_phase main_vline_gate dsp_on dsp_off;
#X obj -116 389 print voice_0_gate;
#X obj 761 374 s \$0-voice_0_main_gate;
#X obj 278 -45 r \$0-voice_0_main_gate;
#X connect 0 0 1 0;
#X connect 1 0 13 0;
#X connect 5 0 2 0;
#X connect 6 0 8 1;
#X connect 7 0 1 0;
#X connect 8 0 1 0;
#X connect 8 1 7 0;
#X connect 9 0 10 0;
#X connect 9 0 8 0;
#X connect 9 0 38 0;
#X connect 11 0 12 0;
#X connect 12 0 9 0;
#X connect 13 0 3 0;
#X connect 14 0 30 0;
#X connect 15 0 6 0;
#X connect 16 0 13 1;
#X connect 17 0 14 0;
#X connect 17 1 9 0;
#X connect 17 2 18 0;
#X connect 18 0 32 0;
#X connect 19 0 20 0;
#X connect 20 0 25 0;
#X connect 22 0 23 0;
#X connect 23 0 15 0;
#X connect 27 0 37 0;
#X connect 28 0 5 0;
#X connect 29 0 16 0;
#X connect 31 0 17 0;
#X connect 34 0 15 1;
#X connect 36 0 8 0;
#X connect 37 0 26 0;
#X connect 37 0 33 0;
#X connect 37 1 35 0;
#X connect 37 2 39 0;
#X connect 37 3 25 0;
#X connect 37 4 19 0;
#X connect 40 0 15 0;
#X restore 143 62 pd voice_0;
#N canvas 0 22 450 300 voice_1 1;
#X obj -47 195 inlet read_target_set;
#X obj 131 259 tabread4~ 0-live_buffer_\$1 1-live_buffer_\$1, f 42;
#X obj 470 151 switch~;
#X obj 127 414 outlet~ stereo_audio;
#X obj 470 110 tgl 25 0 empty empty empty 17 7 0 10 #e3dfd9 #5a5a5a #5a5a5a 0 1;
#X obj 162 116 vline~;
#X obj 162 203 expr~ 1 - $v1;
#X obj 131 162 gate~ 2;
#X obj 18 5 count 1 2;
#X floatatom 58 47 5 0 0 0 - - - 12;
#X obj 32 -58 lb;
#X msg 32 -32 1;
#X obj 127 349 *~;
#X msg -72 39 1 6;
#X obj 285 -11 t b b b b b;
#X obj 162 74 switch;
#X msg 403 23 2;
#X msg 334 82 \$1 6;
#X msg 317 116 0 6;
#X obj 195 324 vline~;
#X obj 253 116 delay 6;
#X msg 254 160 1;
#X msg 285 160 0;
#X obj -72 -67 t b b b;
#X msg -40 -32 1;
#X obj 345 -182 r \$0-samples_per_ms;
#X obj 334 47 f;
#X obj 345 -76 * 6;
#X obj 1025 207 print dsp_off;
#X obj 960 152 delay 6;
#X msg 942 205 0;
#X obj 148 -32 lb;
#X msg 148 -6 1;
#X obj 950 409 print voice_2_dsp_on;
#X obj 518 185 print tab_b_tgl;
#X obj 785 453 print voice_2_change;
#X obj 470 6 r \$0-voice_1_dsp;
#X obj 317 195 s \$0-voice_1_gain_env;
#X obj 612 248 s \$0-voice_1_gain_env;
#X obj 668 339 print gain_change_v1;
#X obj 893 267 s \$0-voice_1_dsp;
#X obj 612 6 r \$0-voice_1_change;
#X obj 285 -37 r \$0-voice_1_fade_bang;
#X obj 195 286 r \$0-voice_1_gain_env;
#X obj -72 74 s \$0-voice_1_gain_env;
#X obj 4 -92 r \$0-voice_1_start_reverse_bang;
#X obj -109 5 s \$0-voice_1_dsp;
#X obj 499 418 snapshot~;
#X obj 562 335 bang;
#X obj 489 511 print voice_1_vline;
#X obj 195 -164 inlet vline_message;
#X obj 488 345 bang;
#X obj -34 380 print gate_swap;
#X obj 612 81 route gain_fade reverse_phase main_vline_gate dsp_on dsp_off;
#X obj -72 116 r \$0-voice_0_phase_reverse;
#X obj 668 169 s \$0-voice_0_phase_reverse;
#X connect 0 0 1 0;
#X connect 1 0 12 0;
#X connect 4 0 2 0;
#X connect 5 0 7 1;
#X connect 5 0 47 0;
#X connect 6 0 1 0;
#X connect 7 0 1 0;
#X connect 7 1 6 0;
#X connect 8 0 9 0;
#X connect 10 0 11 0;
#X connect 11 0 8 0;
#X connect 12 0 3 0;
#X connect 13 0 44 0;
#X connect 14 1 20 0;
#X connect 14 2 18 0;
#X connect 14 3 26 0;
#X connect 14 4 16 0;
#X connect 15 0 5 0;
#X connect 18 0 37 0;
#X connect 19 0 12 1;
#X connect 20 0 21 0;
#X connect 20 0 22 0;
#X connect 22 0 4 0;
#X connect 23 0 13 0;
#X connect 23 1 8 0;
#X connect 23 2 24 0;
#X connect 24 0 46 0;
#X connect 25 0 27 0;
#X connect 26 0 17 0;
#X connect 27 0 26 1;
#X connect 29 0 30 0;
#X connect 30 0 40 0;
#X connect 31 0 32 0;
#X connect 32 0 15 0;
#X connect 36 0 4 0;
#X connect 41 0 53 0;
#X connect 42 0 14 0;
#X connect 43 0 19 0;
#X connect 45 0 23 0;
#X connect 47 0 49 0;
#X connect 50 0 15 1;
#X connect 50 0 51 0;
#X connect 51 0 47 0;
#X connect 53 0 38 0;
#X connect 53 0 48 0;
#X connect 53 1 55 0;
#X connect 53 3 40 0;
#X connect 53 4 29 0;
#X connect 54 0 7 0;
#X restore 243 62 pd voice_1;
#X obj 220 -121 r \$0-vline_message;
#X connect 1 0 20 0;
#X connect 2 0 7 0;
#X connect 3 0 2 0;
#X connect 3 0 5 0;
#X connect 4 0 9 0;
#X connect 5 0 10 0;
#X connect 6 0 8 0;
#X connect 7 0 6 1;
#X connect 8 0 12 0;
#X connect 9 0 11 0;
#X connect 10 0 4 1;
#X connect 11 0 15 1;
#X connect 12 0 11 0;
#X connect 12 1 11 1;
#X connect 13 0 18 0;
#X connect 13 0 22 0;
#X connect 13 0 23 0;
#X connect 15 0 13 0;
#X connect 16 0 17 0;
#X connect 17 0 15 0;
#X connect 20 0 17 0;
#X connect 20 1 6 0;
#X connect 20 1 4 0;
#X connect 22 0 14 0;
#X connect 23 0 14 0;
#X connect 24 0 22 1;
#X connect 24 0 23 1;
#X restore 7 -139 pd tabread_processing;
#X obj 2311 1496 snapshot~;
#X obj 2311 1443 r \$0-playhead_snapshot_bang;
#X floatatom 2313 1536 5 0 0 0 - - - 12;
#X obj 2657 1454 print vline_message;
#X obj 2311 1575 s \$0-array-resize-resume;
#X obj 1481 131 s \$0_stop_pause_env;
#X obj 1079 241 s \$1-mixer_env_open;
#X obj 1742 279 s \$0-crossfade_env;
#X obj 1726 307 s \$1-mixer_env_open;
#X obj 1726 78 t b b b b b b b;
#X obj 1464 158 s \$1-mixer_env_close;
#X obj 1415 78 t b b b b b b;
#X obj 1511 -629 t b b f f f f f f b;
#X msg 1343 -666 0 0;
#X obj 1343 -639 s \$0-vline_message;
#X obj 1431 281 s \$0-vline_message;
#X obj 808 -440 print send_initial_playback_logic;
#X obj 808 -102 print receive_initial_playback_logic;
#X obj -592 772 sel 1 2 3 4 5;
#X msg -685 853 0.25, f 5;
#X msg -630 853 0.5, f 5;
#X msg -527 853 2, f 5;
#X msg -480 853 4, f 5;
#X msg -580 853 1, f 5;
#X obj -580 684 + 1;
#X obj -609 1489 s \$0-selected_rate;
#X obj -416 610 r \$0-is_playing_flag;
#X floatatom -416 648 5 0 0 0 - - - 12;
#X obj -416 684 f;
#X obj -416 732 sel 0 1;
#X obj -285 814 s \$0-playback_speed_snapshot;
#X obj -591 648 t b f;
#X obj -591 610 r \$0-playback_speed_dial;
#X floatatom -345 691 5 0 0 0 - - - 12;
#X obj -345 727 f;
#X obj -352 770 sel 0 1;
#X obj -352 648 r \$0-is_paused_flag;
#X text -597 505 playback speed change mechanism;
#X obj -595 1039 knob 50 0 2000 0 0 empty \$0-rate_slew-duration-i #E3DFD9 #968E82 #5A5A5A 1 0 0 0 1 270 0 0 51 empty empty 0 12 6 -15 0 1 0 0;
#X obj -659 1054 f;
#X floatatom -595 1113 5 0 0 0 - - - 12;
#X obj -595 1149 f;
#X text -613 1012 slew duration;
#X obj -518 1149 f;
#X text -518 1012 exponent/curve control;
#X obj -518 1039 knob 50 -1 0 0 0 empty \$0-rate_slew_curve_i #E3DFD9 #968E82 #5A5A5A 1 0 0 0 1 270 0 0 0 empty empty 0 12 6 -15 0 1 0 0;
#X floatatom -518 1113 5 0 0 0 - - - 12;
#X obj -609 1300 curve~;
#X obj -609 1197 pack f f f;
#X msg -609 1231 \$1 \$2 \$3;
#X obj -659 1098 t f b b;
#X obj -609 1265 t a b;
#X obj -609 1414 cyclone/snapshot~;
#X msg -508 1373 5;
#X obj -580 1367 tgl 25 0 empty empty empty 17 7 0 10 #e3dfd9 #5a5a5a #5a5a5a 0 1;
#X obj -580 969 t f b;
#X msg -533 1278 0;
#X obj -667 1521 s \$0-slew_bang;
#X obj -443 557 r \$0-slew_bang;
#X obj -667 1489 bang;
#X obj -667 1388 f;
#X obj -580 939 f;
#X obj -580 727 t b f;
#X obj -667 1354 t b b;
#X obj -508 1336 lb;
#X msg -455 1320 stop;
#X obj -667 1455 change;
#X obj -593 1455 change;
#X obj -751 987 s \$0-active_rate;
#X obj -797 939 s \$0-selected_rate_mult;
#X obj -1070 172 s \$0-playback_direction;
#X floatatom -1192 22 5 0 0 0 - - - 12;
#X obj -1081 86 f;
#X obj -1081 127 s \$0-rate_multiplier;
#X obj -1081 -144 lb;
#X msg -1081 21 1;
#X floatatom -1081 56 5 0 0 0 - - - 16;
#X obj -1192 -13 count 1;
#X obj -1123 -13 r \$0-selected_rate;
#X obj -1071 279 tgl 25 0 empty \$0-slew_engage-i empty 17 7 0 10 #e3dfd9 #5a5a5a #5a5a5a 0 1;
#X obj -1067 215 lb;
#X msg -1067 253 0;
#X floatatom -1071 319 5 0 0 0 - - - 12;
#X obj -888 279 tgl 25 0 empty \$0-direction_slew_i empty 17 7 0 10 #e3dfd9 #5a5a5a #5a5a5a 0 1;
#X obj -884 208 lb;
#X msg -884 246 0;
#X floatatom -888 319 5 0 0 0 - - - 12;
#X obj -888 355 s \$0-direction_slew_engaged;
#X obj -1071 355 s \$0-slew_engaged;
#X obj -1192 72 t b f;
#X obj -1215 172 s \$0-dir_slew_logic;
#X obj -888 78 f;
#X floatatom -888 29 5 0 0 0 - - - 12;
#X obj -888 127 s \$0-stored_rate;
#X obj -888 -13 r \$0-active_rate;
#X text -1000 -87 Playback States;
#X floatatom -1229 241 5 0 0 0 - - - 12;
#X obj -1229 266 f;
#X floatatom -1424 242 5 0 0 0 - - - 12;
#X obj -1424 216 r \$1-num_beats_for_segment;
#X obj -1424 355 s \$0-num_beats_for_segment_i;
#X floatatom -1412 108 5 0 0 0 - - - 12;
#X obj -1412 38 tgl 25 0 empty empty empty 17 7 0 10 #e3dfd9 #5a5a5a #5a5a5a 0 1;
#X obj -1412 172 s \$0-clock_mode_enable_i;
#X obj -1412 -37 r \$1-clock_mode_enabled;
#X obj -1424 279 f;
#X obj -1229 215 r project_bpm;
#X obj -1229 355 s \$0-project_bpm_i;
#X obj -651 -13 r \$0-buffer_status, f 19;
#X floatatom -651 25 5 0 0 0 - - - 12;
#X obj -651 74 f;
#X obj -651 123 s \$0-stored_buffer_state;
#X obj -651 208 r \$0-overdub_enabled;
#X floatatom -651 253 5 0 0 0 - - - 12;
#X obj -651 319 f;
#X obj -651 355 s \$0-overdub_enabled_i;
#X obj -727 -37 lb;
#X msg -727 -11 0;
#X text -581 59 Flag for if the audio buffer has recorded data;
#X obj 1079 -69 t b b b b b b b b b;
#X obj 1511 -199 s \$1_stop_pause_env;
#X obj 1715 1384 s \$0-buffer_and_playhead_update_and_exe;
#X obj 933 -550 s \$0-pause_logic;
#X obj 341 1807 s \$0-selected_rate;
#X obj 313 1327 knob 50 10 2000 0 100 empty \$0-dir_slew-duration-i #E3DFD9 #968E82 #5A5A5A 1 0 0 0 1 270 0 0 51 empty empty 0 12 6 -15 0 1 0 0;
#X floatatom 313 1386 5 0 0 0 - - - 12;
#X text 295 1300 slew duration;
#X obj 492 1443 f;
#X text 544 1401 exponent/curve control;
#X obj 492 1328 knob 50 -1 0 0 0 empty \$0-dir_slew_curve_i #E3DFD9 #968E82 #5A5A5A 1 0 0 0 1 270 0 0 0 empty empty 0 12 6 -15 0 1 0 0;
#X floatatom 492 1402 5 0 0 0 - - - 12;
#X obj 341 1702 curve~;
#X obj 341 1743 cyclone/snapshot~;
#X msg 442 1715 5;
#X obj 271 1819 bang;
#X obj 442 1683 lb;
#X obj 271 1784 change;
#X obj 341 1777 change;
#X obj 419 1254 r \$0-rate_multiplier;
#X obj 391 1358 f;
#X obj 391 1111 r \$0-dir_slew_logic;
#X obj 401 1453 f;
#X obj 313 1425 / 2;
#X obj 492 1644 delay;
#X obj 555 1547 t b b b;
#X obj 584 1589 s \$0-playback_speed_snapshot;
#X obj 555 1646 s \$0-playback_speed_snapshot;
#X obj 370 1612 t a b b;
#X obj 405 1702 tgl 25 0 empty empty empty 17 7 0 10 #e3dfd9 #5a5a5a #5a5a5a 0 1;
#X msg 445 1453 0;
#X floatatom 145 1571 5 0 0 0 - - - 12;
#X obj 134 1603 f;
#X obj 134 1636 sel 0 1;
#X obj 145 1535 r \$0-direction_slew_engaged;
#X obj 148 1673 f;
#X obj 391 1390 t b f b b b;
#X msg 325 1650 \$1 0 0 0 \$2 \$3 \$4 \$2 \$3;
#X obj 445 1559 pack f f f f;
#X obj 547 1520 f;
#X floatatom 547 1487 5 0 0 0 - - - 12;
#X obj 547 1453 r \$0-selected_rate_mult;
#X obj 542 1766 s \$0-selected_rate;
#X obj 499 1702 f;
#X obj 571 1180 r \$0-is_playing_flag;
#X floatatom 571 1218 5 0 0 0 - - - 12;
#X obj 571 1254 f;
#X obj 571 1302 sel 0 1;
#X floatatom 642 1261 5 0 0 0 - - - 12;
#X obj 642 1297 f;
#X obj 635 1340 sel 0 1;
#X obj 635 1218 r \$0-is_paused_flag;
#X obj 271 1857 s \$0-dir_slew_bang;
#X obj 529 1142 r \$0-dir_slew_bang;
#X obj 134 1784 s \$0-dir_slew_bang;
#X obj 779 1459 s \$0-dir-slew-snapshot;
#X obj 500 1733 t b f;
#X obj 500 1796 s \$0-playback_speed_snapshot;
#X floatatom 127 1402 5 0 0 0 - - - 12;
#X obj 127 1438 f;
#X obj 120 1481 sel 0 1;
#X obj 120 1359 r \$0-is_paused_flag;
#X obj 134 1703 t b b;
#X obj 1490 -164 s 1-mixer_env_close;
#X obj 1335 -371 s \$0-playback_direction;
#X msg 1335 -406 0;
#X obj 1699 591 t b f b b b b b b;
#X obj 1818 620 s \$0-direction_set_trigger;
#X obj 147 1755 s \$0-direction_set_trigger;
#X obj 569 1620 s \$0-direction_set_trigger;
#X obj 1144 511 r \$0-direction_set_trigger;
#X obj 1827 107 s \$0-direction_set_trigger;
#X obj 1198 8 s \$0-direction_set_trigger;
#X obj 1279 1048 switch, f 7;
#X obj 896 1099 s \$0-loop_target_index;
#X obj 1789 1597 s \$0-buffer_and_playhead_update_and_exe;
#X obj 49 448 knob 50 0 2000 0 0 \$0-rate_slew-duration-i empty #E3DFD9 #968E82 #5A5A5A 1 0 0 0 1 270 0 0 51 empty empty 0 12 6 -15 0 1 0 0;
#X text 31 421 slew duration;
#X text 126 421 exponent/curve control;
#X obj 126 448 knob 50 -1 0 0 0 \$0-rate_slew_curve_i empty #E3DFD9 #968E82 #5A5A5A 1 0 0 0 1 270 0 0 0 empty empty 0 12 6 -15 0 1 0 0;
#X obj -381 -495 s \$0-key_quantize_setup;
#X obj -122 -482 s \$0-beat_reset_setup;
#X obj -499 1294 s \$0-crossfade_env;
#X obj 626 1688 s \$0-crossfade_env;
#X obj 463 1196 s \$0-slew_env;
#X obj 391 1180 t b b b;
#X floatatom -430 253 5 0 0 0 - - - 12;
#X obj -430 301 f;
#X obj -430 208 r \$0-current_read_playhead;
#X obj 1220 -464 s \$0-stop_playbar;
#X obj 1330 -693 t b b;
#X obj 1365 -248 s \$0-playhead_reset;
#X msg 1414 -306 0;
#X obj 961 763 s \$0-direction_phase_flip;
#X obj 1096 -440 s \$0-crossfade_reset;
#X obj 1713 852 s \$0-crossfade_control_messages;
#X obj 1591 746 t b b b;
#X msg 1158 -478 stop 1;
#X obj 1145 -516 t b b;
#X obj 1118 -360 s \$0-crossfade_control_messages;
#X obj 1096 -478 delay 6;
#X msg 1147 96 play 0;
#X obj 1147 142 s \$0-crossfade_control_messages;
#X obj 1127 171 s \$0-crossfade_playhead;
#X obj 1152 -604 print play_button_hit;
#X obj 2199 365 s \$0-crossfade_playhead;
#X obj 2214 337 s \$0-crossfade_control_messages;
#X msg 2214 307 slice 1;
#X obj 2185 209 t b f b b;
#X obj 2107 238 delay 1;
#X msg 1223 1470 \$1 \, \$2 \$3;
#X floatatom 1188 1323 5 0 0 0 - - - 12;
#X obj -1192 -144 r \$0-dir_change;
#X connect 8 0 9 0;
#X connect 9 0 7 0;
#X connect 20 0 457 0;
#X connect 23 0 456 0;
#X connect 28 0 36 0;
#X connect 29 0 30 0;
#X connect 30 0 269 0;
#X connect 31 0 28 1;
#X connect 33 0 42 0;
#X connect 34 0 39 0;
#X connect 36 0 268 0;
#X connect 36 1 266 0;
#X connect 38 0 31 0;
#X connect 39 0 33 1 48......................H6+++O.....x9+++a8+++OY++++V++++S1+++u0++++;
#X connect 39 0 125 1 48......................XE.........VA...j8++++p....Y++++uJ...P1++++;
#X connect 40 0 32 0;
#X connect 41 0 92 0;
#X connect 42 0 272 0;
#X connect 44 0 466 0;
#X connect 46 0 104 0;
#X connect 46 0 480 0;
#X connect 47 0 48 0;
#X connect 49 0 37 0;
#X connect 54 0 30 0;
#X connect 57 0 58 0;
#X connect 58 0 59 1;
#X connect 59 0 60 0;
#X connect 60 0 70 0;
#X connect 60 1 61 0;
#X connect 63 0 64 0;
#X connect 64 0 65 1;
#X connect 65 0 66 0;
#X connect 66 0 59 0;
#X connect 66 1 67 0;
#X connect 68 0 69 0;
#X connect 69 0 70 1;
#X connect 70 0 71 0;
#X connect 71 1 62 0;
#X connect 72 0 128 0;
#X connect 73 0 74 1;
#X connect 73 0 86 1;
#X connect 74 0 75 0;
#X connect 75 0 80 0;
#X connect 76 0 77 0;
#X connect 77 0 78 1;
#X connect 78 0 79 0;
#X connect 79 1 89 0;
#X connect 80 0 84 1;
#X connect 80 0 86 0;
#X connect 80 1 78 0;
#X connect 81 0 82 1;
#X connect 82 0 85 0;
#X connect 83 0 81 0;
#X connect 84 0 484 0;
#X connect 85 0 84 0;
#X connect 86 0 84 2;
#X connect 89 0 91 0;
#X connect 90 0 73 0;
#X connect 94 0 93 0;
#X connect 95 0 96 0;
#X connect 98 0 99 0;
#X connect 99 0 100 1;
#X connect 100 0 101 0;
#X connect 101 0 107 0;
#X connect 101 1 379 0;
#X connect 102 0 103 0;
#X connect 103 0 104 1;
#X connect 104 0 105 0;
#X connect 105 0 100 0;
#X connect 106 0 107 1;
#X connect 107 0 108 0;
#X connect 108 0 112 0;
#X connect 108 0 273 0;
#X connect 108 1 121 0;
#X connect 109 0 106 0;
#X connect 111 0 274 0;
#X connect 111 0 376 0;
#X connect 119 0 124 0;
#X connect 120 0 119 1;
#X connect 122 0 28 0;
#X connect 123 0 442 0;
#X connect 125 0 126 0;
#X connect 128 0 74 0;
#X connect 128 1 82 0;
#X connect 129 0 131 0;
#X connect 132 0 134 0;
#X connect 133 0 135 0;
#X connect 134 0 147 1;
#X connect 135 0 140 0;
#X connect 136 0 135 1;
#X connect 138 0 132 0;
#X connect 139 0 132 0;
#X connect 141 0 149 0;
#X connect 142 0 143 0;
#X connect 143 0 145 1;
#X connect 145 0 156 2;
#X connect 146 0 142 0;
#X connect 146 1 151 0;
#X connect 147 0 133 0;
#X connect 148 0 155 0;
#X connect 148 0 156 1;
#X connect 149 0 150 0;
#X connect 150 0 146 0;
#X connect 151 0 145 0;
#X connect 153 0 151 0;
#X connect 153 0 143 0;
#X connect 154 0 143 0;
#X connect 154 0 143 1;
#X connect 155 0 154 0;
#X connect 155 1 151 0;
#X connect 156 0 171 0;
#X connect 157 0 158 0;
#X connect 157 1 159 0;
#X connect 158 0 156 0;
#X connect 159 0 156 0;
#X connect 160 0 157 0;
#X connect 163 0 149 1;
#X connect 164 0 166 0;
#X connect 165 0 169 0;
#X connect 166 0 163 0;
#X connect 167 0 168 0;
#X connect 168 0 163 0;
#X connect 169 0 138 0;
#X connect 170 0 72 0;
#X connect 172 0 139 0;
#X connect 173 0 147 0;
#X connect 175 0 153 0;
#X connect 176 0 158 0;
#X connect 177 0 226 0;
#X connect 178 0 186 1;
#X connect 179 0 217 0;
#X connect 179 0 193 1;
#X connect 180 0 181 1;
#X connect 181 0 216 0;
#X connect 182 0 179 1;
#X connect 183 0 184 1;
#X connect 184 0 207 0;
#X connect 185 0 182 2;
#X connect 185 0 449 1;
#X connect 186 0 182 1;
#X connect 186 0 449 2;
#X connect 187 0 191 0;
#X connect 188 0 189 1;
#X connect 189 0 215 0;
#X connect 190 0 450 0;
#X connect 190 0 486 0;
#X connect 191 0 192 0;
#X connect 191 1 193 0;
#X connect 191 2 190 2;
#X connect 192 0 190 0;
#X connect 193 0 190 1;
#X connect 194 0 220 0;
#X connect 197 0 179 0;
#X connect 198 0 189 0;
#X connect 199 0 177 1;
#X connect 203 0 204 0;
#X connect 204 0 184 1;
#X connect 205 0 185 0;
#X connect 206 0 186 0;
#X connect 207 0 194 0;
#X connect 208 0 214 0;
#X connect 209 0 213 0;
#X connect 210 0 212 0;
#X connect 212 0 187 6;
#X connect 213 0 187 5;
#X connect 214 0 187 4;
#X connect 215 0 187 3;
#X connect 216 0 187 2;
#X connect 217 0 187 1;
#X connect 218 0 187 0;
#X connect 219 0 185 1;
#X connect 220 0 196 0;
#X connect 220 1 221 0;
#X connect 222 0 182 0;
#X connect 222 0 449 0;
#X connect 223 0 224 0;
#X connect 224 0 221 0;
#X connect 225 0 177 0;
#X connect 226 0 218 0;
#X connect 226 1 487 0;
#X connect 227 0 181 0;
#X connect 229 0 231 0;
#X connect 229 0 233 0;
#X connect 229 0 239 0;
#X connect 229 0 244 0;
#X connect 229 0 248 0;
#X connect 229 0 242 0;
#X connect 229 0 230 0;
#X connect 229 0 257 0;
#X connect 231 0 232 0;
#X connect 233 0 234 0;
#X connect 234 0 235 0;
#X connect 236 0 231 0;
#X connect 237 0 233 0;
#X connect 238 0 239 0;
#X connect 239 0 240 0;
#X connect 240 0 241 0;
#X connect 240 0 378 0;
#X connect 244 0 245 0;
#X connect 245 0 247 0;
#X connect 245 0 451 0;
#X connect 246 0 244 0;
#X connect 248 0 249 0;
#X connect 249 0 251 0;
#X connect 250 0 248 0;
#X connect 253 0 229 0;
#X connect 255 0 229 0;
#X connect 257 0 259 0;
#X connect 258 0 257 0;
#X connect 259 0 261 0;
#X connect 266 0 265 0;
#X connect 266 1 264 0;
#X connect 266 2 125 0;
#X connect 266 3 94 0;
#X connect 266 4 41 0;
#X connect 266 5 45 0;
#X connect 266 6 447 0;
#X connect 268 0 40 0;
#X connect 268 1 33 0;
#X connect 268 2 95 0;
#X connect 268 3 267 0;
#X connect 268 4 262 0;
#X connect 268 5 43 0;
#X connect 269 0 377 0;
#X connect 269 0 441 0;
#X connect 269 0 465 0;
#X connect 269 0 474 0;
#X connect 269 0 439 0;
#X connect 269 1 468 0;
#X connect 269 2 50 0;
#X connect 269 3 51 0;
#X connect 269 4 52 0;
#X connect 269 5 55 0;
#X connect 269 6 56 0;
#X connect 269 7 473 0;
#X connect 269 8 65 0;
#X connect 270 0 271 0;
#X connect 275 0 276 0;
#X connect 275 1 277 0;
#X connect 275 2 280 0;
#X connect 275 3 278 0;
#X connect 275 4 279 0;
#X connect 276 0 326 0;
#X connect 276 0 318 0;
#X connect 277 0 326 0;
#X connect 277 0 318 0;
#X connect 278 0 326 0;
#X connect 278 0 318 0;
#X connect 279 0 326 0;
#X connect 279 0 318 0;
#X connect 280 0 326 0;
#X connect 280 0 318 0;
#X connect 281 0 319 0;
#X connect 283 0 284 0;
#X connect 284 0 285 1;
#X connect 285 0 286 0;
#X connect 286 1 291 0;
#X connect 288 0 285 0;
#X connect 288 1 281 0;
#X connect 289 0 288 0;
#X connect 290 0 291 1;
#X connect 291 0 292 0;
#X connect 292 0 287 0;
#X connect 293 0 290 0;
#X connect 295 0 297 0;
#X connect 296 0 307 0;
#X connect 297 0 298 0;
#X connect 298 0 305 1;
#X connect 300 0 305 2;
#X connect 302 0 303 0;
#X connect 303 0 300 0;
#X connect 304 0 309 0;
#X connect 304 1 320 0;
#X connect 304 1 311 0;
#X connect 304 1 458 0;
#X connect 305 0 306 0;
#X connect 306 0 308 0;
#X connect 307 0 305 0;
#X connect 307 0 317 1;
#X connect 307 1 298 0;
#X connect 307 2 300 0;
#X connect 308 0 304 0;
#X connect 308 1 311 0;
#X connect 309 0 324 0;
#X connect 309 0 323 0;
#X connect 310 0 309 1;
#X connect 311 0 309 0;
#X connect 312 0 296 0;
#X connect 312 1 313 0;
#X connect 313 0 311 0;
#X connect 315 0 285 0;
#X connect 316 0 314 0;
#X connect 317 0 282 0;
#X connect 318 0 312 0;
#X connect 319 1 275 0;
#X connect 320 0 314 0;
#X connect 320 1 317 0;
#X connect 321 0 310 0;
#X connect 322 0 309 1;
#X connect 323 0 316 0;
#X connect 324 0 282 0;
#X connect 328 0 346 0;
#X connect 329 0 330 0;
#X connect 331 0 332 0;
#X connect 331 0 334 0;
#X connect 332 0 333 0;
#X connect 333 0 329 0;
#X connect 334 0 328 0;
#X connect 335 0 333 0;
#X connect 336 0 339 0;
#X connect 337 0 338 0;
#X connect 338 0 336 0;
#X connect 339 0 345 0;
#X connect 340 0 343 0;
#X connect 341 0 342 0;
#X connect 342 0 340 0;
#X connect 343 0 344 0;
#X connect 346 0 347 0;
#X connect 346 1 327 0;
#X connect 349 0 348 0;
#X connect 351 0 349 0;
#X connect 353 0 354 0;
#X connect 354 0 364 0;
#X connect 355 0 362 0;
#X connect 356 0 355 0;
#X connect 358 0 360 0;
#X connect 359 0 358 0;
#X connect 361 0 359 0;
#X connect 362 0 357 0;
#X connect 363 0 353 0;
#X connect 365 0 366 0;
#X connect 366 0 367 0;
#X connect 367 0 368 0;
#X connect 369 0 370 0;
#X connect 370 0 371 0;
#X connect 371 0 372 0;
#X connect 373 0 374 0;
#X connect 374 0 366 0;
#X connect 374 0 370 0;
#X connect 376 0 263 0;
#X connect 376 1 119 0;
#X connect 376 3 479 0;
#X connect 376 4 477 0;
#X connect 376 5 47 0;
#X connect 376 6 49 0;
#X connect 376 7 448 0;
#X connect 376 8 110 0;
#X connect 381 0 382 0;
#X connect 382 0 399 0;
#X connect 384 0 414 2;
#X connect 386 0 387 0;
#X connect 387 0 384 0;
#X connect 388 0 389 0;
#X connect 388 1 405 0;
#X connect 388 1 419 0;
#X connect 388 1 459 0;
#X connect 389 0 394 0;
#X connect 389 0 393 0;
#X connect 390 0 389 1;
#X connect 391 0 428 0;
#X connect 392 0 390 0;
#X connect 393 0 391 0;
#X connect 394 0 380 0;
#X connect 395 0 396 1;
#X connect 396 0 412 0;
#X connect 397 0 461 0;
#X connect 398 0 414 1;
#X connect 398 0 400 1;
#X connect 399 0 398 1;
#X connect 400 0 401 0;
#X connect 401 0 403 0;
#X connect 401 1 445 0;
#X connect 401 2 402 0;
#X connect 404 0 413 0;
#X connect 404 1 400 0;
#X connect 404 2 405 0;
#X connect 405 0 389 1;
#X connect 406 0 405 0;
#X connect 407 0 408 1;
#X connect 408 0 409 0;
#X connect 409 0 438 0;
#X connect 409 1 411 0;
#X connect 410 0 407 0;
#X connect 412 2 406 0;
#X connect 412 3 398 0;
#X connect 412 4 384 0;
#X connect 413 0 388 0;
#X connect 414 0 404 0;
#X connect 415 0 414 3;
#X connect 416 0 415 0;
#X connect 417 0 416 0;
#X connect 417 0 419 1;
#X connect 419 0 432 0;
#X connect 420 0 421 0;
#X connect 421 0 422 1;
#X connect 422 0 423 0;
#X connect 423 1 425 0;
#X connect 424 0 425 1;
#X connect 425 0 426 0;
#X connect 426 0 431 0;
#X connect 427 0 424 0;
#X connect 429 0 422 0;
#X connect 432 0 433 0;
#X connect 432 1 418 0;
#X connect 434 0 435 1;
#X connect 435 0 436 0;
#X connect 436 0 408 0;
#X connect 437 0 434 0;
#X connect 438 0 430 0;
#X connect 438 1 444 0;
#X connect 441 0 440 0;
#X connect 442 0 472 0;
#X connect 442 1 113 0;
#X connect 442 2 114 0;
#X connect 442 3 228 0;
#X connect 442 4 115 0;
#X connect 442 5 116 0;
#X connect 442 6 117 0;
#X connect 442 7 443 0;
#X connect 446 0 184 0;
#X connect 461 0 396 0;
#X connect 461 1 422 0;
#X connect 461 2 460 0;
#X connect 462 0 463 0;
#X connect 464 0 462 0;
#X connect 466 0 53 0;
#X connect 466 1 270 0;
#X connect 468 0 467 0;
#X connect 472 0 118 0;
#X connect 473 0 475 0;
#X connect 474 0 476 0;
#X connect 476 0 470 0;
#X connect 477 0 478 0;
#X connect 483 0 482 0;
#X connect 484 0 485 0;
#X connect 484 1 129 1;
#X connect 484 2 481 0;
#X connect 484 3 483 0;
#X connect 485 0 129 0;
#X connect 486 0 211 0;
#X connect 487 0 192 1;
#X connect 488 0 334 0;
