#N canvas 827 239 734 565 12;
#N canvas 0 0 450 250 (subpatch) 0;
#X array sample\$1_L 111303 float 4;
#X coords 0 1 111302 -1 200 140 1;
#X restore 537 63 graph;
#N canvas 0 0 450 250 (subpatch) 0;
#X array sample\$1_R 111303 float 4;
#X coords 0 1 111302 -1 200 140 1;
#X restore 537 223 graph;
#X obj 108 320 soundfiler;
#X obj 107 89 openpanel;
#X floatatom 108 357 8 0 0 0 - - - 12;
#X floatatom 200 364 6 0 0 0 - - - 12;
#X obj 200 332 unpack f f f f;
#X obj 354 456 / 16;
#X floatatom 354 486 6 0 0 0 - - - 16;
#X obj 201 391 / 1000;
#X obj 108 283 prepend read -resize;
#X obj 107 115 list trim;
#X obj 107 243 pack s s s;
#X obj 107 145 t a b b;
#X obj 107 42 bng 25 250 50 0 empty \$1-sample-load empty 17 7 0 10 #333333 #e5e5e5 #111111;
#X obj 108 414 t b f;
#X msg -47 486 0;
#X obj 148 187 symbol sample\$1_R;
#X obj 129 216 symbol sample\$1_L;
#X obj 200 421 s \$1-audio_file_sample_rate_val;
#X obj -47 537 s \$1_audio_file_abs_start;
#X obj 119 537 s \$1_audio_file_abs_end;
#X obj -216 537 s \$1_audio_file_load_bang;
#X obj 354 537 send \$1-audio_file_slice_size_val;
#X obj 287 187 symbol sample\$1_R;
#X obj 268 216 symbol sample\$1_L;
#X obj 278 89 r \$1-audio_file_slot_selection_for_track;
#X obj 278 145 t b b;
#X obj 262 258 s \$1-audio_file_name_number_L;
#X obj 278 292 s \$1-audio_file_name_number_R;
#X connect 2 0 4 0;
#X connect 2 1 6 0;
#X connect 3 0 11 0;
#X connect 4 0 15 0;
#X connect 5 0 9 0;
#X connect 6 0 5 0;
#X connect 7 0 8 0;
#X connect 8 0 23 0;
#X connect 9 0 19 0;
#X connect 10 0 2 0;
#X connect 11 0 13 0;
#X connect 12 0 10 0;
#X connect 13 0 12 0 32.................n..........J.........7D....;
#X connect 13 1 18 0 32.................Z....f....fF....H....PC....;
#X connect 13 2 17 0 32.................L....v.....C....L....bA....;
#X connect 14 0 3 0;
#X connect 15 0 16 0;
#X connect 15 0 22 0;
#X connect 15 1 7 0;
#X connect 15 1 21 0;
#X connect 16 0 20 0;
#X connect 17 0 12 2;
#X connect 18 0 12 1;
#X connect 24 0 29 0;
#X connect 25 0 28 0;
#X connect 26 0 27 0;
#X connect 27 0 25 0;
#X connect 27 1 24 0;
