#N canvas 827 239 734 565 12;
#X obj 29 436 inlet sample-selection;
#X obj 29 466 t f f;
#X obj 130 559 prepend set;
#X obj 430 602 tabread4~;
#X obj 29 559 prepend set;
#X obj 349 602 tabread4~;
#X obj 29 496 sprintf sample%d_L;
#X obj 40 527 sprintf sample%d_R;
#X obj 389 513 vline~;
#X obj 440 567 s~ \$0-vline_output_sig;
#N canvas 733 172 450 300 loop_logic 0;
#X obj 655 634 r~ \$0-vline_output_sig;
#X obj 888 822 edge~;
#X obj 888 852 s \$0_loop_hit_bang;
#X obj 865 634 r~ \$0_target_for_expr_sig;
#X text 661 608 v_out;
#X text 865 608 v_tarrget;
#X obj 708 695 >=~;
#X text 592 694 fwd_comp_result;
#X text 1113 680 is_fwd_sig;
#X obj 1080 634 sig~;
#X obj 1053 687 ==~ 0;
#X obj 738 763 *~;
#X text 592 762 final_fwd_trigger_sig;
#X obj 810 695 <=~, f 5;
#X text 865 694 rev_comp_result;
#X obj 1206 687 ==~ 1;
#X text 1245 708 is_rev_sig;
#X obj 945 755 *~;
#X text 1014 754 final_rev_trigger_sig;
#X obj 888 786 +~;
#X obj 1080 526 r \$0_direction_for_expr_sig;
#X obj 655 899 number~;
#A saved 0 0 100 -inf inf #2a3434 #ffffff #b6fefd;
#X obj 865 899 number~;
#A saved 0 0 100 -inf inf #2a3434 #ffffff #b6fefd;
#X obj 1053 899 number~;
#A saved 0 0 100 -inf inf #2a3434 #ffffff #b6fefd;
#X obj 1080 598 - 1;
#X connect 0 0 6 0;
#X connect 0 0 13 0;
#X connect 0 0 21 0;
#X connect 1 0 2 0;
#X connect 3 0 6 1;
#X connect 3 0 13 1;
#X connect 3 0 22 0;
#X connect 6 0 11 0;
#X connect 9 0 10 0;
#X connect 9 0 15 0;
#X connect 9 0 23 0;
#X connect 10 0 11 1;
#X connect 11 0 19 0;
#X connect 13 0 17 0;
#X connect 15 0 17 1;
#X connect 17 0 19 1;
#X connect 19 0 1 0;
#X connect 20 0 24 0;
#X connect 24 0 9 0;
#X restore 1195 285 pd loop_logic;
#N canvas 0 22 450 300 calc_duration 0;
#X obj 228 132 inlet start_pos;
#X obj 364 132 inlet target_pos;
#X obj 503 132 inlet rate_mult;
#X obj 619 132 inlet sr_khz;
#X obj 228 214 expr abs($f2-$f1);
#X obj 228 166 f;
#X obj 364 166 f;
#X obj 503 166 f;
#X obj 619 166 f;
#X obj 266 385 outlet duration_ms;
#X floatatom 228 253 5 0 0 0 - - - 12;
#X text 125 252 delta_samples;
#X obj 503 214 expr $f2 * $f1;
#X floatatom 503 253 5 0 0 0 - - - 12;
#X text 555 252 samples_per_ms;
#X obj 266 324 expr if($f2 == 0\\\, 99999999.0\\\, $f1 / $f2);
#X connect 0 0 5 0;
#X connect 1 0 6 0;
#X connect 2 0 7 0;
#X connect 3 0 8 0;
#X connect 4 0 10 0;
#X connect 5 0 4 0;
#X connect 6 0 4 1;
#X connect 7 0 12 0;
#X connect 8 0 12 1;
#X connect 10 0 15 0;
#X connect 12 0 13 0;
#X connect 13 0 15 1;
#X connect 15 0 9 0;
#X restore 453 319 pd calc_duration;
#X obj 349 130 f;
#X obj 349 56 r \$1-set_active_loop_start;
#X obj 530 56 r \$1-set_active_loop_end;
#X obj 530 130 f;
#X obj 712 -278 r \$1-play_direction;
#X obj 705 173 f;
#X obj 939 -51 lb;
#X obj 853 56 r \$1_current_rate_multiplier;
#X obj 853 100 f;
#X obj 705 385 sig~;
#X obj 705 424 s~ \$0_target_for_expr_sig;
#X text 760 206 play direction;
#X text 578 129 loop end;
#X obj 705 243 switch;
#X msg 896 13 0;
#X obj 799 111 + 1;
#X floatatom 705 352 7 0 0 0 - - - 12;
#X text 760 351 actual target float;
#X obj 879 236 s \$0_direction_for_expr_sig;
#X obj 335 198 switch;
#X obj 427 198 switch;
#X obj 534 234 r \$1-sample_rate_val;
#X obj 534 276 f;
#X obj 1040 81 r \$0_loop_hit_bang;
#X obj 337 376 f;
#X text 236 375 jump to pos;
#X obj 399 376 f;
#X text 489 375 next_ramp_target;
#X obj 1040 118 t b b b b b b;
#X obj 454 377 f;
#X obj 634 335 t b b b;
#X obj 1070 385 bng 25 250 50 0 empty empty empty 17 7 0 10 #e3dfd9 #5a5a5a #5a5a5a;
#X msg 1069 28 1;
#X floatatom 879 318 5 0 0 0 - - - 12;
#X obj 408 419 pack f f f;
#X msg 388 462 \$1 \, \$2 \$3;
#X obj 576 285 number~;
#A saved 0 0 100 -inf inf #2a3434 #ffffff #b6fefd;
#X msg 598 -122 1;
#X obj -238 35 r \$1_file_abs_start;
#X obj -238 115 s \$1-set_active_loop_start;
#X floatatom -238 74 5 0 0 0 - - - 12;
#X obj -66 35 r \$1_file_abs_end;
#X floatatom -66 77 9 0 0 0 - - - 12;
#X obj -66 115 s \$1-set_active_loop_end;
#X obj 127 143 t b b b b b;
#X obj 334 276 f, f 5;
#X obj 427 268 f;
#X text 236 135 first loop sample;
#X text 402 129 last loop sample;
#X obj 39 192 bng 25 250 50 0 \$0_play_button empty empty 17 7 0 10 #e3dfd9 #5a5a5a #5a5a5a;
#X text 38 170 play;
#X obj -64 168 bng 25 250 50 0 empty empty empty 17 7 0 10 #e3dfd9 #5a5a5a #5a5a5a;
#X text -76 135 stop;
#X obj 344 328 t f f;
#N canvas 733 172 450 300 play_pause_stop 0;
#X msg -501 200 stop;
#X obj -52 420 snapshot~;
#X obj -102 467 f;
#X obj 29 540 tgl 25 0 empty empty empty 17 7 0 10 #e3dfd9 #5a5a5a #5a5a5a 0 1;
#X text -42 466 f_paused_position;
#X floatatom -102 494 7 0 0 0 - - - 12;
#X obj -121 388 t b b;
#X obj -102 523 pack f;
#X msg -102 574 \$1 0;
#X obj -236 397 f;
#X obj -236 447 sel 1 0;
#X obj -236 501 f;
#X obj -236 540 t b b f;
#X obj -207 231 f;
#X obj -189 293 sel 1 0;
#X msg -358 371 1;
#X msg 29 494 1;
#X msg -147 525 0;
#X msg -324 282 0;
#X obj -570 365 r \$1-set_active_loop_start;
#X obj -326 414 f;
#X obj -326 523 pack f;
#X msg -326 616 \$1 0;
#X obj -165 202 r \$0-is_playing_flag;
#X obj -107 282 r \$0-is_paused_flag;
#X obj 29 616 s \$0-is_paused_flag;
#X obj -487 482 s \$0-is_playing_flag;
#X obj 276 377 inlet~;
#X obj -471 310 print inlet-stop;
#X obj -207 678 outlet resume-value;
#X obj -56 686 outlet paused-value;
#X obj -222 759 outlet resume-playback;
#X obj -165 616 outlet playback-start;
#X floatatom -147 346 5 0 0 0 - - - 12;
#X obj -396 179 r \$0_stop_button;
#X obj -207 155 r \$0_play_button;
#X obj -408 720 outlet stop_position;
#X floatatom -207 260 5 0 0 0 - - - 12;
#X msg -270 224 1;
#X obj -236 337 t b b;
#X obj 51 163 r \$0-slice_play_flag;
#X obj 179 270 r \$0-direction_change;
#X obj 179 322 bang;
#X obj 132 511 s \$0-direction-change-pos;
#X connect 1 0 2 1;
#X connect 1 0 43 0;
#X connect 2 0 5 0;
#X connect 3 0 25 0;
#X connect 5 0 7 0;
#X connect 5 0 11 1;
#X connect 6 0 2 0;
#X connect 6 0 16 0;
#X connect 6 1 1 0;
#X connect 7 0 8 0;
#X connect 8 0 30 0;
#X connect 9 0 10 0;
#X connect 10 0 17 0;
#X connect 10 0 11 0;
#X connect 10 1 6 0;
#X connect 11 0 12 0;
#X connect 12 1 31 0;
#X connect 12 2 29 0;
#X connect 13 0 37 0;
#X connect 14 0 39 0;
#X connect 14 1 32 0;
#X connect 14 1 15 0;
#X connect 15 0 26 0;
#X connect 16 0 3 0;
#X connect 17 0 3 0;
#X connect 18 0 3 0;
#X connect 18 0 20 0;
#X connect 18 0 26 0;
#X connect 19 0 20 1;
#X connect 20 0 21 0;
#X connect 21 0 22 0;
#X connect 22 0 36 0;
#X connect 23 0 13 1;
#X connect 24 0 33 0;
#X connect 27 0 1 0;
#X connect 33 0 9 1;
#X connect 34 0 18 0;
#X connect 35 0 13 0;
#X connect 37 0 14 0;
#X connect 39 0 9 0;
#X connect 39 1 33 0;
#X connect 40 0 15 0;
#X connect 40 0 17 0;
#X connect 41 0 42 0;
#X connect 42 0 1 0;
#X restore 30 234 pd play_pause_stop;
#X floatatom 75 -56 5 0 0 0 - - - 12;
#X obj 75 -88 r row_\$1;
#X obj 163 -88 r \$1-slice_size_val;
#X floatatom 163 -56 7 0 0 0 - - - 12;
#X obj 114 -8 *;
#X floatatom 114 24 8 0 0 0 - - - 12;
#X obj 114 54 t b f;
#X obj 2 192 bng 25 250 50 0 \$0_stop_button empty empty 17 7 0 10 #e3dfd9 #5a5a5a #5a5a5a;
#X msg 236 462 stop;
#X obj -53 262 bng 25 250 50 0 empty empty empty 17 7 0 10 #e3dfd9 #5a5a5a #5a5a5a;
#X msg -42 343 0 0;
#X obj 221 351 \$1 \$2;
#X obj 67 351 t b b b b b;
#X obj 211 255 f;
#X obj 207 114 s \$0-slice_play_flag;
#X obj 595 -18 t b b b b f;
#X obj 692 82 s \$0-direction_change;
#X obj 808 -182 r \$0-is_playing_flag;
#X obj 760 -106 f;
#X obj 760 -77 sel 0 1;
#X obj 774 -8 s \$0-direction_change;
#X obj 473 -182 r \$0-direction-change-pos;
#X obj 712 -182 t b b f;
#X obj 473 -133 f;
#X obj 446 -51 t b f;
#X floatatom 833 -112 5 0 0 0 - - - 12;
#X msg 738 -250 1;
#X msg 789 -226 0;
#X obj -87 464 print jump-to;
#X floatatom 473 -94 8 0 0 0 - - - 12;
#X obj 309 -278 r \$0-is_playing_flag;
#X obj 298 -193 f;
#X obj 298 -153 switch;
#X floatatom 270 -226 5 0 0 0 - - - 12;
#X floatatom 378 -153 5 0 0 0 - - - 12;
#X obj 378 -226 r \$0-is_paused_flag;
#X obj 344 -104 switch;
#X obj 378 -193 + 1;
#X obj 537 501 print resume-bang;
#X connect 0 0 1 0;
#X connect 1 0 6 0;
#X connect 1 1 7 0;
#X connect 2 0 3 0;
#X connect 4 0 5 0;
#X connect 6 0 4 0;
#X connect 7 0 2 0;
#X connect 8 0 9 0;
#X connect 8 0 66 0;
#X connect 8 0 48 0;
#X connect 11 0 41 0;
#X connect 12 0 31 1;
#X connect 12 0 32 2;
#X connect 12 0 25 2;
#X connect 13 0 12 0;
#X connect 14 0 15 0;
#X connect 15 0 31 2;
#X connect 15 0 32 1;
#X connect 15 0 25 1;
#X connect 16 0 89 0;
#X connect 17 0 30 0;
#X connect 17 0 32 0;
#X connect 17 0 31 0;
#X connect 17 0 25 0;
#X connect 18 0 26 0;
#X connect 18 0 44 0;
#X connect 19 0 20 0;
#X connect 20 0 11 2;
#X connect 21 0 22 0;
#X connect 25 0 28 0;
#X connect 26 0 82 0;
#X connect 27 0 45 0;
#X connect 27 0 17 1;
#X connect 28 0 21 0;
#X connect 31 0 57 1;
#X connect 32 0 58 1;
#X connect 33 0 34 0;
#X connect 34 0 11 3;
#X connect 35 0 40 0;
#X connect 36 0 46 0;
#X connect 38 0 46 1;
#X connect 40 0 42 0;
#X connect 40 1 34 0;
#X connect 40 2 20 0;
#X connect 40 3 15 0;
#X connect 40 4 12 0;
#X connect 40 5 17 0;
#X connect 41 0 46 2;
#X connect 42 1 57 0;
#X connect 42 2 58 0;
#X connect 43 0 40 0;
#X connect 44 0 20 0;
#X connect 46 0 47 0;
#X connect 47 0 8 0;
#X connect 49 0 82 0;
#X connect 50 0 52 0;
#X connect 52 0 51 0;
#X connect 53 0 54 0;
#X connect 54 0 55 0;
#X connect 56 0 57 0;
#X connect 56 1 58 0;
#X connect 56 2 34 0;
#X connect 56 3 17 0;
#X connect 56 4 20 0;
#X connect 57 0 65 0;
#X connect 58 0 38 0;
#X connect 58 0 11 1;
#X connect 65 0 36 0;
#X connect 65 1 11 0;
#X connect 66 0 8 0;
#X connect 66 1 79 0;
#X connect 66 1 105 0;
#X connect 66 2 80 1;
#X connect 66 3 56 0;
#X connect 66 4 78 0;
#X connect 67 0 71 0;
#X connect 67 0 81 0;
#X connect 68 0 67 0;
#X connect 69 0 70 0;
#X connect 70 0 71 1;
#X connect 71 0 72 0;
#X connect 72 0 73 0;
#X connect 73 0 56 0;
#X connect 73 1 57 1;
#X connect 75 0 8 0;
#X connect 76 0 77 0;
#X connect 77 0 8 0;
#X connect 78 0 8 0;
#X connect 79 2 80 0;
#X connect 79 3 58 0;
#X connect 79 4 34 0;
#X connect 80 0 57 0;
#X connect 82 1 12 0;
#X connect 82 2 15 0;
#X connect 82 3 83 0;
#X connect 82 4 27 0;
#X connect 84 0 92 0;
#X connect 84 0 85 1;
#X connect 85 0 86 0;
#X connect 86 1 87 0;
#X connect 88 0 90 0;
#X connect 89 1 85 0;
#X connect 89 2 82 0;
#X connect 90 0 96 0;
#X connect 91 0 99 1;
#X connect 91 1 57 1;
#X connect 93 0 89 0;
#X connect 94 0 89 0;
#X connect 96 0 91 0;
#X connect 97 0 100 0;
#X connect 97 0 98 0;
#X connect 98 0 99 0;
#X connect 99 0 103 1;
#X connect 101 0 103 0;
#X connect 102 0 104 0;
#X connect 103 0 56 0;
#X connect 104 0 101 0;
