#N canvas 827 239 527 327 12;
#N canvas 0 0 450 250 (subpatch) 0;
#X array \$0-samplerL 338688 float 0;
#X coords 0 1 338687 -1 338 221 1;
#X restore 1289 57 graph;
#X obj 120 231 soundfiler;
#N canvas 0 0 450 250 (subpatch) 0;
#X array \$0-samplerR 338688 float 0;
#X coords 0 1 338687 -1 338 221 1;
#X restore 1289 297 graph;
#X obj 119 0 openpanel;
#X floatatom 120 268 8 0 0 0 - - - 12;
#X floatatom 212 275 6 0 0 0 - - - 12;
#X obj 212 243 unpack f f f f;
#X floatatom 793 666 7 0 0 0 - - - 16;
#X obj 686 596 expr abs($f2 - $f1) / $f3;
#X text 778 701 Playback Speed;
#X obj 120 341 t b f;
#X obj 131 371 / 16;
#X floatatom 131 404 6 0 0 0 - - - 16;
#X msg 409 518 stop;
#X obj 618 765 vline~;
#X msg 618 729 \$1 \, \$2 \$3;
#X obj 618 695 pack f f f;
#X text 442 417 Play;
#X obj 529 582 *;
#X floatatom 495 550 4 0 0 0 - - - 12;
#X obj 456 480 random;
#X floatatom 533 391 5 0 0 0 - - - 16;
#X obj 495 518 t f f;
#X obj 401 432 bng 25 250 50 0 empty empty empty 17 7 0 10 #333333 #eeeeee #e4e4e4;
#X obj 578 582 *;
#X floatatom 578 639 7 0 0 0 - - - 16;
#X text 814 479 Slice (plays till end of sample);
#X text 320 38 Load Sample;
#X text 350 390 Play Random Slice for Tests;
#X floatatom 1037 103 9 0 0 0 - - - 12;
#X obj 1037 136 sig~;
#X obj 778 790 expr~ $v1 >= $v2;
#X obj 778 822 edge~;
#X obj 778 850 bang;
#X msg 339 697 0;
#X obj 391 750 pack f f f;
#X obj 970 870 hsl 328 13 0 1 0 0 \$1-playhead empty empty -2 -8 0 10 #333333 #eeeeee #e4e4e4 0 1;
#X obj 1042 729 metro 20;
#X obj 968 778 snapshot~;
#X obj 1067 768 bang;
#X obj 213 302 / 1000;
#X obj 367 714 expr abs($f2 - $f1) / $f3;
#X text 424 633 Loop Points Logic;
#X text 794 728 Loop Math/Function;
#X text 1025 839 playhead Visualizer;
#X floatatom 1146 103 8 0 0 0 - - - 12;
#X obj 753 234 int;
#X obj 686 276 select 0;
#X obj 819 334 print;
#X obj 750 276 * 64;
#X obj 650 310 spigot;
#X obj 623 438 tgl 21 0 empty empty empty 0 -11 0 12 #fcfcfc #000000 #000000 0 1;
#X text 603 409 Beat Reset;
#X floatatom 673 429 3 1 100 0 - - - 24;
#X obj 484 252 tgl 27 0 empty empty empty 0 -11 0 12 #fcfcfc #000000 #000000 0 1;
#X obj 484 217 change;
#X obj 484 290 sel 1;
#X obj 527 340 bang;
#X obj 720 702 *;
#X floatatom 700 670 5 -4 4 0 - - - 12;
#X obj 686 629 t b f;
#X msg 788 404 4;
#X obj 119 -25 r \$1-sample-load;
#X obj 131 453 send \$0-slice-pos;
#X obj 1037 166 s~ \$0-loop-end;
#X obj 337 643 r \$0-reset-sync;
#X obj 306 669 r \$0-loop-trigger;
#X obj 867 753 r~ \$0-loop-end;
#X obj 778 874 s \$0-loop-trigger;
#X obj 842 227 send \$0-64th-pulse;
#X obj 700 362 s \$0-reset-sync;
#X obj 686 65 r ppq;
#X obj 484 180 r daw-transport;
#X obj 120 194 prepend read -resize;
#X obj 119 26 list trim;
#X obj 160 98 symbol \$0-samplerR;
#X obj 141 127 symbol \$0-samplerL;
#X obj 119 154 pack s s s;
#X obj 119 56 t a b b;
#X obj 883 352 loadbang;
#X obj 470 1073 s~ \$1-audio-send-L;
#X obj 618 1066 s~ \$1-audio-send-R;
#X msg 735 629 1;
#X obj 1776 112 inlet~ audio-in-L;
#X obj 1900 112 inlet~ audio-in-R;
#X msg 1044 362 0;
#X obj 1042 417 f;
#X text 928 416 event pending flag;
#X obj 1042 465 spigot;
#X obj 1042 227 r \$0-64th-pulse;
#X obj 1042 331 t b b;
#X obj 1146 73 r row_\$1;
#X obj 304 429 r transport;
#X obj 672 385 print reset;
#X obj 686 217 mod;
#X obj 1131 322 r row_\$1;
#X obj 1042 260 mod, f 5;
#X msg 1191 289 16;
#X obj 1042 290 select 0;
#X obj 1173 407 f;
#X text 1208 406 event storage;
#X msg 975 362 0;
#X msg 1098 385 1;
#X obj 1131 362 t b f;
#X obj 1180 768 scale 0 \$0 0 1;
#X obj 1164 512 switch;
#X obj 1164 561 s \$0-slice-size;
#X obj 1029 552 sel 1;
#X msg 1032 587 1;
#X msg 1145 465 2;
#X obj 1029 512 r \$1-quantizer;
#X obj 230 753 inlet sample-selection;
#X obj 277 840 t f f;
#X obj 699 927 sprintf sample%d-R;
#X obj 699 959 prepend set;
#X obj 666 1000 tabread4~;
#X obj 483 943 prepend set;
#X obj 504 1000 tabread4~;
#X obj 483 911 sprintf sample%d-L;
#X obj 627 480 r \$1-slice-pos;
#X obj 733 480 r \$1-length;
#X obj 814 573 r \$1-rate;
#X obj 1037 73 r \$1-length;
#X obj 518 480 r \$0-slice-size;
#X obj 212 332 s \$1-rate;
#X obj 51 314 s \$1-length;
#X obj 424 669 r \$1-length;
#X obj 504 669 r \$1-rate;
#X obj 283 970 print loadbang;
#X obj 848 65 r clock-pulse;
#X connect 1 0 4 0;
#X connect 1 1 6 0;
#X connect 3 0 74 0;
#X connect 4 0 10 0;
#X connect 4 0 125 0;
#X connect 5 0 40 0;
#X connect 6 0 5 0;
#X connect 7 0 58 1;
#X connect 8 0 60 0;
#X connect 10 0 21 0;
#X connect 10 1 11 0;
#X connect 11 0 12 0;
#X connect 12 0 63 0;
#X connect 13 0 14 0;
#X connect 14 0 31 0;
#X connect 14 0 38 0;
#X connect 14 0 115 0;
#X connect 14 0 117 0;
#X connect 15 0 14 0;
#X connect 16 0 15 0;
#X connect 18 0 16 0;
#X connect 19 0 18 0;
#X connect 20 0 22 0;
#X connect 21 0 20 1;
#X connect 22 0 19 0;
#X connect 22 1 24 0;
#X connect 23 0 20 0;
#X connect 23 0 37 0;
#X connect 24 0 8 0;
#X connect 24 0 25 0;
#X connect 29 0 30 0;
#X connect 30 0 64 0;
#X connect 31 0 32 0;
#X connect 32 0 33 0;
#X connect 33 0 68 0;
#X connect 34 0 41 0;
#X connect 34 0 35 0;
#X connect 35 0 15 0;
#X connect 37 0 39 0;
#X connect 38 0 104 0;
#X connect 39 0 38 0;
#X connect 40 0 124 0;
#X connect 41 0 35 2;
#X connect 46 0 49 0;
#X connect 47 0 50 0;
#X connect 49 0 94 1;
#X connect 50 0 48 0;
#X connect 50 0 70 0;
#X connect 50 0 93 0;
#X connect 51 0 50 1;
#X connect 53 0 46 0;
#X connect 54 0 56 0;
#X connect 55 0 54 0;
#X connect 56 0 20 0;
#X connect 56 0 37 0;
#X connect 56 1 57 0;
#X connect 57 0 13 0;
#X connect 58 0 16 2;
#X connect 59 0 58 0;
#X connect 60 0 59 0;
#X connect 60 1 7 0;
#X connect 61 0 53 0;
#X connect 61 0 46 0;
#X connect 62 0 3 0;
#X connect 65 0 34 0;
#X connect 66 0 34 0;
#X connect 67 0 31 1;
#X connect 71 0 69 0;
#X connect 71 0 94 0;
#X connect 72 0 55 0;
#X connect 73 0 1 0;
#X connect 74 0 78 0;
#X connect 75 0 77 2;
#X connect 76 0 77 1;
#X connect 77 0 73 0;
#X connect 78 0 77 0 32.................n..........J.........7D....;
#X connect 78 1 76 0 32.................Z....f....fF....H....PC....;
#X connect 78 2 75 0 32.................L....v.....C....L....bA....;
#X connect 79 0 61 0;
#X connect 79 0 82 0;
#X connect 79 0 101 0;
#X connect 79 0 108 0;
#X connect 82 0 59 0;
#X connect 85 0 86 0;
#X connect 86 0 88 1;
#X connect 88 0 105 2;
#X connect 89 0 96 0;
#X connect 90 0 85 0;
#X connect 90 1 99 0;
#X connect 91 0 45 0;
#X connect 92 0 13 0;
#X connect 94 0 47 0;
#X connect 95 0 103 0;
#X connect 95 0 105 1;
#X connect 96 0 98 0;
#X connect 97 0 96 1;
#X connect 98 0 90 0;
#X connect 99 0 88 0;
#X connect 101 0 85 0;
#X connect 101 0 99 0;
#X connect 102 0 86 0;
#X connect 102 0 86 1;
#X connect 103 0 102 0;
#X connect 103 1 99 0;
#X connect 104 0 36 0;
#X connect 105 0 106 0;
#X connect 107 0 108 0;
#X connect 107 1 109 0;
#X connect 108 0 105 0;
#X connect 109 0 105 0;
#X connect 110 0 107 0;
#X connect 111 0 112 0;
#X connect 112 0 118 0;
#X connect 112 1 113 0;
#X connect 113 0 114 0;
#X connect 114 0 115 0;
#X connect 115 0 81 0;
#X connect 116 0 117 0;
#X connect 116 0 128 0;
#X connect 117 0 80 0;
#X connect 118 0 116 0;
#X connect 119 0 18 1;
#X connect 119 0 24 1;
#X connect 120 0 16 1;
#X connect 120 0 8 1;
#X connect 120 0 104 2;
#X connect 121 0 8 2;
#X connect 122 0 29 0;
#X connect 123 0 22 0;
#X connect 126 0 41 1;
#X connect 126 0 35 1;
#X connect 127 0 41 2;
